SplineFontDB: 1.0
FontName: Isabella
FullName: Isabella
FamilyName: Isabella
Weight: Medium
Copyright: Created by John Stracke with PfaEdit 1.0 (http://pfaedit.sf.net).  Released under the GNU Lesser General Public License (LGPL): http://www.thibault.org/fonts/isabella/
Comments: 2005-07-03: 1.02: finally getting rid of the annoying ligatures-pretending-to-be-Greek-letters, and moving them up into the private use area.\n\n2003-09-10: 1.01: LGPL; adding lowercase figures.\n\n2003-08-24: 1.00: declaring victory.\n\n2003-08-17: 0.94: added 50 more characters.  More or less complete now; don't really see any more that I can reasonably base on Isabella.\n\n2003-08-16: 0.93: added a couple hundred more characters.\n\n2003-08-07: fixed the TM.\n\n2003-08-07: released.\n\n2003-7-21: Created.
Version: 001.003
ItalicAngle: 0
UnderlinePosition: -100
UnderlineWidth: 50
Ascent: 800
Descent: 200
NeedsXUIDChange: 1
XUID: [1021 117 711671440 15935222]
FSType: 8
PfmFamily: 17
TTFWeight: 500
TTFWidth: 5
Panose: 2 0 6 3 0 0 0 0 0 0
LineGap: 90
VLineGap: 0
OS2WinAscent: 0
OS2WinAOffset: 1
OS2WinDescent: 0
OS2WinDOffset: 1
HheadAscent: 0
HheadAOffset: 1
HheadDescent: 0
HheadDOffset: 1
ScriptLang: 4
 1 latn 1 dflt 
 1 DFLT 1 dflt 
 1 grek 1 dflt 
 1 hebr 1 dflt 
TtfTable: cvt  4
!$MDh
EndTtf
LangName: 1033 "" "" "" "" "" "" "" "" "" "John Stracke" "" "" "http://www.thibault.org/fonts/" "Released under the GNU Lesser General Public License.  You should have received a copy with the font, in the file named COPYING." "http://www.fsf.org/copyleft/lesser.html" "" "" "" "" "Ba+AX8A-ed on the I+AX8A-abella Breviary.  +AH8A" 
LangName: 1069 "" "" "" "" "" "0.4" 
Encoding: UnicodeBmp
UnicodeInterp: none
DisplaySize: -24
AntiAlias: 1
FitToEm: 1
WinInfo: 57280 32 25
TeXData: 1 10485760 0 346030 173015 115343 0 1048576 115343 783286 444596 497025 792723 393216 433062 380633 303038 157286 324010 404750 52429 2506097 1059062 262144
BeginChars: 65536 816
StartChar: exclam
Encoding: 33 33 1
Width: 213
Flags: HW
VStem: 62 118<295 690 690.032 697.953>
Fore
177 96 m 4
 154.45 73.4502 150.072 63.4805 129 47 c 28
 110.823 32.7842 101.04 15.7109 78 17 c 28
 60.4775 17.9805 52.8008 30.167 42 44 c 28
 27.1562 63.0117 14.3242 77.1611 18 101 c 28
 22.6797 131.353 44.7061 142.213 69 161 c 28
 89.5596 176.899 103.1 192.158 129 190 c 20
 165 187 162 190 183 164 c 4
 204.492 137.391 204 123 177 96 c 4
63 219 m 12
 61.6895 188.854 107.096 236.963 132 254 c 28
 152.744 268.19 180 271.867 180 297 c 20
 180 386.64 181.829 459.941 181 537 c 4
 180 630 180 645 180 754 c 12
 180 782.757 136.166 741.916 111 728 c 28
 89.5664 716.147 60.2354 714.48 61 690 c 20
 64 594 61.656 565.561 62 486 c 28
 62.4502 381.87 66 288 63 219 c 12
EndSplineSet
EndChar
StartChar: quotedbl
Encoding: 34 34 2
Width: 447
Flags: W
VStem: 63.9004 118<510 675 675.032 683.818> 264.9 118<510 675 675.032 683.818>
Fore
265.9 441 m 8
 264.612 411.365 310.404 456.271 334.9 473 c 24
 356.312 487.623 382.9 493.071 382.9 519 c 16
 382.9 608.64 384.729 544.941 383.9 622 c 0
 382.9 715 382.9 630 382.9 739 c 8
 382.9 767.018 338.463 732.479 313.9 719 c 24
 291.129 706.504 263.089 700.963 263.9 675 c 16
 266.9 579 264.55 611.561 264.9 571 c 24
 265.339 520.301 268.9 510 265.9 441 c 8
64.9004 441 m 12
 63.6123 411.365 109.404 456.271 133.9 473 c 28
 155.312 487.623 181.9 493.071 181.9 519 c 20
 181.9 608.64 183.729 544.941 182.9 622 c 4
 181.9 715 181.9 630 181.9 739 c 12
 181.9 767.018 137.463 732.479 112.9 719 c 28
 90.1289 706.504 62.0889 700.963 62.9004 675 c 20
 65.9004 579 63.5498 611.561 63.9004 571 c 28
 64.3389 520.301 67.9004 510 64.9004 441 c 12
EndSplineSet
EndChar
StartChar: numbersign
Encoding: 35 35 3
Width: 363
Flags: W
HStem: 318.03 39.5576<31 264> 440.471 39.5586<68 302>
Fore
51.915 357.588 m 8
 43.8828 357.4 42.0635 346.761 37.709 337.809 c 24
 34.3076 330.815 25.3965 317.887 31.6709 318.03 c 16
 93.4688 319.442 92.5488 317.65 131.471 317.559 c 24
 182.721 317.438 212.803 317.088 262.88 317.559 c 8
 267.417 317.601 266.842 325.396 268.917 330.744 c 24
 272.779 340.694 285.874 356.693 277.441 357.116 c 16
 230.561 359.471 198.148 357.495 147.453 357.588 c 24
 110.193 357.654 112.647 359 51.915 357.588 c 8
89.207 480.029 m 12
 81.1748 479.843 79.3545 469.203 75 460.25 c 28
 71.5996 453.256 62.6885 440.328 68.9629 440.471 c 20
 130.761 441.884 129.84 440.092 168.763 440 c 28
 220.013 439.879 250.094 439.529 300.171 440 c 12
 304.709 440.043 304.133 447.837 306.209 453.186 c 28
 310.071 463.136 323.166 479.135 314.732 479.559 c 20
 267.852 481.913 235.44 479.938 184.744 480.029 c 28
 147.485 480.097 149.939 481.442 89.207 480.029 c 12
140.35 215.838 m 8
 139.65 213.692 141.838 212.178 143.546 211.6 c 24
 148.303 209.991 153.19 210.654 155.622 216.309 c 16
 175.866 263.401 190.547 306.194 212.092 364.181 c 24
 236.46 429.766 243.346 455.541 273.18 533.244 c 8
 275.227 538.576 266.658 537.341 262.17 537.953 c 24
 258.289 538.484 253.726 541.314 252.225 536.541 c 16
 230.916 468.728 219.671 437.938 197.886 375.482 c 24
 176.038 312.853 157.397 268.111 140.35 215.838 c 8
50.4941 215.838 m 8
 49.7949 213.692 51.9834 212.177 53.6904 211.6 c 24
 58.4482 209.991 63.3359 210.654 65.7666 216.309 c 16
 86.0107 263.401 100.691 306.194 122.236 364.181 c 24
 146.604 429.766 153.49 455.541 183.324 533.244 c 8
 185.371 538.576 176.803 537.341 172.314 537.953 c 24
 168.435 538.484 163.87 541.314 162.37 536.541 c 16
 141.061 468.728 129.816 437.938 108.03 375.482 c 24
 86.1836 312.853 67.542 268.111 50.4941 215.838 c 8
EndSplineSet
EndChar
StartChar: dollar
Encoding: 36 36 4
Width: 424
Flags: W
VStem: 197.126 53<496 515 496 576>
Fore
240.126 268 m 16
 237.126 235 236.769 220.331 239.126 190 c 24
 240.934 166.732 227.344 122.622 249.126 131 c 16
 288.126 146 341.796 135.948 347.126 178 c 24
 353.981 232.096 245.062 322.305 240.126 268 c 16
191.126 408 m 16
 191.126 447 197.039 461.601 197.126 496 c 24
 197.219 533.124 191.126 531 191.126 591 c 8
 191.126 650.343 75.4688 547.23 79.126 488 c 24
 82.4336 434.424 191.126 354.321 191.126 408 c 16
203.126 714 m 24
 205.792 718.33 209.136 720.017 214.126 721 c 24
 229.287 723.987 243.211 725.853 253.126 714 c 24
 260.633 705.025 253.126 695.7 253.126 684 c 24
 253.126 669.96 246.167 660.194 253.126 648 c 24
 267.944 622.032 294.726 626.279 319.126 609 c 24
 350.301 586.923 387.047 583.538 394.126 546 c 24
 396.843 531.594 386.022 523.815 376.126 513 c 24
 367.583 503.663 361.781 495 349.126 495 c 24
 323.815 495 314.699 514.953 295.126 531 c 24
 275.932 546.735 250.953 600.806 250.126 576 c 16
 247.126 486 252.531 496.643 250.126 446 c 24
 248.955 421.347 244.126 436 244.126 383 c 0
 244.126 340.106 275.951 338.341 310.516 315 c 0
 355.715 284.479 405.597 234.104 395.126 179 c 8
 381.651 108.09 278.506 140.827 238.126 81 c 24
 234.359 75.4199 235.713 70.707 235.126 64 c 24
 234.207 53.5098 240.801 45.8701 235.126 37 c 24
 229.107 27.5928 220.29 25.29 209.126 25 c 24
 196.529 24.6729 185.661 26.2266 179.126 37 c 24
 173.027 47.0527 181.54 55.2559 182.126 67 c 24
 182.592 76.3486 186.58 82.7686 182.126 91 c 24
 154.632 141.801 73.126 142 58.126 172 c 0
 45.4854 197.281 49.8076 222.941 61.126 221.989 c 0
 80.127 220.391 118.846 194.521 130.126 187 c 8
 148.312 174.875 179.439 150.651 184.126 172 c 16
 193.126 213 188.12 218.946 190.126 249 c 24
 191.53 270.046 193.126 279 193.126 303 c 8
 193.126 347.151 129.642 333.134 97.126 363 c 24
 64.0947 393.339 32.8506 410.399 28.126 455 c 24
 22.8311 504.976 50.2129 533.178 82.126 572 c 24
 115.465 612.558 161.268 607.816 191.126 651 c 24
 198.713 661.973 197.698 670.883 200.126 684 c 24
 202.266 695.562 196.961 703.987 203.126 714 c 24
EndSplineSet
EndChar
StartChar: percent
Encoding: 37 37 5
Width: 363
Flags: W
VStem: 36.4826 37.2622<456.507 497.511> 137.91 33.9562<425.753 491.542> 207.482 37.2622<174.507 215.511> 308.909 33.9562<143.753 209.542>
Fore
32.7275 65.5293 m 12
 32.0859 63.5615 33.9804 62.0057 35.9238 61.291 c 28
 43.8281 58.3838 53.6738 58.2627 57 66 c 20
 77.2441 113.093 161.431 245.607 221.092 364.181 c 28
 275.807 472.925 321.166 570.297 351 648 c 12
 353.874 655.484 338.999 652.348 330.99 652.709 c 28
 327.076 652.886 322.22 655.034 321.045 651.297 c 20
 299.736 583.483 249.632 481.313 197.886 375.482 c 28
 137.72 252.433 49.7754 117.803 32.7275 65.5293 c 12
EndSplineSet
Ref: 111 111 S 0.444989 0 0 0.4457 198.552 101.412
Ref: 111 111 S 0.444989 0 0 0.4457 27.5524 383.412
EndChar
StartChar: ampersand
Encoding: 38 38 6
Width: 421
Flags: W
Back
Fore
392 49 m 20
 380 73 350.41 65.4102 326 80 c 28
 287.233 103.17 259.936 112.749 233 149 c 28
 214.459 173.953 209.474 193.107 206 224 c 28
 202.049 259.14 210.057 279.327 217 314 c 28
 221.533 336.64 223.859 349.797 233 371 c 28
 241.103 389.795 277.55 405.47 260 416 c 20
 245 425 231.209 436.287 212 448 c 28
 194.858 458.452 187.041 474.2 167 473 c 28
 125.183 470.495 110.862 438.327 80 410 c 28
 54.9434 387.002 18.0566 377.649 23 344 c 28
 25.2168 328.907 42.5879 330.27 56 323 c 28
 68.4287 316.264 74.8652 307.738 89 308 c 28
 104.694 308.291 112.948 315.942 125 326 c 28
 133.982 333.497 144.474 338.394 143 350 c 28
 142.057 357.432 132.464 355.983 128 362 c 28
 120.492 372.12 110.161 380.833 116 392 c 28
 123.232 405.833 140.555 406.915 155 401 c 28
 169.117 395.22 173.038 382.965 176 368 c 28
 186.383 315.542 155.219 286.379 152 233 c 28
 149.461 190.892 140.781 163.511 158 125 c 28
 172.183 93.2793 193.932 83.7871 221 62 c 28
 235.074 50.6719 242.745 42.3545 260 37 c 28
 283.478 29.7148 298.505 32.9316 323 35 c 28
 350.361 37.3096 404.279 24.4404 392 49 c 20
EndSplineSet
EndChar
StartChar: quotesingle
Encoding: 39 39 6
Width: 196
Flags: W
VStem: 47.4004 118<510 675 675.032 683.818>
Fore
48.4004 441 m 8
 47.1123 411.365 92.9043 456.271 117.4 473 c 24
 138.812 487.623 165.4 493.071 165.4 519 c 16
 165.4 608.64 167.229 544.941 166.4 622 c 0
 165.4 715 165.4 630 165.4 739 c 8
 165.4 767.018 120.963 732.479 96.4004 719 c 24
 73.6289 706.504 45.5889 700.963 46.4004 675 c 16
 49.4004 579 47.0498 611.561 47.4004 571 c 24
 47.8389 520.301 51.4004 510 48.4004 441 c 8
EndSplineSet
EndChar
StartChar: parenleft
Encoding: 40 40 2
Width: 213
Flags: W
Fore
162 768 m 12
 206.157 871.6 61.4292 615.413 45 504 c 28
 18.8535 326.693 27 135 102 48 c 12
 113.936 34.1543 127.27 61.9308 141 74 c 28
 153.042 84.585 177.268 91.917 168 105 c 20
 117 177 99.8274 211.042 90 288 c 28
 66.0225 475.77 84 585 162 768 c 12
EndSplineSet
EndChar
StartChar: asterisk
Encoding: 42 42 4
Width: 528
Flags: W
Fore
260 665 m 24
 226.355 639.992 244.654 601.216 237 560 c 24
 231.813 532.071 246.892 507.246 226 488 c 24
 201.272 465.22 173.349 486.275 140 482 c 24
 127.405 480.386 118.975 482.385 108 476 c 24
 90.7783 465.98 88.4911 451.662 75 437 c 24
 60.4355 421.171 51 422 36 398 c 8
 25.0156 380.425 65.8878 385.001 86 380 c 24
 118.114 372.014 181.619 398.985 170 368 c 16
 152 320 153.842 313.819 139 281 c 24
 119.146 237.097 109 227 79 173 c 8
 74.3145 164.566 93.4687 168.497 103 167 c 24
 120.376 164.271 136.554 150.646 148 164 c 16
 184 206 182.063 216.398 202 251 c 24
 228.479 296.957 256.729 415.035 266 371 c 0
 278 314 278.039 298.823 291 254 c 24
 301.042 219.271 295.46 190.422 323 167 c 24
 332.381 159.022 341.686 161.102 354 161 c 24
 374.196 160.833 393.058 153.712 405 170 c 24
 431.515 206.164 401.02 240.532 390 284 c 24
 380.353 322.053 375 336 354 378 c 8
 344.741 396.518 386.305 380.415 407 381 c 24
 418.695 381.331 426.601 375.638 437 381 c 24
 462.104 393.944 466.497 414.674 479 440 c 24
 486.045 454.27 505.233 471.883 491 479 c 16
 473 488 446.93 475.069 419 478 c 24
 380.421 482.049 327.486 461.599 322 500 c 16
 318 528 319.444 536.093 320 560 c 0
 321 603 335 659 299 662 c 8
 283.798 663.267 272.243 674.1 260 665 c 24
EndSplineSet
EndChar
StartChar: plus
Encoding: 43 43 5
Width: 315
Flags: W
HStem: 327.471 39.558<40 274>
VStem: 143.833 40.0293<242 327 339 457>
Fore
183.862 244.374 m 20
 185.275 305.106 183.931 302.652 183.862 339.911 c 28
 183.771 390.607 185.746 423.02 183.393 469.899 c 12
 182.969 478.333 166.97 465.238 157.02 461.376 c 28
 151.67 459.3 143.876 459.876 143.833 455.338 c 20
 143.362 405.261 142.833 375.167 143.833 323.93 c 12
 144.594 285.014 145.718 285.928 144.305 224.13 c 12
 144.161 217.855 157.09 226.767 164.083 230.167 c 28
 173.036 234.521 183.677 236.342 183.862 244.374 c 20
61.207 367.029 m 12
 53.1748 366.843 51.3545 356.203 47 347.25 c 28
 43.5996 340.256 34.6885 327.328 40.9629 327.471 c 20
 102.761 328.884 101.847 327.76 140.763 327 c 20
 192 326 222.094 326.529 272.171 327 c 12
 276.709 327.043 276.133 334.837 278.209 340.186 c 28
 282.071 350.136 295.166 366.135 286.732 366.559 c 20
 239.852 368.913 207.44 366.938 156.744 367.029 c 28
 119.485 367.097 121.939 368.442 61.207 367.029 c 12
EndSplineSet
EndChar
StartChar: comma
Encoding: 44 44 4
Width: 271
Flags: W
Back
Fore
261 305 m 28
 256.834 283.039 235.36 281.231 219 266 c 28
 195.572 244.189 180.302 233.891 159 210 c 28
 136.729 185.024 130.848 165.449 108 141 c 28
 75.5068 106.229 -10.2227 21.6445 15 62 c 20
 30 86 43.7119 102.358 59 130 c 28
 80.4492 168.781 136.443 199.877 107 233 c 20
 83 260 88.333 261.227 76 279 c 28
 66.4365 292.781 50.0566 297.252 51 314 c 28
 52.7705 345.432 82.376 352.109 105 374 c 28
 125.886 394.209 141 413 162 422 c 4
 200.996 438.713 205.636 402.295 225 380 c 28
 246.275 355.504 267.046 336.877 261 305 c 28
EndSplineSet
EndChar
StartChar: hyphen
Encoding: 45 45 5
Width: 315
Flags: W
HStem: 327 40.029<59 274>
Fore
61.207 367.029 m 20
 121.939 368.442 119.485 367.097 156.744 367.029 c 28
 207.44 366.938 239.852 368.913 286.732 366.559 c 12
 295.166 366.135 282.071 350.136 278.209 340.186 c 28
 276.133 334.837 276.709 327.043 272.171 327 c 20
 222.094 326.529 192 326 140.763 327 c 12
 101.847 327.76 102.761 328.884 40.9629 327.471 c 12
 34.6885 327.328 43.5996 340.256 47 347.25 c 28
 51.3545 356.203 53.1748 366.843 61.207 367.029 c 20
EndSplineSet
EndChar
StartChar: period
Encoding: 46 46 5
Width: 213
Flags: W
Fore
177 237 m 4
 154.45 214.45 150.072 204.48 129 188 c 28
 110.823 173.784 101.04 156.711 78 158 c 28
 60.4775 158.98 52.8008 171.167 42 185 c 28
 27.1562 204.012 14.3242 218.161 18 242 c 28
 22.6797 272.353 44.7061 283.213 69 302 c 28
 89.5596 317.899 103.1 333.158 129 331 c 20
 165 328 162 331 183 305 c 4
 204.492 278.391 204 264 177 237 c 4
EndSplineSet
EndChar
StartChar: slash
Encoding: 47 47 6
Width: 363
Flags: W
Fore
32.7275 65.5293 m 12
 32.0859 63.5615 33.9804 62.0057 35.9238 61.291 c 28
 43.8281 58.3838 53.6738 58.2627 57 66 c 20
 77.2441 113.093 161.431 245.607 221.092 364.181 c 28
 275.807 472.925 321.166 570.297 351 648 c 12
 353.874 655.484 338.999 652.348 330.99 652.709 c 28
 327.076 652.886 322.22 655.034 321.045 651.297 c 20
 299.736 583.483 249.632 481.313 197.886 375.482 c 28
 137.72 252.433 49.7754 117.803 32.7275 65.5293 c 12
EndSplineSet
EndChar
StartChar: zero
Encoding: 48 48 7
Width: 405
Flags: W
Back
Fore
197 132 m 20
 221 102 254.016 219.116 272 282 c 28
 292.681 354.31 282.98 399.12 290 474 c 21
 291.508 526.855 298.616 542.745 287 615 c 13
 276.47 631.38 279.142 653.424 260 657 c 28
 237.226 661.255 227.492 639.227 212 622 c 28
 179.169 585.491 165.108 559.382 149 513 c 28
 127.667 451.572 124.327 413.023 125 348 c 28
 125.368 312.418 129.654 292.047 140 258 c 28
 155.681 206.396 163.308 174.115 197 132 c 20
152 15 m 28
 110.542 25.8135 108.391 66.7939 89 105 c 28
 64.3857 153.501 48.9238 182.834 44 237 c 20
 38 303 22.1113 356.45 32 432 c 28
 41.6035 505.371 56.9658 546.821 92 612 c 28
 123.434 670.48 146.707 702.656 197 746 c 28
 224.52 769.717 241.832 795.41 278 792 c 28
 308.575 789.117 322.165 767.314 338 741 c 28
 380.007 671.191 365.45 616.56 383 537 c 21
 377 483 380.478 429.965 365 363 c 13
 338.09 285.78 328.632 239.981 296 165 c 28
 276.995 121.33 263 96 239 57 c 12
 219.254 24.9121 188.457 5.49023 152 15 c 28
EndSplineSet
EndChar
StartChar: one
Encoding: 49 49 8
Width: 232
Flags: W
VStem: 96 84<353 625>
Back
Fore
162 0 m 28
 132.527 1.83496 120.598 21.8613 99 42 c 28
 75.209 64.1846 48.6121 75.4766 48 108 c 28
 47.8105 118.062 56.1202 121.654 63 129 c 28
 74.3672 141.137 94.0939 139.48 96 156 c 20
 105 234 96 276.78 96 354 c 28
 96 426.54 97.0987 467.469 96 540 c 28
 95.415 578.623 99 609 93 639 c 12
 90.0977 653.512 71.6085 648.629 57 651 c 28
 43.1416 653.249 26.6799 638.16 21 651 c 28
 6.92676 682.812 56.6737 692.134 81 717 c 28
 103.57 740.071 111.369 761.205 141 774 c 28
 160.364 782.361 177.132 788.209 195 777 c 28
 207.885 768.917 209.445 756.2 210 741 c 28
 211.351 704.026 181.121 687.981 180 651 c 20
 177 552 181.306 493.611 180 393 c 28
 178.83 302.887 170.892 252.066 174 162 c 28
 174.852 137.334 172.435 122.493 180 99 c 28
 184.981 83.5283 197.283 78.8233 201 63 c 28
 205.022 45.877 207.74 32.6465 198 18 c 28
 189.308 4.92871 177.667 -0.975392 162 0 c 28
EndSplineSet
EndChar
StartChar: two
Encoding: 50 50 9
Width: 571
Flags: W
Back
Fore
39 27 m 20
 72 105 106.291 122.073 153 180 c 28
 211.126 252.085 259.878 280.502 309 359 c 28
 332.824 397.071 348.464 420.432 354 465 c 28
 360.567 517.877 357.526 552.697 333 600 c 28
 310.529 643.34 290.85 677.322 243 687 c 28
 204.879 694.71 188.584 655.892 150 651 c 28
 130.132 648.481 107.482 638.857 99 657 c 28
 83.6074 689.925 121.215 712.81 150 735 c 28
 193.954 768.884 230.881 792.293 285 780 c 28
 332.606 769.187 348.081 733.727 375 693 c 28
 407.47 643.876 426.713 610.841 429 552 c 28
 432.839 453.232 400.917 397.551 357 309 c 28
 327.991 250.509 309 231 258 174 c 12
 223.727 135.694 338.684 164.535 387 147 c 28
 424.394 133.429 445.272 122.994 477 99 c 28
 510.66 73.5449 567.272 60.3407 552 21 c 28
 538.848 -12.8818 494.778 8.60402 459 15 c 28
 413.627 23.1113 395.099 49.5899 351 63 c 28
 324.867 70.9463 309.312 75.3442 282 75 c 28
 246.208 74.5488 225.214 70.3456 192 57 c 28
 163.69 45.625 155.809 21.5042 126 15 c 28
 92.5361 7.69824 25.6543 -4.54395 39 27 c 20
EndSplineSet
EndChar
StartChar: three
Encoding: 51 51 10
Width: 364
Flags: W
Back
Fore
117 177 m 28
 91.9092 182.862 82.6095 154.699 66 135 c 28
 47.7588 113.365 35.8919 99.6786 30 72 c 28
 27.5518 60.499 26.9421 52.078 33 42 c 28
 46.7646 19.1016 63.9658 10 90 4 c 28
 121.065 -3.15918 141.678 2.48889 171 15 c 28
 224.612 37.875 249.721 64.0418 288 108 c 28
 307.635 130.547 320.65 144.784 327 174 c 28
 343.493 249.882 349.818 307.89 306 372 c 28
 284.444 403.537 197.256 385.592 219 417 c 20
 246 456 267.466 467.827 288 507 c 28
 321.67 571.231 357 606 345 684 c 12
 337.884 730.256 316.033 761.606 273 780 c 28
 218.822 803.157 178.502 781.776 123 762 c 28
 69.4932 742.935 57 723 0 684 c 12
 -9.65625 677.394 14.0476 672.151 24 666 c 28
 37.3525 657.747 44.3281 647.104 60 648 c 28
 92.0742 649.834 99.7117 679.796 129 693 c 28
 161.087 707.466 182.518 727.853 216 717 c 28
 237.38 710.07 241.49 691.866 252 672 c 28
 259.441 657.934 265.38 648.854 264 633 c 28
 258.646 571.488 227.859 542.265 192 492 c 28
 165.569 454.952 145.456 437.731 111 408 c 28
 88.1396 388.274 63.0188 389.194 48 363 c 28
 41.5723 351.789 40.9595 342.275 45 330 c 28
 49.4053 316.617 55.7609 307.819 69 303 c 28
 106.783 289.248 130.921 321.211 171 318 c 28
 194.237 316.139 213.226 318.032 228 300 c 28
 257.834 263.587 249.585 226.284 241 180 c 28
 235.242 148.959 232.096 122.399 204 108 c 28
 182.942 97.208 162.859 102.71 144 117 c 28
 123.548 132.497 141.987 171.162 117 177 c 28
EndSplineSet
EndChar
StartChar: four
Encoding: 52 52 11
Width: 532
Flags: W
VStem: 244 97<404 540> 254 91<84 230>
Back
Fore
243 378 m 20
 249 417 243.573 418.261 244 444 c 28
 244.718 487.291 243 516 246 555 c 12
 248.621 589.07 210.096 514.987 192 486 c 28
 167.892 447.383 159 420 141 381 c 12
 131.03 359.399 177.21 369.918 201 370 c 28
 217.675 370.058 240.465 361.52 243 378 c 20
354 -105 m 28
 319.632 -111.097 300.148 -94.9315 267 -84 c 28
 235.631 -73.6553 210.245 -76.291 189 -51 c 28
 178.96 -39.0479 175.341 -26.8984 180 -12 c 28
 185.191 4.60059 200.101 6.33203 213 18 c 28
 224.674 28.5596 235.929 30.9367 243 45 c 28
 263.587 85.9473 252.856 116.183 254 162 c 28
 255.11 206.489 258 234 249 276 c 12
 244.614 296.465 221.389 295.272 201 300 c 28
 153.129 311.101 126 299 75 299 c 12
 47.6162 299 2.72461 304.235 12 330 c 20
 39 405 69.0085 447.162 111 519 c 28
 163.079 608.095 181.632 668.424 255 741 c 28
 284.537 770.219 305.093 809.559 345 798 c 28
 368.627 791.156 375.94 765.28 372 741 c 28
 369.924 728.203 351.021 729.806 349 717 c 20
 340 660 342.358 609.087 341 540 c 28
 339.689 473.321 339 420 342 369 c 12
 343.996 335.072 395.073 366.003 429 364 c 28
 454.742 362.48 473.484 374.215 495 360 c 28
 512.463 348.463 524.372 332.229 519 312 c 28
 514.669 295.691 499.15 292.89 483 288 c 28
 451.646 278.507 431.601 291.228 399 288 c 28
 379.211 286.04 352.456 297.584 349 278 c 20
 340 227 345.978 192.613 345 138 c 28
 344.036 84.1875 344 48 344 0 c 12
 344 -20.0762 375.527 -10.1155 389 -25 c 28
 401.544 -38.8574 413.302 -51.0761 408 -69 c 28
 400.821 -93.2715 378.922 -100.579 354 -105 c 28
EndSplineSet
EndChar
StartChar: five
Encoding: 53 53 12
Width: 502
Flags: W
Back
Fore
69 210 m 12
 57.2598 223.045 46.2581 194.499 33 183 c 28
 19.25 171.075 -9.77148 165.355 0 150 c 20
 21 117 37.0733 102.784 66 78 c 28
 88.4238 58.7871 101.75 47.3777 129 36 c 28
 166.479 20.3516 190.768 20.5538 231 15 c 28
 247.268 12.7539 257.189 7.56178 273 12 c 28
 300.193 19.6338 316.927 30.1131 332 54 c 28
 368.133 111.262 363.4 157.306 362 225 c 28
 360.564 294.444 366.943 344.406 324 399 c 28
 294.236 436.838 259.316 439.871 213 453 c 28
 179.062 462.62 129.918 427.41 123 462 c 20
 114 507 114.526 538.737 114 588 c 28
 113.5 634.855 117 672 120 708 c 12
 121.722 728.661 150.885 698.02 171 693 c 28
 210.406 683.166 232.389 671.518 273 672 c 28
 319.826 672.557 347.004 680.445 390 699 c 28
 424.859 714.043 447.955 722.828 471 753 c 28
 482.229 767.701 503.422 804.222 486 798 c 20
 444 783 412.413 769.526 363 762 c 28
 319.04 755.305 292.806 752.361 249 760 c 28
 204.617 767.739 186.037 799.804 141 801 c 28
 110.3 801.815 94.1113 789.366 66 777 c 28
 48.7314 769.403 27.1016 771.609 24 753 c 20
 15 699 23.6759 659.589 27 600 c 28
 31.9736 510.842 33 432 48 372 c 12
 56.5322 337.872 102.847 379.325 138 378 c 28
 162.802 377.065 179.243 380.943 201 369 c 28
 229.367 353.428 241.953 335.614 255 306 c 28
 274.483 261.776 272.789 231.245 270 183 c 28
 267.985 148.153 277.264 116.48 249 96 c 28
 225.239 78.7822 200.553 89.5107 174 102 c 28
 120.842 127.004 123 150 69 210 c 12
EndSplineSet
EndChar
StartChar: six
Encoding: 54 54 13
Width: 388
Flags: W
Back
Fore
201 384 m 28
 228.163 376.508 236.701 355.352 249 330 c 28
 263.525 300.059 262.718 279.254 264 246 c 28
 265.812 199.002 264 165 252 126 c 12
 245.084 103.523 214.234 112.341 192 120 c 28
 156.792 132.129 142.048 154.002 123 186 c 28
 102.529 220.389 98.3471 245.049 96 285 c 28
 94.6123 308.621 91.3893 325.645 105 345 c 28
 114.937 359.131 128.088 359.274 144 366 c 28
 165.473 375.076 178.527 390.199 201 384 c 28
363 675 m 28
 379.057 689.409 381.388 708.394 375 729 c 28
 367.892 751.93 353.77 767.636 330 771 c 28
 245.552 782.95 198.01 729.481 135 672 c 28
 71.6885 614.244 42.6381 568.08 18 486 c 28
 -12.9541 382.88 0 300 12 210 c 12
 22.8691 128.479 79.845 95.4759 147 48 c 28
 165.338 35.0352 180.991 38.198 201 28 c 28
 218.54 19.0605 223.42 2.03872 243 0 c 28
 255.533 -1.30469 264.258 2.92383 273 12 c 28
 333.331 74.6357 336.15 135.845 348 222 c 28
 354.872 271.962 348 303 339 351 c 12
 332.229 387.109 308.17 400.215 282 426 c 28
 262.33 445.38 252.303 463.87 225 468 c 28
 196.829 472.262 183.042 452.971 156 444 c 28
 133.874 436.66 92.8662 403.51 99 426 c 20
 108 459 100.601 490.09 114 528 c 28
 133.168 582.234 144.811 618.176 189 655 c 20
 207 670 218.476 686.112 243 696 c 28
 261.574 703.489 275.726 710.193 294 702 c 28
 307.032 696.157 302.332 678.596 315 672 c 28
 322.265 668.218 327.822 671.547 336 672 c 28
 346.578 672.586 355.115 667.924 363 675 c 28
EndSplineSet
EndChar
StartChar: seven
Encoding: 55 55 14
Width: 550
Flags: W
Back
Fore
147 0 m 28
 117.793 -5.18164 105.249 20.2774 78 32 c 28
 47.9297 44.9365 36 45 0 63 c 12
 -11.6997 68.8499 6.61829 82.9569 15 93 c 28
 26.2451 106.474 37.7419 108.501 51 120 c 28
 64.75 131.925 72.877 138.594 84 153 c 28
 151.938 240.993 173.963 301.849 228 399 c 28
 274.301 482.242 294.783 532.273 342 615 c 28
 350.853 630.511 365.214 636.158 366 654 c 28
 366.575 667.068 364.067 684.594 351 684 c 20
 285 681 251.829 674.25 189 681 c 28
 143.571 685.881 116.205 688.258 75 708 c 28
 50.9395 719.528 26.9019 723.981 21 750 c 28
 18.6855 760.205 26.0741 766.154 33 774 c 28
 41.375 783.487 47.6007 789.469 60 792 c 28
 97.3232 799.617 118.373 779.934 156 774 c 28
 201.441 766.833 227.031 760.783 273 759 c 28
 319.823 757.184 346.999 756.077 393 765 c 28
 424.602 771.13 440.218 782.582 471 792 c 28
 488.368 797.314 498.907 810.142 516 804 c 28
 525.472 800.597 525.055 791.121 531 783 c 28
 534.455 778.279 540.024 776.85 540 771 c 28
 539.766 715.072 483.935 703.594 453 657 c 28
 386.616 557.016 358.527 494.777 300 390 c 28
 248.681 298.126 225 246 171 153 c 12
 160.36 134.676 164 126 165 99 c 12
 165.644 81.6182 194.806 86.0976 198 69 c 28
 200.882 53.5693 189.179 45.7345 180 33 c 28
 169.357 18.2344 164.921 3.17925 147 0 c 28
EndSplineSet
EndChar
StartChar: eight
Encoding: 56 56 15
Width: 346
Flags: W
Back
Fore
180 426 m 12
 189.718 391.989 217.184 468.438 231 501 c 28
 242.203 527.404 246.873 544.33 246 573 c 28
 244.782 613.002 242.588 639.671 219 672 c 28
 202.55 694.546 186.87 712.478 159 711 c 28
 134.914 709.723 125.472 691.296 111 672 c 28
 96.5283 652.704 86.5914 639.117 87 615 c 28
 87.5674 581.501 108.73 567.313 123 537 c 28
 136.818 507.645 143.794 490.661 159 462 c 28
 166.618 447.642 174 447 180 426 c 12
165 105 m 28
 194.769 108.439 202.913 136.782 213 165 c 28
 224.028 195.851 222.029 217.236 214 249 c 28
 206.128 280.143 205.811 316.545 174 321 c 28
 151.059 324.213 144.502 298.502 132 279 c 28
 113.82 250.64 102.304 231.686 102 198 c 28
 101.776 173.209 108.58 158.167 123 138 c 28
 135.116 121.055 144.307 102.609 165 105 c 28
147 18 m 28
 113.371 28.0547 100.632 48.0203 75 72 c 28
 53.5928 92.0273 36.5713 101.657 26 129 c 28
 15.8701 155.201 17.4776 173.677 24 201 c 28
 31.415 232.062 46.4087 245.714 63 273 c 28
 83.5684 306.828 118.763 317.429 120 357 c 28
 121.868 416.767 70.0383 436.185 42 489 c 28
 30.4658 510.727 20.8093 522.098 15 546 c 28
 6.98242 578.99 -0.126965 601.289 12 633 c 28
 26.4834 670.872 54.2424 680.459 84 708 c 28
 115.114 736.797 135 753 168 777 c 12
 183.258 788.097 197.859 788.179 216 783 c 28
 246.397 774.322 258.322 755.91 279 732 c 28
 307.482 699.065 331.272 679.285 336 636 c 28
 343.579 566.608 302 520 280 466 c 12
 266.812 433.629 234 420 228 393 c 12
 221.529 363.881 249.418 351.488 261 324 c 28
 275.517 289.548 294.385 271.383 294 234 c 28
 293.469 182.51 269 156 246 111 c 12
 238.084 95.5127 222.272 94.2226 216 78 c 28
 210.094 62.7217 223.495 50.5644 216 36 c 28
 211.395 27.0508 204.484 24.3692 195 21 c 28
 177.325 14.7217 164.971 12.6267 147 18 c 28
EndSplineSet
EndChar
StartChar: nine
Encoding: 57 57 16
Width: 415
Flags: W
Back
Fore
255 364 m 20
 279 415 286.27 444.295 297 498 c 28
 304.596 536.018 310.967 558.551 306 597 c 28
 302.333 625.386 295.763 641.48 281 666 c 28
 272.312 680.429 268.829 697.335 252 698 c 28
 215.059 699.46 203.026 664.076 183 633 c 28
 157.547 593.501 145.124 565.977 144 519 c 28
 142.893 472.728 147.741 440.864 177 405 c 28
 198.725 378.371 240.367 332.904 255 364 c 20
75 -78 m 28
 61.0146 -76.2979 41.6995 -66.601 48 -54 c 20
 75 0 95.0957 8.04495 120 51 c 28
 157.796 116.189 185.046 152.068 204 225 c 28
 209.012 244.284 216.603 258.543 207 276 c 28
 187.227 311.944 143.232 297.235 115 327 c 28
 80.0703 363.826 63.9419 393.592 58 444 c 28
 50.4238 508.276 66.7558 547.292 94 606 c 28
 118.134 658.005 142.615 682.307 183 723 c 28
 205.914 746.089 221.452 756.699 249 774 c 28
 260.077 780.957 265.936 789.658 279 789 c 28
 315.416 787.166 333.381 765.896 358 739 c 28
 386.736 707.606 397.967 683.36 408 642 c 28
 414.896 613.574 412.137 595.956 408 567 c 28
 399.727 509.088 386.013 477.971 366 423 c 28
 333.203 332.916 309.406 283.979 267 198 c 28
 218.592 99.8516 198 33 132 -48 c 12
 116.132 -67.4743 99.9375 -81.0343 75 -78 c 28
EndSplineSet
EndChar
StartChar: less
Encoding: 60 60 8
Width: 481
Flags: W
Fore
441 537 m 4
 369 474 333 473 261 434 c 12
 211.543 407.211 186 393 141 354 c 12
 91.8359 311.391 221.435 291.671 273 252 c 28
 327.9 209.763 428.758 211.677 414 144 c 28
 409.143 121.723 379.683 133.315 357 131 c 28
 338.373 129.099 326.93 126.604 309 132 c 28
 248.908 150.086 221.518 178.198 173 218 c 28
 121.388 260.34 4.57279 298.256 55 342 c 20
 138 414 164.912 415.034 240 453 c 28
 315.819 491.336 457.437 551.382 441 537 c 4
EndSplineSet
EndChar
StartChar: equal
Encoding: 61 61 9
Width: 363
Flags: W
HStem: 182.471 39.558<68 302> 299.471 39.558<68 302>
Fore
89.207 222.029 m 12
 81.1748 221.843 79.3545 211.203 75 202.25 c 28
 71.5996 195.256 62.6885 182.328 68.9629 182.471 c 20
 130.761 183.884 129.84 182.092 168.763 182 c 28
 220.013 181.879 250.094 181.529 300.171 182 c 12
 304.709 182.043 304.133 189.837 306.209 195.186 c 28
 310.071 205.136 323.166 221.135 314.732 221.559 c 20
 267.852 223.913 235.44 221.938 184.744 222.029 c 28
 147.485 222.097 149.939 223.442 89.207 222.029 c 12
89.207 339.029 m 12
 81.1748 338.843 79.3545 328.203 75 319.25 c 28
 71.5996 312.256 62.6885 299.328 68.9629 299.471 c 20
 130.761 300.884 129.847 299.76 168.763 299 c 20
 220 298 250.094 298.529 300.171 299 c 12
 304.709 299.043 304.133 306.837 306.209 312.186 c 28
 310.071 322.136 323.166 338.135 314.732 338.559 c 20
 267.852 340.913 235.44 338.938 184.744 339.029 c 28
 147.485 339.097 149.939 340.442 89.207 339.029 c 12
EndSplineSet
EndChar
StartChar: question
Encoding: 63 63 11
Width: 334
Flags: HW
Fore
118 207 m 28
 129.092 193.906 144.869 205.996 162 207 c 28
 181.993 208.172 200.228 197.574 213 213 c 28
 237.685 242.813 207.366 273.317 206 312 c 28
 204.886 343.57 197.833 362.484 206 393 c 28
 218.919 441.271 248.402 458.938 270 504 c 28
 289.533 544.754 315.826 566.97 312 612 c 28
 305.646 686.775 285.775 758.685 213 777 c 28
 150.927 792.622 111.626 743.268 72 693 c 28
 37.8643 649.697 30 615 30 558 c 12
 30 502.998 73.5643 635.257 117 669 c 28
 145.27 690.961 166.813 716.614 201 706 c 28
 234.283 695.667 242.575 664.425 248 630 c 28
 255.878 580.012 232.552 552.156 217 504 c 28
 202.266 458.377 189.037 434.421 171 390 c 28
 156.26 353.697 143.697 334.692 133 297 c 28
 123.285 262.768 94.9992 234.152 118 207 c 28
EndSplineSet
Ref: 46 46 N 1 0 0 1 40.6846 -138
EndChar
StartChar: at
Encoding: 64 64 12
Width: 432
Flags: W
Fore
151.2 231.055 m 4
 144.842 250.526 148.625 247.148 148 257.515 c 28
 147.12 272.111 149.6 283.24 148 295 c 12
 146.221 308.075 162.223 311.56 174.4 318.52 c 28
 186.215 325.273 196.2 336.32 208 329.545 c 28
 217.583 324.043 210.902 313.464 211.2 303.085 c 28
 211.769 283.28 210.4 281.035 208 252.37 c 12
 207.023 240.708 193.423 239.066 181.6 234.73 c 28
 170.493 230.656 156 216.355 151.2 231.055 c 4
156 422.155 m 4
 185.6 419.215 191.355 417.543 204 401.575 c 28
 209.601 394.502 211.341 387.171 208 378.79 c 28
 196.779 350.64 169.977 350.488 145.6 332.485 c 28
 122.239 315.232 88.3359 317.297 85.5996 288.385 c 20
 84 271.48 80.5898 233.468 82.4004 217.825 c 4
 84.4141 200.422 83.4082 189.438 87.2002 176.665 c 12
 95.7734 147.786 133.969 184.35 162.4 194.305 c 28
 181.958 201.152 191.2 207.535 210.4 217.09 c 12
 221.251 222.489 217.586 199.547 222.4 188.425 c 28
 223.767 185.269 223.13 182.269 226 180.375 c 28
 241.235 170.319 255.408 174.06 272.8 179.605 c 28
 283.867 183.135 292.774 186.349 296.8 197.245 c 28
 301.084 208.842 294.735 216.87 289.6 228.115 c 28
 282.979 242.612 271.376 246.337 265.6 261.19 c 28
 259.639 276.518 261.65 286.661 260.8 303.085 c 28
 259.289 332.286 262.72 348.836 261.6 378.055 c 28
 260.64 403.07 267.211 419.616 256 442 c 28
 249.065 455.845 239.437 460.105 226.4 468.46 c 28
 215.514 475.438 208.802 479.87 196 481.69 c 28
 175.757 484.569 163.249 481.895 144 475 c 28
 110.546 463.016 92.4961 451.146 66.7998 426.6 c 28
 58.4795 418.651 54.1338 413.084 50 402.345 c 20
 27.9346 345.018 -8 251 0 189 c 5
 -11.0625 165.401 62 95 114 89 c 5
 144.348 74.1064 326 137 368 187 c 4
 378.087 199.008 388.463 241.949 390 319 c 4
 390.662 352.204 340.409 532.641 284 527 c 4
 264 525 66.0664 514.033 56 509 c 4
 44 503 74.2305 495.692 74 495 c 5
 83.2939 485.846 236 497 260 485 c 5
 287.081 449.459 328.789 373.062 336 331 c 4
 346.705 268.557 344 209 330 189 c 4
 292.598 135.568 181.679 122.402 158 129 c 4
 107.628 143.034 35.5195 182.671 40 235 c 4
 45.6797 301.341 74.0293 354.787 103.2 392.755 c 12
 117.56 411.444 135.629 424.179 156 422.155 c 4
EndSplineSet
EndChar
StartChar: A
Encoding: 65 65 7
Width: 619
Flags: W
VStem: 411 102<168 276>
Fore
423 366 m 16
 426 390 427 430 430 454 c 0
 430.528 458.229 435.632 609 426 609 c 0
 401.114 609 395.845 574.193 387 552 c 0
 375.877 524.09 364.369 511.068 351 486 c 8
 327.576 442.079 312.57 418.29 288 375 c 17
 333 360 291 366 357 366 c 1
 390 366 419.807 340.458 423 366 c 16
140 246 m 16
 184 306 210.401 341.195 251 405 c 24
 272.762 439.201 284 456 303 495 c 0
 336.498 563.76 363 585 381 654 c 8
 391.487 694.202 323.636 622.712 291 597 c 24
 248.754 563.716 227.66 541.26 192 501 c 24
 163.762 469.119 141.291 453.749 126 414 c 24
 111.243 375.641 111.579 349.741 117 309 c 24
 120.45 283.072 124.532 224.907 140 246 c 16
15 21 m 24
 -9.19922 48.042 30.7401 76.0782 48 108 c 24
 73.2295 154.662 108 174 128 218 c 8
 137.559 239.028 87.039 214.403 70 230 c 24
 39.0566 258.324 34.7787 291.263 39 333 c 24
 45.9531 401.749 79.4843 435.324 123 489 c 24
 185.737 566.386 235.109 598.739 318 654 c 16
 372 690 406.173 737.131 474 732 c 24
 498.276 730.163 523.527 720.302 525 696 c 16
 531 597 518.633 542.308 516 444 c 24
 514.245 378.493 513.065 341.53 513 276 c 24
 512.927 202.28 488.731 155.49 516 87 c 24
 523.045 69.3047 530.49 55.4891 549 51 c 24
 572.023 45.416 590.385 89.8164 606 72 c 24
 622.558 53.1084 596.062 30.1201 576 15 c 24
 553.095 -2.26367 532.573 -2.50815 504 0 c 24
 472.617 2.75488 448.315 5.11225 429 30 c 24
 395.723 72.8779 412.284 113.739 411 168 c 24
 409.991 210.643 416 235 420 277 c 8
 422.403 302.235 384.467 295.368 360 302 c 24
 323.534 311.884 302 320 264 315 c 8
 213.205 308.316 208 258 180 214 c 8
 159.781 182.228 145.169 166.014 129 132 c 24
 123.334 120.081 104.884 98.543 118 100 c 16
 154 104 163.152 111.236 192 108 c 24
 231.344 103.587 261 105 288 75 c 8
 304.585 56.5723 345.036 78.6142 348 54 c 24
 351.337 26.291 315.015 22.0063 288 15 c 24
 255.078 6.46191 234.364 14.3997 201 21 c 24
 168.334 27.4619 153.278 46.8338 120 48 c 24
 77.7441 49.4805 43.1958 -10.5084 15 21 c 24
EndSplineSet
EndChar
StartChar: B
Encoding: 66 66 8
Width: 639
Flags: W
Fore
375.783 366.926 m 20
 365.87 322.029 363.698 283.478 358.436 229.874 c 28
 354.372 188.492 346.044 166.073 351 123.54 c 12
 353.464 102.395 384.332 113.668 405.521 106.999 c 28
 442.382 95.3975 464.131 61.4473 499.694 76.2812 c 28
 550.042 97.2812 552.294 146.924 556.692 199.154 c 28
 560.053 239.038 548.577 262.796 529.433 298.399 c 28
 512.835 329.269 503.98 355.134 469.955 366.926 c 20
 438 378 383.349 401.193 375.783 366.926 c 20
420.392 662.297 m 20
 410.479 631.579 409.693 578.494 400.565 525.245 c 28
 394.693 490.997 385.695 468.533 383.217 437.815 c 12
 381.018 410.543 428.96 452.913 445.173 475.622 c 20
 474 516 477.376 531.08 484.824 570.141 c 20
 489.781 596.134 492 618 467.478 645.756 c 12
 454.859 660.039 426.146 680.132 420.392 662.297 c 20
26.3535 657.571 m 28
 19.8555 683.634 48.6895 696.879 73.4395 709.557 c 28
 106.917 726.704 133.519 731.222 170.09 721.371 c 28
 213.087 709.791 232.046 690.653 259.306 652.845 c 12
 293.536 605.371 280.983 563.924 279.132 506.341 c 28
 276.146 413.485 263.552 360.315 232.046 272.407 c 20
 221.124 241.933 207.618 183.646 180.003 149.533 c 4
 141.178 101.57 92.1611 82.9248 137.873 95.1846 c 4
 217.176 116.451 252.862 87.623 306.393 125.903 c 20
 336.132 147.17 316.389 171.876 321.262 201.519 c 28
 335.595 288.697 339.847 338.399 351 426 c 28
 363.08 520.865 373.305 567.778 380.739 669.386 c 12
 381.69 682.387 353.938 663.473 346.044 674.112 c 28
 340.352 681.784 344.952 690.321 351 697.742 c 28
 382.568 736.471 418.521 753.013 469.955 752.09 c 28
 511.452 751.346 540.457 737.337 564.128 704.83 c 28
 585.802 675.066 582.271 648.492 576.519 612.674 c 28
 566.373 549.497 492.849 526.723 504.65 463.808 c 20
 509.383 438.581 537 432 564.128 426 c 4
 600.418 417.974 616.604 379.868 633.519 340.933 c 12
 647.942 307.729 640.465 284.103 633.519 248.777 c 20
 618.648 173.162 588.91 130.629 564.128 73.918 c 12
 557.426 58.582 601.558 66.9004 601.301 50.2881 c 28
 600.899 24.209 568.229 21.6533 541.824 14.8438 c 28
 480.218 -1.04395 440.823 7.55664 378.262 19.5693 c 28
 338.67 27.1719 321.239 47.5986 281.61 55.0137 c 28
 235.128 63.7119 206.443 67.0645 160.178 57.377 c 28
 121.335 49.2432 107.421 22.5498 68.4834 14.8438 c 28
 46.6973 10.5312 20.2539 -2.29199 11.4834 17.207 c 28
 -8.22754 61.0273 70.3994 68.2588 95.7432 109.362 c 28
 140.523 181.986 161.817 228.958 172.568 312.578 c 28
 187.582 429.353 214.092 518.347 140.352 612.674 c 28
 111.604 649.448 37.4766 612.949 26.3535 657.571 c 28
EndSplineSet
EndChar
StartChar: C
Encoding: 67 67 9
Width: 519
Flags: W
Fore
168 603 m 12
 168 620.274 154.795 579.416 147 564 c 28
 135.9 542.049 128.179 530.198 120 507 c 28
 109.998 478.631 105.001 461.931 102 432 c 28
 98.7299 399.383 102.994 380.72 105 348 c 28
 106.653 321.039 101.583 304.316 111 279 c 28
 120.057 254.651 147.648 199.129 150 225 c 20
 153 258 149.227 263.442 150 288 c 28
 151.366 331.354 154.779 355.681 157 399 c 20
 159 438 160.854 461.209 163 501 c 28
 165.144 540.77 168 582 168 603 c 12
267 705 m 12
 264.764 727.363 238.627 684.121 222 669 c 28
 209.145 657.31 198.12 652.85 191 637 c 28
 184.59 622.73 188.854 612.62 188 597 c 28
 186.145 563.101 186.416 543.921 185 510 c 28
 183.339 470.207 182.117 447.771 180 408 c 28
 178.193 374.063 176.958 354.93 175 321 c 28
 171.893 267.18 167 231 167 183 c 12
 167 168.649 180.023 163.905 192 156 c 28
 206.516 146.418 219.188 131.884 234 141 c 28
 250.067 150.888 238.181 170.223 240 189 c 28
 243.28 222.852 243.586 242.075 246 276 c 28
 250.163 334.509 257 367.343 257 426 c 20
 257 462 258.785 491.91 261 534 c 20
 264 591 273 645 267 705 c 12
501 174 m 28
 515.941 164.147 502.54 143.465 492 129 c 28
 450.975 72.7002 401.535 65.6197 336 42 c 28
 305.776 31.1064 287.034 24.5522 255 27 c 28
 201.872 31.0596 168.213 39.4852 126 72 c 28
 81.2676 106.456 64.3249 138.946 45 192 c 28
 22.0488 255.009 23.3409 296.041 27 363 c 28
 30.0049 417.995 35.6248 450.24 57 501 c 28
 82.5654 561.711 108.713 590.67 150 642 c 28
 187.856 689.064 209.583 716.891 258 753 c 28
 280.234 769.582 293.334 784.015 321 786 c 28
 342.038 787.509 354.155 779.246 372 768 c 28
 398.597 751.238 411 735 429 711 c 12
 442.189 693.415 453.739 681.97 453 660 c 28
 452.595 647.961 446.022 641.986 438 633 c 28
 431.297 625.492 427.051 617.465 417 618 c 28
 374.794 620.247 368.427 662.891 336 690 c 28
 320.018 703.361 298.616 743.313 294 723 c 20
 279 657 285.044 576.588 279 483 c 28
 276.732 447.896 275.446 428.093 273 393 c 28
 268.514 328.636 264.875 292.403 261 228 c 28
 259.522 203.446 260.611 189.459 258 165 c 28
 256.489 150.847 244.824 141.292 252 129 c 28
 265.81 105.347 290.921 109.109 318 105 c 28
 342.319 101.31 357.1 102.185 381 108 c 28
 411.014 115.303 426.133 125.758 453 141 c 28
 472.759 152.209 482.035 186.506 501 174 c 28
EndSplineSet
EndChar
StartChar: D
Encoding: 68 68 10
Width: 493
Flags: W
Fore
195 105 m 12
 176.888 113.301 163.817 110.063 144 108 c 28
 130.731 106.618 111 85.6602 111 99 c 20
 111 126 111.575 155.792 114 192 c 28
 116.829 234.243 121.999 257.769 125 300 c 28
 127.739 338.544 127.015 360.409 129 399 c 28
 129.964 417.731 125.646 429.352 132 447 c 28
 137.391 461.973 140.434 476.693 156 480 c 28
 190.353 487.299 205.918 456.09 234 435 c 28
 266.422 410.651 282.813 393.957 309 363 c 28
 329.12 339.215 337.785 323.601 354 297 c 28
 370.622 269.731 382.98 255.322 393 225 c 28
 400.787 201.434 400.756 186.788 402 162 c 28
 403.408 133.931 407.064 116.923 399 90 c 28
 395.085 76.9297 394.632 60.5927 381 60 c 20
 312 57 267 72 195 105 c 12
48 570 m 28
 47.8834 554.79 55.373 547.16 63 534 c 28
 72.622 517.397 86.8213 513.167 93 495 c 28
 100.158 473.954 92.877 460.229 93 438 c 28
 93.195 402.898 94.3711 383.101 94 348 c 28
 93.6165 311.713 92.4307 291.261 91 255 c 28
 88.6908 196.481 93 168 84 105 c 12
 79.2676 71.873 31.5391 83.0898 15 54 c 28
 9.18842 43.7784 1.4834 18.7412 12 24 c 20
 36 36 48.957 44.9727 75 51 c 28
 97.8261 56.2826 111.751 56.9043 135 54 c 28
 166.582 50.055 182.078 37.54 213 30 c 28
 251.126 20.7032 272.759 11.6562 312 12 c 28
 341.828 12.2616 358.513 18.1523 387 27 c 28
 404.019 32.2858 414.01 35.3633 429 45 c 28
 443.631 54.406 454.095 59.5068 462 75 c 28
 481.262 112.749 473.478 140.624 474 183 c 28
 474.56 228.404 481.805 257.229 464 299 c 20
 438 360 413.08 405.238 360 456 c 28
 310.695 503.151 276 525 210 546 c 12
 171.637 558.207 145.408 570.729 126 606 c 28
 115.832 624.479 121.655 638.95 123 660 c 28
 125.049 692.062 122.105 713.08 138 741 c 28
 144.153 751.809 162.995 749.603 162 762 c 28
 161.117 773.002 148.541 780.273 138 777 c 28
 53.9287 750.898 48.6748 658.027 48 570 c 28
EndSplineSet
EndChar
StartChar: E
Encoding: 69 69 11
Width: 697
Flags: W
VStem: 422 40<414 441>
Fore
295 696 m 20
 295 648 292 636 295 591 c 5
 295 552 293.574 459.333 295 408 c 4
 297 336 291 252 295 195 c 4
 297.767 155.576 287.828 150.124 246 132 c 12
 229.613 124.899 220.215 143.986 207 156 c 20
 174 186 134.119 260.515 126 295 c 4
 110.089 362.577 96.7588 497.446 132 570 c 12
 167.105 642.273 295 776.349 295 696 c 20
415 714 m 4
 431 669 418.763 674.986 422 624 c 4
 426 561 422.241 478.69 422 414 c 4
 421.802 360.771 423.465 229.301 421 180 c 4
 418 120 411 129 405 93 c 12
 400.377 65.2598 349.997 74.5947 333 97 c 20
 311 126 325 138 322 183 c 4
 317.896 244.548 319.834 338.856 322 414 c 4
 324.063 485.606 315.703 556.734 321 615 c 4
 324 648 311.347 682.526 339 717 c 12
 357.561 740.139 409.588 729.222 415 714 c 4
339 786 m 28
 212.778 762.037 165 693 78 585 c 12
 -19.6875 463.732 -6.66651 325.267 63 186 c 28
 112.658 86.7314 190.479 55.199 297 24 c 28
 391.378 -3.64258 455.152 3.60735 549 33 c 28
 586.165 44.6396 646.642 50.5224 633 87 c 28
 610.221 147.907 505.796 10.085 468 63 c 20
 438 105 447.299 161.607 449 220 c 4
 450.465 270.293 444 357 462 396 c 12
 474.897 423.945 510.971 394.227 540 384 c 28
 564.228 375.465 571.375 349.213 597 351 c 28
 631.089 353.377 672.371 371.428 666 405 c 20
 661.204 430.273 637.324 401.174 612 402 c 4
 592.863 402.624 574.189 434.901 555 438 c 12
 519.176 443.785 462 404.711 462 441 c 20
 462 486 450.205 559.706 458 618 c 4
 464.239 664.654 450 687 468 714 c 12
 498.778 760.167 517.894 611.524 573 618 c 28
 612.319 622.62 647.922 685.758 630 702 c 4
 534 789 455.051 808.032 339 786 c 28
EndSplineSet
EndChar
StartChar: F
Encoding: 70 70 12
Width: 344
Flags: W
VStem: 69 117<386 478>
Fore
66 21 m 16
 57 60 65.5321 94.2021 66 141 c 24
 66.585 199.509 102.736 243.193 69 291 c 24
 62.6006 300.069 48.4903 290.995 42 300 c 24
 35.8428 308.542 34.5537 319.554 42 327 c 24
 50.2734 335.273 71.3848 315.316 72 327 c 16
 75 384 69.585 405.68 69 456 c 24
 68.6328 487.588 63 483 69 537 c 8
 71.0225 555.201 40.2614 528.63 27 516 c 24
 11.4473 501.188 20.7773 462.557 0 468 c 24
 -22.6367 473.93 -9.92502 506.81 0 528 c 24
 7.75195 544.551 20.8221 547.82 36 558 c 24
 73.3809 583.073 98.0168 591.328 138 612 c 24
 178.747 633.067 205.202 639.011 243 665 c 24
 280.766 690.967 309 711 330 744 c 8
 345.18 767.854 368.097 778.565 396 774 c 24
 419.691 770.124 436.496 755.58 441 732 c 24
 445.615 707.839 431.716 692.064 414 675 c 24
 401.165 662.637 389.821 657 372 657 c 24
 354.179 657 347.813 675.523 330 675 c 24
 311.694 674.462 303.734 663.371 288 654 c 24
 251.189 632.075 221.178 627.034 198 591 c 24
 180.62 563.979 185.547 542.026 183 510 c 24
 179.196 462.167 186 408 186 387 c 8
 186 370.454 211.457 381.349 228 381 c 24
 251.512 380.504 264.715 390.291 288 387 c 24
 300.478 385.236 311.245 385.638 318 375 c 24
 328.681 358.181 325.968 340.634 315 324 c 24
 303.479 306.527 287.128 294.261 267 300 c 24
 249.825 304.896 259.291 331.681 243 339 c 24
 224.576 347.277 207.292 343.193 192 330 c 24
 183.596 322.749 184.778 313.956 183 303 c 24
 176.815 264.889 184.521 242.58 183 204 c 24
 181.243 159.437 182.872 133.707 174 90 c 24
 168.848 64.6182 170.633 45.9699 153 27 c 24
 142.645 15.8594 132.118 13.6707 117 12 c 24
 96.9248 9.78125 70.542 1.32031 66 21 c 16
EndSplineSet
EndChar
StartChar: G
Encoding: 71 71 13
Width: 711
Flags: W
VStem: 262 35<255 449>
Back
Fore
357 291 m 16
 390 270 389.344 273.241 411 264 c 24
 426.998 257.174 435.708 247.129 453 249 c 24
 474.947 251.375 485.755 263.034 501 279 c 24
 515.833 294.534 531.384 305.79 528 327 c 24
 524.999 345.809 508.397 350.31 492 360 c 24
 463.65 376.752 444.129 394.214 412 387 c 24
 397.198 383.677 392.418 372.62 384 360 c 24
 367.964 335.961 332.621 306.514 357 291 c 16
263 668 m 0
 264.256 716.357 198.522 645.35 167 617 c 24
 141.103 593.709 128.507 575.875 117 543 c 24
 100.714 496.474 103.41 466.164 107 417 c 24
 112.856 336.797 111.32 284.772 153 216 c 16
 173 183 249.499 113.994 254 159 c 16
 257 189 257.662 226.687 259 270 c 24
 261.156 339.786 261.256 379.185 262 449 c 24
 262.91 534.406 261 591 263 668 c 0
759 753 m 24
 767.894 750.9 784.654 742.992 777 738 c 16
 708 693 685.848 682.876 621 666 c 24
 576.71 654.475 549.488 651.981 504 657 c 24
 460.224 661.83 438.928 680.155 396 690 c 24
 361.377 697.94 307.121 739.505 306 704 c 16
 303 609 292.825 547.204 297 447 c 16
 300 375 296.109 329.875 297 255 c 24
 297.585 205.85 293 165 300 129 c 8
 305.452 100.962 332.448 94.5356 360 87 c 24
 389.429 78.9512 407.97 87.6118 438 93 c 24
 471.535 99.0166 496.19 94.7597 522 117 c 24
 564.839 153.913 571.136 193.505 582 249 c 24
 593.248 306.456 596.608 344.2 576 399 c 24
 562.236 435.601 545.959 455.959 513 477 c 24
 480.472 497.767 454.69 492.706 417 501 c 24
 392.572 506.375 358.754 488.444 354 513 c 24
 346.864 549.855 399.644 552.382 435 565 c 24
 463.84 575.293 482.542 577.162 513 574 c 24
 562.068 568.906 604.53 574.287 633 534 c 16
 686 459 676.745 386.491 669 291 c 24
 664.334 233.466 649.799 201.637 624 150 c 24
 607.749 117.474 591 96 570 74 c 8
 535.196 37.5391 498.971 37.9381 450 26 c 24
 411.167 16.5332 387.968 16.4754 348 16 c 24
 305.768 15.498 281.1 14.2708 240 24 c 24
 179.248 38.3809 138.052 42.8478 92 85 c 24
 42.7188 130.108 16.4219 170.279 13 237 c 16
 9 315 13 366 19 450 c 8
 22.1553 494.171 34.4894 518.864 57 557 c 24
 80.3125 596.494 100.25 615.073 135 645 c 24
 177.295 681.425 205.656 696.908 255 723 c 24
 303.215 748.495 332.933 796.15 384 777 c 16
 424 762 444.107 761.101 483 753 c 24
 531.835 742.828 559.149 732.8 609 731 c 24
 647.781 729.6 669.727 734.592 708 741 c 24
 728.152 744.374 739.113 757.695 759 753 c 24
EndSplineSet
EndChar
StartChar: H
Encoding: 72 72 13
Width: 679
Flags: W
VStem: 19.1865 97.8135<507 540> 384 39<393 471> 384 42<471 495>
Fore
384 264 m 8
 394.477 245.664 390 342 388 318 c 0
 386.973 305.673 348 312.995 348 295 c 16
 348 282.628 338.104 265.005 342 249 c 0
 343.773 241.719 380.248 270.566 384 264 c 8
425 299 m 8
 422.163 272.76 463.822 313.082 489 321 c 24
 521.502 331.222 552.483 317.8 573 345 c 24
 580.046 354.341 583.465 369.768 573 375 c 16
 543 390 510.867 380.705 474 369 c 24
 455.639 363.171 468.497 361.248 432 343 c 0
 412 333 429 336 425 299 c 8
423 393 m 8
 423 334.162 498 414 567 438 c 8
 577.188 441.544 575.756 454.571 573 465 c 24
 564.533 497.034 548.169 520.061 516 528 c 24
 479.704 536.957 426 532.385 426 495 c 16
 426 459 423 432 423 393 c 8
387 357 m 0
 405 399 384 432 384 471 c 8
 384 488.821 336.76 470.033 342 453 c 16
 347.147 436.27 333.298 358.242 339 342 c 0
 346.59 320.38 379.816 340.239 387 357 c 0
189 99 m 16
 213 141 248.995 251.262 270 204 c 16
 282 177 324 144 291 120 c 0
 258 96 168.85 63.7373 189 99 c 16
78 9 m 16
 126 102 191.615 168.399 231 285 c 24
 262.029 376.863 279.987 434.912 267 531 c 24
 255.703 614.586 259.935 702.08 180 729 c 24
 145.752 740.534 115.726 716.034 99 684 c 24
 66.8867 622.492 117 573 117 507 c 1
 6 438 l 1
 2.19141 458.949 19.1543 508.598 19.1865 540 c 0
 19.2285 579.94 21 624.334 21 663 c 1
 51 732 69 750 117 777 c 1
 144 789 208.039 815.786 237 801.312 c 0
 269.741 784.949 300.856 756.735 312 744 c 8
 365.821 682.49 349.172 612.186 360 540 c 0
 369 480 483 615 534 579 c 8
 588.139 540.784 633.572 525.77 660 465 c 24
 691.266 393.105 660 342 657 264 c 8
 651.152 111.972 575.5 7.75488 648 -126 c 24
 661.771 -151.405 710.185 -136.114 711 -165 c 24
 711.402 -179.276 694.941 -182.9 681 -186 c 24
 634.621 -196.31 594.371 -198.818 561 -165 c 24
 509.391 -112.698 530.957 -52.4775 531 21 c 24
 531.056 115.828 588 177 570 261 c 8
 555.046 330.786 443.211 286.048 390 228 c 0
 357 192 366 126 369 63 c 8
 369.811 45.9834 409.167 67.9365 411 51 c 24
 414.718 16.6514 367.525 10.3076 333 9 c 24
 286.94 7.25586 271.032 54.6367 225 57 c 24
 164.771 60.0928 50.3398 -44.5918 78 9 c 16
EndSplineSet
EndChar
StartChar: I
Encoding: 73 73 14
Width: 344
Flags: W
VStem: 162 51<180 468>
Fore
213 180 m 16
 213 234 228.822 375.648 234 501 c 24
 236.801 568.812 219 621 237 675 c 8
 242.744 692.231 267.36 697.75 282 687 c 24
 325.422 655.115 288.672 602.867 288 549 c 24
 286.933 463.396 292.054 413.463 273 330 c 24
 258.977 268.574 213 116.994 213 180 c 16
30 681 m 8
 19.5 653.699 84 711 102 702 c 8
 120.865 692.567 139.438 700.155 153 684 c 24
 171.303 662.196 163.538 640.43 165 612 c 24
 165.963 593.269 170.03 580.95 162 564 c 24
 152.43 543.799 135.519 541.088 120 525 c 24
 96.3877 500.521 43.1133 486.591 63 459 c 24
 75.5771 441.55 94.5273 470.862 114 480 c 24
 134.374 489.561 146.18 519.34 165 507 c 24
 177.758 498.636 162 483.255 162 468 c 24
 162 452.745 170.451 443.248 165 429 c 24
 151.693 394.221 122.199 389.463 96 363 c 24
 77.9473 344.765 35.2627 335.268 51 315 c 24
 67.3789 293.906 86.2168 338.052 111 348 c 24
 127.855 354.767 147.877 376.246 156 360 c 16
 177 318 161.852 299.522 159 261 c 24
 154.611 201.722 153.533 166.402 132 111 c 24
 84.375 -11.5322 -150.655 -256.124 -48 -174 c 16
 16.9082 -122.073 72.083 -44.5615 132 33 c 0
 169.009 80.9072 213.717 119.557 246 180 c 8
 292.566 267.186 299.134 325.975 318 423 c 16
 339 531 327 618 336 717 c 8
 337.725 735.968 386.339 745.118 369 753 c 16
 336 768 304.125 727.596 261 729 c 24
 231.766 729.952 218.081 746.862 189 750 c 24
 155.186 753.648 129.862 763.504 102 744 c 16
 72 723 45 720 30 681 c 8
EndSplineSet
EndChar
StartChar: J
Encoding: 74 74 15
Width: 406
Flags: W
VStem: 204 54<642 666>
Back
Fore
321 597 m 16
 315 621 312 636 318 666 c 8
 321.907 685.537 323 699 315 717 c 8
 311.081 725.817 300.192 725.931 291 723 c 24
 280.723 719.724 278.654 711.187 273 702 c 24
 265.028 689.047 257.714 681.207 258 666 c 24
 258.315 649.251 267.291 641.31 276 627 c 24
 282.936 615.604 285.403 606.595 297 600 c 24
 305.2 595.337 323.288 587.848 321 597 c 16
12 -189 m 16
 90 -123 128.387 -116.17 174 -45 c 24
 258.477 86.8096 269.608 183.911 291 339 c 16
 303 426 303 456 306 546 c 8
 306.927 573.795 258.038 545.812 237 564 c 24
 212.013 585.603 203.799 608.97 204 642 c 24
 204.124 662.433 213.481 673.123 225 690 c 24
 242.723 715.967 255.341 730.338 282 747 c 16
 306 762 324 774 348 789 c 8
 362.205 797.879 386.356 787.739 387 771 c 16
 390 693 390 669 390 621 c 8
 390 609.3 413.171 614.671 414 603 c 24
 415.056 588.146 390.349 590.511 387 576 c 16
 360 459 362.439 376.841 334 252 c 24
 313.415 161.635 309.63 106.293 267 24 c 24
 230.606 -46.2529 204.055 -87.2089 141 -135 c 24
 97.5342 -167.944 -29.6348 -224.229 12 -189 c 16
EndSplineSet
EndChar
StartChar: K
Encoding: 75 75 16
Width: 541
Flags: W
Back
Fore
357 441 m 24
 350.163 461.361 349.792 480.658 330 489 c 24
 307.684 498.406 293.117 480.218 270 473 c 24
 254.574 468.184 241.153 471.572 231 459 c 24
 219.876 445.226 226.613 431.632 225 414 c 24
 222.865 390.668 222.585 377.422 222 354 c 24
 221.591 337.625 208.36 321.07 222 312 c 24
 254.75 290.221 279.063 335.018 315 351 c 24
 335.086 359.933 355.505 355.684 366 375 c 24
 378.402 397.826 365.269 416.373 357 441 c 24
291 291 m 8
 283.354 274.86 314.79 276.36 330 267 c 17
 330 267 384 228 426 216 c 9
 458.76 207.81 495 222 510 195 c 8
 518.654 179.422 485.457 180.583 468 177 c 24
 430.179 169.237 405.801 165.32 369 177 c 24
 345.795 184.365 338.582 199.995 318 213 c 24
 299.843 224.473 291.451 238.927 270 240 c 24
 249.593 241.021 232.127 236.747 222 219 c 24
 198.051 177.026 226.134 143.088 237 96 c 16
 255 18 345 69 375 72 c 8
 431.867 77.6865 309 0 240 15 c 8
 196.465 24.4639 166.602 35.5381 141 72 c 24
 110.271 115.765 158.489 173.262 117 207 c 24
 86.123 232.108 45.2189 178.104 15 204 c 24
 7.83691 210.138 3.67676 223.561 12 228 c 16
 57 252 92.2968 248.576 120 288 c 24
 149.307 329.705 136.892 366.193 141 417 c 24
 146.847 489.304 135.802 543.226 141 603 c 0
 147 672 231 720 291 744 c 8
 393.166 784.866 484.499 818.388 573 753 c 24
 637.375 705.437 633 579 627 555 c 8
 623.311 540.244 606.179 540.977 591 540 c 24
 577.688 539.144 562.486 536.438 558 549 c 16
 543 591 554.981 668.15 504 711 c 24
 467.773 741.449 430.14 739.519 384 729 c 24
 315.025 713.275 268.816 688.583 234 627 c 24
 220.159 602.519 229.611 583.121 230 555 c 24
 230.26 536.217 218.813 518.055 234 507 c 24
 253.427 492.859 270.943 514.234 294 521 c 24
 329.745 531.489 348.899 565.479 384 553 c 24
 417.969 540.923 419.082 507.657 432 474 c 24
 447.787 432.868 473.466 392.769 453 363 c 0
 430.148 329.761 405 345 372 327 c 0
 355.229 317.853 299.303 308.529 291 291 c 8
EndSplineSet
EndChar
StartChar: L
Encoding: 76 76 17
Width: 550
Flags: W
VStem: 305 38<309 705.131>
Back
Fore
18 12 m 12
 -10.5273 3.44141 50.1053 45.8087 72 66 c 28
 94.5762 86.8203 117.86 89.7381 132 117 c 28
 161.751 174.358 144.072 217.451 147 282 c 28
 149.863 345.115 150 414 147 444 c 12
 145.836 455.642 133.363 431.43 123 426 c 28
 103.336 415.697 81.697 389.791 69 408 c 28
 51.8604 432.581 96.6327 446.019 117 468 c 28
 133.316 485.609 150.915 488.706 162 510 c 28
 176.186 537.25 169.778 557.448 173 588 c 28
 177.675 632.323 178 660 181 702 c 12
 182.728 726.185 146.928 685.346 125 675 c 28
 94.6992 660.704 66.9755 612.102 47 639 c 28
 27.7285 664.949 76.8203 680.733 102 701 c 20
 143 734 168.558 742.781 212 768 c 28
 226.644 776.501 248.348 805.852 250 789 c 20
 255 738 256 741 252 702 c 12
 242.078 605.266 242.076 550.193 239 453 c 28
 236.779 382.831 238 342 237 273 c 12
 236.404 231.904 222 201 228 168 c 12
 230.516 154.165 249.957 166.724 264 166 c 28
 272.188 165.577 282.407 157.222 285 165 c 20
 299 207 299.192 254.367 303 312 c 28
 308.091 389.056 303.933 432.783 305 510 c 28
 306.229 598.925 304 660 309 738 c 12
 310.339 758.887 312.291 789.032 333 786 c 28
 357.679 782.387 344.319 747.939 344 723 c 20
 343 645 346.025 582.927 344 507 c 4
 342 432 341.254 386.201 343 309 c 28
 344.403 246.928 336 201 351 150 c 12
 355.908 133.313 377.938 143.699 393 135 c 28
 419.594 119.641 422.334 85.6621 453 84 c 28
 492.532 81.8574 508.235 168.203 537 141 c 28
 561.783 117.562 516.569 89.6631 492 66 c 28
 472.765 47.4746 456.783 42.9483 432 33 c 28
 415.145 26.2334 405.126 19.8409 387 21 c 28
 359.246 22.7744 345.432 34.7143 321 48 c 28
 292.201 63.6602 284.758 97.221 252 96 c 28
 227.896 95.1016 223.673 70.9552 204 57 c 28
 189.434 46.667 181.946 38.6376 165 33 c 28
 152.737 28.9209 142.18 22.0382 132 30 c 28
 119.878 39.4805 140.764 73.3418 126 69 c 20
 75 54 78 30 18 12 c 12
EndSplineSet
EndChar
StartChar: M
Encoding: 77 77 18
Width: 833
Flags: W
VStem: 450.136 76.244<119 221 279.581 284.285> 598.716 28.346<14 150 150.451 158.88 158.977 230.959>
Back
Fore
640.748 370.305 m 12
 642.867 344.851 677.462 348.236 699.397 356.427 c 20
 717 363 751.558 338.164 752.183 360.697 c 20
 753.16 395.925 745.031 418.384 734.588 453.569 c 28
 726.854 479.628 719.007 492.902 708.195 517.62 c 28
 692.909 552.564 693 579.723 667.141 606.223 c 28
 660.788 612.731 647.401 625.303 646.613 615.83 c 20
 643.681 580.603 642.894 536.412 641.726 485.595 c 28
 640.691 440.644 637.815 405.532 640.748 370.305 c 12
7.32812 21.2324 m 20
 65.9775 110.902 110.501 175.655 171.548 277.433 c 28
 247.392 403.879 275.889 483.695 356.295 607.29 c 28
 390.62 660.052 396.775 708.293 453.067 736.457 c 28
 465.341 742.598 474.535 736.684 488.258 736.457 c 28
 500.844 736.249 517.834 747.688 520.516 735.39 c 20
 535.178 668.137 530.743 643.73 533.223 584.872 c 28
 536.482 507.504 530.29 443.962 533.223 386.317 c 12
 534.096 369.152 559.148 378.595 576.232 376.71 c 28
 592.147 374.954 616.725 360.708 617.288 376.71 c 20
 620.221 459.975 613.378 590.21 623.153 679.88 c 12
 624.553 692.717 642.665 685.275 655.41 687.353 c 28
 676.955 690.864 690.752 700.521 711.128 692.689 c 28
 736.42 682.969 744.591 664.968 758.048 641.449 c 28
 792.223 581.723 798.469 540.648 809.855 472.785 c 28
 822.677 396.37 820.324 351.627 816.698 274.229 c 28
 812.927 193.724 812.136 146.851 790.306 69.2695 c 28
 774.37 12.6377 755.822 -16.2186 728.723 -68.4375 c 28
 715.332 -94.2393 707.682 -108.967 690.601 -132.488 c 28
 668.161 -163.388 658.407 -226.481 626.085 -206.146 c 28
 591.596 -184.446 652.478 -148.5 667.141 -110.07 c 12
 690.896 -47.8105 708.276 -13.9668 726.768 50.0547 c 28
 740.222 96.6357 747.2 123.521 752.183 171.75 c 28
 754.75 196.598 753.084 210.837 752.183 235.8 c 28
 751.61 251.651 760.391 265.074 749.25 276.364 c 28
 735.544 290.254 718.89 281.557 699.397 280.635 c 28
 673.852 279.426 642.349 293.353 634.883 268.893 c 20
 622.176 227.26 627.635 196.713 626.085 150.399 c 28
 624.316 97.5547 625.107 46.8525 627.062 14.8271 c 12
 627.736 3.79297 598.716 3.77148 598.716 14.8271 c 20
 598.716 56.46 598.825 102.741 599.692 158.939 c 28
 600.425 206.409 600.67 245.407 602.625 280.635 c 12
 603.515 296.67 577.628 284.107 561.57 283.837 c 28
 546.612 283.585 522.797 294.514 523.448 279.567 c 20
 526.38 212.314 525.635 213.808 526.38 171.75 c 28
 527.198 125.543 524.426 101.295 527.357 53.2568 c 12
 528.402 36.1318 509.317 32.4023 494.123 24.4346 c 28
 476.345 15.1123 450.131 -7.57422 444.271 11.625 c 20
 432.54 50.0547 448.992 77.998 450.136 120.51 c 28
 451.984 189.179 447.203 197.37 450.136 296.647 c 12
 450.504 309.122 432.793 305.969 420.811 309.457 c 28
 405.251 313.987 387.677 301.725 379.755 315.862 c 28
 372.479 328.844 386.743 338.34 394.418 351.09 c 28
 402.765 364.956 407.782 373.513 420.811 383.114 c 28
 428.77 388.979 438.288 384.851 444.271 392.723 c 28
 467.86 423.764 454.218 453.054 456 492 c 28
 457.999 535.684 458.858 560.743 453.067 604.087 c 28
 450.514 623.202 460.268 648.439 441.338 652.125 c 28
 396.518 660.854 396.54 596.192 372.913 557.117 c 28
 317.764 465.91 306.12 403.719 250.726 312.66 c 28
 227.437 274.377 209.051 256.301 183.075 219.787 c 28
 164.562 193.765 156 183 136.357 152.535 c 12
 125.019 134.949 169.85 151.029 189.143 142.927 c 28
 211.092 133.708 218.645 120.054 238.995 107.699 c 28
 265.394 91.6719 278.809 75.8181 309.375 71.4043 c 28
 331.273 68.2422 379.06 99.2402 365.093 82.0801 c 20
 349.453 62.8643 352.141 49.713 335.768 36.1768 c 28
 315.841 19.7021 299.396 17.3624 274.186 11.625 c 28
 256.302 7.55469 245.01 3.77846 227.266 8.42188 c 28
 200.81 15.3447 193.187 34.8478 168.615 46.8525 c 28
 151.243 55.3398 140.886 60.501 121.695 62.8643 c 28
 106.888 64.6875 96.5859 66.961 83.5732 59.6621 c 28
 70.0703 52.0879 73.416 35.5586 60.1133 27.6367 c 28
 52.1797 22.9121 45.8184 25.5602 36.6533 24.4346 c 28
 25.2344 23.0322 1.03027 11.6045 7.32812 21.2324 c 20
EndSplineSet
EndChar
StartChar: N
Encoding: 78 78 19
Width: 502
Flags: W
VStem: 351 78<343 390 345 478>
Back
Fore
171 390 m 20
 210 402 222.672 407.156 255 420 c 28
 277.559 428.963 290.023 434.694 312 445 c 28
 326.212 451.665 339.747 449.647 348 463 c 28
 352.716 470.63 349.514 477.159 348 486 c 28
 346.812 492.93 348.207 499.698 342 503 c 28
 322.793 513.218 308.201 497.078 288 489 c 28
 269.358 481.546 276 474 243 464 c 12
 216.523 455.977 207 441 177 438 c 12
 169.268 437.227 172.184 426.68 171 419 c 28
 169.277 407.822 160.19 386.674 171 390 c 20
176 468 m 12
 176 436.545 222.519 484.033 252 495 c 28
 273.179 502.878 285.343 506.843 306 516 c 28
 322.742 523.422 342.057 519.678 348 537 c 28
 357.681 565.215 332.229 581.649 315 606 c 28
 299.709 627.611 287.718 637.519 267 654 c 28
 249.725 667.743 240.649 679.686 219 684 c 28
 212.021 685.391 203.644 687.607 201 681 c 20
 189 651 198 645 192 609 c 12
 187.538 582.231 186.068 566.964 183 540 c 28
 179.811 511.969 176 495 176 468 c 12
126 288 m 20
 141 336 142.658 375.541 150 432 c 28
 154.85 469.29 162 492 159 528 c 12
 155.867 565.601 167.716 586.412 171 624 c 28
 172.359 639.561 185.187 654.229 173 664 c 28
 163.847 671.339 153.257 663.209 144 656 c 28
 128.428 643.874 135 639 119 612 c 12
 102.086 583.458 99.0928 563.613 93 531 c 28
 85.6826 491.829 85.3438 468.814 87 429 c 28
 88.375 395.936 89.4697 376.69 99 345 c 28
 106.084 321.444 118.663 264.521 126 288 c 20
9 -222 m 20
 39 -186 58.9277 -160.633 84 -117 c 28
 96.7842 -94.752 105.615 -82.0889 111 -57 c 28
 116.156 -32.9775 114.869 -18.2637 111 6 c 28
 100.337 72.8633 78.4883 106.792 57 171 c 28
 42.0869 215.561 27.5781 238.997 18 285 c 28
 9.14746 327.521 9.58398 352.572 9 396 c 28
 8.41699 439.35 4.27246 464.995 15 507 c 28
 29.7627 564.803 43.9023 598.278 81 645 c 28
 104.293 674.336 124.757 684.336 156 705 c 28
 184.817 724.06 199.935 741.235 234 747 c 28
 263.207 751.942 281.515 746.045 309 735 c 28
 343.33 721.204 365.314 710.978 387 681 c 28
 418.463 637.508 417.815 602.053 426 549 c 28
 435.457 487.704 429.68 452.018 429 390 c 28
 428.371 332.626 426.316 300.282 423 243 c 28
 420.288 196.147 400.562 167.966 414 123 c 28
 419.495 104.614 427.058 93.0098 444 84 c 28
 460.561 75.1934 483.272 97.6025 492 81 c 28
 501.523 62.8838 480.828 48.9756 465 36 c 28
 451.549 24.9727 440.392 20.7578 423 21 c 28
 400.405 21.3145 386.841 28.1328 369 42 c 28
 353.106 54.3535 344.93 64.7637 339 84 c 28
 323.486 134.326 339.538 166.395 342 219 c 28
 344.303 268.211 351.698 295.74 351 345 c 28
 350.5 380.271 370.818 455.343 342 435 c 20
 291 399 318.255 424.526 303 418 c 28
 271.501 404.524 253.083 398.407 222 384 c 28
 199.371 373.512 204 378 165 355 c 12
 151.227 346.877 158.838 330.736 156 315 c 28
 151.39 289.435 146.382 274.971 147 249 c 28
 147.765 216.882 154.769 199.303 162 168 c 28
 171.84 125.407 187.59 103.492 192 60 c 28
 195.431 26.1631 195.189 5.74512 186 -27 c 28
 176.385 -61.2607 166.207 -80.1953 144 -108 c 28
 100.994 -161.845 -35.1152 -274.938 9 -222 c 20
EndSplineSet
EndChar
StartChar: O
Encoding: 79 79 20
Width: 513
Flags: W
Back
Fore
270 321 m 12
 263.178 341.467 245.176 344.547 234 363 c 28
 220.944 384.557 197.033 401.389 210 423 c 20
 228 453 232.357 454.201 252 468 c 28
 273.874 483.365 289.277 502.275 315 495 c 28
 338.427 488.374 339.944 465.691 351 444 c 28
 359.793 426.749 358 418 367 397 c 12
 377.666 372.113 342.666 361.239 321 345 c 28
 303.41 331.816 276 303 270 321 c 12
123 564 m 12
 106.931 521.149 118.922 490.856 132 447 c 28
 139.632 421.408 152.035 410.348 165 387 c 28
 179.325 361.202 194.016 349.408 202 321 c 28
 207.702 300.712 206.99 287.861 204 267 c 28
 199.625 236.479 192.264 219.833 179 192 c 28
 165.27 163.188 164 159 135 123 c 12
 107.754 89.1774 202.822 118.691 246 114 c 28
 271.826 111.194 286.819 111.386 312 105 c 28
 330.185 100.389 338.479 85.0175 357 88 c 28
 367.403 89.6748 371.998 96.339 378 105 c 28
 394.859 129.328 394.699 148.315 402 177 c 28
 410.208 209.25 414.416 227.822 417 261 c 28
 421.271 315.836 417.942 347.139 414 402 c 28
 410.789 446.679 413.077 473.157 400 516 c 28
 384.674 566.213 378.497 601.414 339 636 c 28
 304.479 666.228 272.595 685.802 228 675 c 28
 170.085 660.972 150 636 123 564 c 12
111 267 m 28
 98.6357 325.363 57.9544 346.765 45 405 c 28
 34.8369 450.685 30 456 46 525 c 4
 68.7881 623.274 182.81 714.937 216 726 c 4
 261 741 317.71 749.73 375 726 c 28
 417.803 708.271 436.799 682.664 459 642 c 28
 485.393 593.658 482.001 558.631 489 504 c 28
 496.292 447.088 496.554 414.356 495 357 c 28
 493.663 307.655 495.802 278.673 483 231 c 28
 466.978 171.336 447 138 417 87 c 12
 412.806 79.8691 417.929 73.2803 414 66 c 28
 401.402 42.6562 387.255 31.7392 363 21 c 28
 333.937 8.13184 315 18 282 12 c 12
 257.284 7.50586 248.945 34.4064 225 42 c 28
 199.132 50.2031 183.121 50.0375 156 51 c 28
 136.088 51.707 123.95 54.1546 105 48 c 28
 71.9707 37.2725 63 18 30 0 c 12
 20.5303 -5.16504 5.52832 12.3701 12 21 c 20
 39 57 54.0653 74.6456 78 111 c 28
 90.6895 130.273 101.619 139.823 108 162 c 28
 119.327 201.37 119.491 226.923 111 267 c 28
EndSplineSet
EndChar
StartChar: P
Encoding: 80 80 21
Width: 676
Flags: W
Back
Fore
303.78 113.475 m 12
 290.679 67.6875 373.789 84.0967 421.245 80.0996 c 28
 457.086 77.081 481.988 71.7656 512.925 90.1123 c 28
 534.765 103.064 543.189 119.1 550.17 143.512 c 28
 561.996 184.866 548.406 210.821 544.439 253.649 c 28
 540.806 292.877 535.15 314.591 531.069 353.774 c 28
 525.39 408.301 514.49 439.465 520.564 493.949 c 28
 524.938 533.18 533.738 554.846 550.17 590.737 c 28
 559.773 611.714 604.515 644.125 581.685 640.8 c 20
 558.765 637.462 524.099 636.392 490.005 647.475 c 28
 471.24 653.575 465.744 667.918 447.03 674.175 c 28
 433.199 678.799 424.021 680.681 409.785 677.512 c 28
 382.017 671.331 359.743 666.109 346.755 640.8 c 28
 336.009 619.86 350.592 604.184 352.484 580.725 c 28
 356.576 530.016 362.367 501.42 361.08 450.562 c 28
 359.622 392.918 353.062 360.641 343.89 303.712 c 28
 337.759 265.664 331.923 244.633 323.97 206.925 c 28
 316.275 170.441 312.375 143.512 303.78 113.475 c 12
414 12 m 28
 387.268 8.125 371.641 13.5375 345 18 c 28
 319.568 22.2598 306 60 280.859 34.0498 c 4
 256.945 9.36523 258.886 -13.5576 243.615 -43.3877 c 28
 223.361 -82.9521 219.267 -110.797 189.18 -143.513 c 28
 167.322 -167.28 107.058 -218.583 120 -189 c 20
 141 -141 158.863 -132.691 177.72 -93.4502 c 28
 202.95 -40.9473 225 -15 229.29 46.7246 c 12
 230.916 70.1152 198.715 69.9029 175.585 73.75 c 28
 146.375 78.6084 128.591 72.3652 100.365 63.4121 c 28
 67.9834 53.1406 44.3984 -3.03128 23.0098 23.3623 c 28
 -0.298828 52.125 53.085 75.2197 83.1748 96.7871 c 28
 113.25 118.344 135.491 124.075 171.99 130.162 c 20
 201 135 253.338 95.0381 257 128 c 20
 261 164 270 171 275.13 216.938 c 12
 284.261 298.705 292.964 344.926 292.319 427.199 c 28
 291.869 484.741 292.306 518.315 277.995 574.05 c 28
 268.132 612.465 261.605 635.715 237.885 667.5 c 28
 225.714 683.81 217.8 697.254 197.774 700.875 c 28
 174.479 705.087 159.066 695.503 140.475 680.85 c 28
 121.021 665.517 106.741 652.21 106.095 627.449 c 28
 105.508 604.961 129.298 599.213 134.745 577.387 c 28
 143.574 542.01 143.454 518.514 131.88 483.938 c 28
 123.278 458.24 108.277 448.69 91.7695 427.199 c 28
 80.0732 411.973 78.4405 395.537 60.2549 389.375 c 28
 47.2344 384.963 31.0029 384.406 25.875 397.162 c 28
 18.3115 415.977 47.4295 421.554 54.5244 440.55 c 28
 66.4678 472.528 75.7136 494.604 65.9844 527.324 c 28
 60.6064 545.411 40.1245 546.034 34.4697 564.037 c 28
 27.8047 585.255 30.5702 600.728 40.2002 620.774 c 28
 53.0771 647.581 71.7989 655.124 94.6348 674.175 c 28
 129.294 703.089 149.246 719.888 189.18 740.925 c 28
 212.374 753.144 226.572 769.763 252.21 764.287 c 28
 281.293 758.075 287.523 733.664 306.645 710.887 c 28
 316.797 698.793 314.266 681.42 329.564 677.512 c 28
 357.476 670.382 369.551 698.293 395.46 710.887 c 28
 423.177 724.359 436.313 745.934 467.085 744.262 c 28
 499.695 742.489 507.838 711.528 538.71 700.875 c 28
 569.562 690.229 589.322 687.582 621.795 690.862 c 28
 654.602 694.177 661.905 704.212 702.015 717.562 c 12
 729.78 726.805 681.577 675.814 661.905 654.149 c 28
 644.786 635.297 624.406 635.324 610.335 614.1 c 28
 588.75 581.541 588.308 556.195 584.55 517.312 c 28
 579.78 467.967 587.591 439.751 593.145 390.487 c 28
 598.754 340.726 611.418 313.707 613.2 263.662 c 28
 614.595 224.494 613.351 201.741 604.604 163.537 c 28
 596.21 126.871 596.687 100.157 570.225 73.4248 c 28
 524.167 26.8975 478.791 21.3909 414 12 c 28
EndSplineSet
EndChar
StartChar: Q
Encoding: 81 81 22
Width: 1000
Flags: W
Back
Fore
294 663 m 16
 294 612 292.157 602.61 291 564 c 24
 289.422 511.351 288.603 481.648 287 429 c 24
 285.86 391.559 285.001 370.445 284 333 c 24
 282.593 280.355 284.207 250.565 281 198 c 24
 279.567 174.527 275 161.517 275 138 c 16
 275 108 205.207 176.118 177 216 c 24
 137.688 271.584 123.146 312.991 120 381 c 24
 117.272 439.961 129.931 475.045 156 528 c 24
 172.544 561.606 189.262 576.766 216 603 c 24
 243.396 629.878 294 701.379 294 663 c 16
412 339 m 8
 407.986 302.877 407.908 282.295 406 246 c 24
 403.479 198.057 419.854 167.153 401 123 c 24
 395.259 109.556 388.85 100.679 375 96 c 24
 360.421 91.0742 347.69 91.992 336 102 c 24
 316.418 118.765 319.028 139.4 316 165 c 24
 310.902 208.102 305.106 236.926 324 276 c 24
 332.291 293.146 344.64 297.739 360 309 c 24
 378.882 322.843 415 366 412 339 c 8
421 734 m 16
 421 674 416.027 633.376 414 569 c 24
 412.208 512.076 418 486 411 423 c 8
 408.311 398.802 391.768 389.651 375 372 c 24
 360.652 356.897 352.028 330.522 333 339 c 24
 300.867 353.316 326.801 393.822 327 429 c 24
 327.312 484.156 335.072 514.921 338 570 c 24
 340.92 624.935 339 666 342 711 c 8
 343.106 727.592 359.111 733.094 375 738 c 24
 392.206 743.312 421 752.008 421 734 c 16
465 735 m 8
 473.652 782.588 537.107 704.462 570 669 c 24
 617.693 617.582 637.674 578.205 654 510 c 24
 670.89 439.443 663.908 395.392 651 324 c 24
 641.058 269.013 629.778 238.045 603 189 c 24
 587.412 160.449 579.351 140.609 552 123 c 24
 534.819 111.939 521.214 113.988 501 111 c 24
 482.445 108.257 460.762 90.9248 453 108 c 16
 438 141 445.475 164.591 444 201 c 24
 441.964 251.274 441 279 446 330 c 8
 447.719 347.535 468.518 311.194 486 309 c 24
 511.061 305.854 527.13 311.366 549 324 c 24
 574.083 338.49 595.769 349.343 600 378 c 24
 603.058 398.705 587.896 408.78 576 426 c 24
 564.235 443.031 560.091 460.019 540 465 c 24
 519.527 470.076 509.436 452.219 489 447 c 24
 474.836 443.383 449.133 426.665 452 441 c 16
 461 486 454.855 517.868 457 567 c 24
 459.86 632.532 453 669 465 735 c 8
988 162 m 16
 963 162 942.974 152.791 915 144 c 24
 883.906 134.229 869.301 109.648 837 114 c 24
 809.635 117.688 803.942 142.241 780 156 c 24
 739.107 179.5 646.095 162.771 669 204 c 16
 699 258 720.076 282.653 738 339 c 24
 759.5 406.592 767.731 448.17 764 519 c 24
 761.333 569.63 752.754 598.742 732 645 c 24
 712.341 688.819 699.773 716.107 663 747 c 24
 634.53 770.918 612.222 777.597 576 786 c 24
 542.928 793.672 522.838 791.763 489 789 c 24
 423.594 783.66 384.406 781.644 324 756 c 24
 255.887 727.084 219.995 700.651 168 648 c 24
 122.396 601.821 109.178 565.172 75 510 c 24
 48.7871 467.685 25.9891 446.771 12 399 c 24
 5.85352 378.01 8.60373 364.868 9 343 c 24
 9.70898 303.849 10.186 281.37 18 243 c 24
 25.6055 205.656 27.2275 181.951 48 150 c 24
 80.5176 99.9824 113.26 82.4021 162 48 c 24
 185.954 31.0928 200.094 20.9961 228 12 c 24
 263.911 0.422852 286.29 -1.26054 324 0 c 24
 360.923 1.23438 382.02 6.11922 417 18 c 24
 439.295 25.5723 449.417 35.5882 471 45 c 24
 507.652 60.9834 529.154 68.0946 567 81 c 24
 582.062 86.1357 590.216 95.03 606 93 c 24
 634.661 89.3145 644.551 69.4025 669 54 c 24
 699.572 34.7402 710.895 5.42468 747 4 c 24
 785.007 2.5 799.248 32.4611 833 50 c 24
 875.251 71.9551 904.962 75.0762 942 105 c 24
 964.221 122.952 1016.57 162 988 162 c 16
EndSplineSet
EndChar
StartChar: R
Encoding: 82 82 23
Width: 747
Flags: W
VStem: 133 77<645 689> 273 36<133 215>
Back
Fore
309 114 m 20
 312 144 308.304 159.758 309 189 c 28
 310.17 238.182 312 270 315 315 c 12
 316.477 337.15 346.805 333.411 369 333 c 28
 398.984 332.445 418.011 325.258 441 306 c 28
 469.148 282.42 472.25 257.677 489 225 c 28
 498.321 206.816 504.063 196.552 510 177 c 28
 517.713 151.6 534.11 133.622 522 110 c 28
 508.392 83.4561 482.134 83.4044 453 77 c 28
 424.43 70.7197 406.364 70.8447 378 78 c 28
 348.569 85.4238 305.979 83.7979 309 114 c 20
504 687 m 12
 532.841 705.025 525 645 543 609 c 12
 558.255 578.49 566.112 553.055 552 522 c 28
 541.928 499.835 521.322 499.406 501 486 c 28
 441.369 446.662 429 432 345 390 c 12
 308.674 371.837 328.041 451.587 324 492 c 20
 321 522 324 528 330 561 c 4
 333.837 582.104 407.416 625.715 423 640 c 4
 459 673 456 657 504 687 c 12
95 260 m 13
 95 231.14 95.3699 214.857 95 186 c 28
 94.6104 155.572 105.821 135.598 93 108 c 28
 81.1289 82.4453 58.4779 80.361 39 60 c 28
 22.3262 42.5703 18 42 0 12 c 12
 -22.5059 -25.5088 75 43 96 70 c 12
 115.572 95.1641 144 82 177 81 c 12
 204.376 80.1699 218.037 68.2695 243 57 c 28
 269.723 44.9355 280.589 28.2447 309 21 c 28
 344.146 12.0381 366.312 14.5286 402 21 c 28
 431.508 26.3506 445.938 37.4235 474 48 c 28
 499.756 57.707 513.033 78.513 540 73 c 28
 567.023 67.4756 565.007 33.2278 591 24 c 28
 617.554 14.5732 636.23 21.2061 663 30 c 28
 696.935 41.1475 749.496 43.3067 741 78 c 28
 733.188 109.9 685.096 66.99 657 84 c 28
 617.003 108.216 617.645 145.663 594 186 c 28
 557.45 248.353 553.492 295.329 504 348 c 28
 480.22 373.308 399.473 377.721 429 396 c 20
 492 435 513.965 428.721 558 465 c 28
 589.45 490.911 636.886 507.342 624 546 c 20
 603 609 604.893 611.307 597 654 c 28
 589.93 692.244 590.394 704.462 585 753 c 4
 582 780 539.511 751.373 513 741 c 28
 471.297 724.683 454.928 701.81 417 678 c 28
 388.11 659.863 372 645 342 633 c 4
 324.383 625.953 342 705 327 750 c 12
 319.408 772.775 282.827 731.992 282 708 c 20
 279 621 283.391 581.718 282 501 c 28
 280.83 433.109 277.709 394.879 276 327 c 28
 274.145 253.304 273 195 273 138 c 12
 273 120.411 245.576 134.338 228 135 c 28
 211.466 135.623 187.032 124.486 186 141 c 20
 183 189 180.472 258.153 183 333 c 28
 185.378 403.403 192.565 442.767 198 513 c 28
 203.067 578.491 209.646 615.314 210 681 c 28
 210.208 719.681 222 750 204 780 c 12
 194.578 795.703 178.327 767.295 162 759 c 28
 125.61 740.513 105.27 729.72 69 711 c 21
 60 693 54 726 15 658 c 5
 15 636 60.2666 672.792 90 679 c 28
 106.575 682.461 133 701.933 133 685 c 20
 133 637 130.553 631.216 127 597 c 28
 123.217 560.573 131.575 536.13 114 504 c 28
 98.4707 475.609 72.9118 473.814 51 450 c 28
 33.4102 430.883 36 462 12 396 c 12
 6.05566 379.654 37.4903 405.528 54 411 c 28
 72.9707 417.287 101.576 445.935 103 426 c 20
 106 384 104.454 400.378 104 384 c 28
 103.317 359.362 110.887 342.592 99 321 c 28
 84.8936 295.376 58.74 297.584 39 276 c 28
 19.498 254.676 0 261 0 213 c 5
 0 213 65 242 95 260 c 13
EndSplineSet
EndChar
StartChar: S
Encoding: 83 83 24
Width: 544
Flags: W
Back
Fore
21 162 m 20
 36 186 46.7334 209.054 72 204 c 20
 132 192 157.216 163.709 213 141 c 28
 256.885 123.136 280.142 106.022 327 99 c 28
 347.859 95.874 363.941 89.5937 381 102 c 28
 425.633 134.461 418.899 180.389 432 234 c 28
 439.545 264.876 440.682 283.217 441 315 c 28
 441.259 340.845 452.583 362.056 435 381 c 28
 381.744 438.379 313.453 397.164 237 414 c 28
 189.599 424.438 158.22 421.371 117 447 c 28
 93.0703 461.878 69 472.822 69 501 c 20
 69 555 60.2788 570.311 72 612 c 28
 85.1455 658.754 102.788 682.791 134 720 c 28
 159.802 750.759 177 768 213 786 c 12
 249.188 804.094 273.363 767.006 312 755 c 28
 358.769 740.468 383.028 718.479 432 718 c 28
 475.818 717.571 501 731 540 749 c 12
 571.42 763.501 511.352 700.84 483 681 c 28
 448.329 656.738 414 643 381 644 c 12
 330.472 645.531 307.343 672.805 261 693 c 28
 233.807 704.85 221.26 729.877 192 725 c 28
 165.881 720.646 153.243 702.419 143 678 c 28
 130.327 647.788 132.802 624.789 144 594 c 28
 155.367 562.745 170.073 546.059 198 528 c 28
 250.907 493.786 292.97 501.656 354 486 c 28
 401.827 473.73 437.342 485.414 477 456 c 28
 501.014 438.189 510.577 419.402 516 390 c 28
 525.257 339.811 505.22 310.788 494 261 c 28
 481.976 207.642 471 177 456 126 c 5
 472.842 120.591 494.894 152.07 501 135 c 5
 486 99 467.226 81.9002 435 60 c 28
 394.902 32.75 366.197 23.2335 318 18 c 28
 281.643 14.0518 260.412 20.867 225 30 c 28
 172.615 43.5107 140.644 50.4462 96 81 c 28
 60.4717 105.315 -1.81738 125.492 21 162 c 20
EndSplineSet
EndChar
StartChar: T
Encoding: 84 84 25
Width: 559
Flags: W
VStem: 252 25<154.703 300> 252 28<300 463>
Back
Fore
246 90 m 12
 242.122 48.6338 183.671 116.008 156 147 c 28
 127.423 179.008 118.168 204.313 108 246 c 28
 97.7383 288.072 99.0728 314.102 105 357 c 28
 112.547 411.62 118.377 444.872 147 492 c 28
 178.065 543.148 258.6 659.787 256 600 c 20
 253 531 252.78 519.498 252 468 c 28
 251.008 402.487 252.936 365.514 252 300 c 28
 250.83 218.075 255 186 246 90 c 12
522 105 m 20
 543 132 475.955 97.1695 447 90 c 28
 415.019 82.0811 398.747 69.6291 366 66 c 28
 331.423 62.168 277 37.2109 277 72 c 20
 277 126 279.689 211.073 280 300 c 28
 280.221 363.181 279.39 398.82 279 462 c 21
 289.554 532.969 276 564 285 642 c 13
 320.1 643.17 340.613 637.863 375 645 c 28
 421.801 654.713 447.18 666.854 489 690 c 28
 513.159 703.371 573.57 733.531 546 732 c 20
 492 729 476.375 702.361 432 711 c 28
 402.053 716.83 390 723 366 753 c 12
 343.062 781.674 315.311 783.533 279 789 c 28
 241.814 794.599 219.24 790.036 183 780 c 28
 142.989 768.92 122.247 755.936 87 734 c 28
 55.4033 714.336 51 717 12 675 c 12
 -11.583 649.604 64.2002 690.22 96 704 c 20
 126 717 145.695 733.703 180 731 c 28
 217.905 728.014 297 729 267 687 c 12
 232.364 638.51 193.954 627.939 156 582 c 28
 104.732 519.946 73.6473 483.222 45 408 c 28
 18.8496 339.334 1.80927 294.284 15 222 c 28
 29.7715 141.053 49.2802 81.0624 120 39 c 28
 206.503 -12.4502 279.783 11.0164 378 33 c 28
 439.272 46.7148 483.451 55.4375 522 105 c 20
EndSplineSet
EndChar
StartChar: U
Encoding: 85 85 26
Width: 585
Flags: W
VStem: 459 87<594 773>
Fore
203 150 m 16
 206 216 200.434 283.588 199 369 c 24
 197.717 445.438 199 481 196 565 c 8
 195.248 586.061 167.442 547.231 154 531 c 24
 135.08 508.154 119.646 493.617 118 464 c 16
 115 410 112 398.796 112 357 c 16
 112 300 101.146 252.929 133 200 c 24
 150.3 171.255 201.477 116.485 203 150 c 16
80 108 m 0
 54.8061 134.063 39.3135 165.523 28 208 c 24
 13.3332 263.068 10.6873 298.147 22 354 c 24
 35.6104 421.198 59.8661 455.364 97 513 c 24
 126.372 558.588 150.246 579.123 187 619 c 24
 207.933 641.711 240.207 644.24 243 675 c 24
 244.8 694.824 232.212 708.966 214 717 c 24
 190.232 727.485 173.172 714.421 148 708 c 24
 122.523 701.501 71.4727 661.454 85 684 c 16
 103 714 115.153 718.554 139 735 c 24
 172.17 757.876 193.153 769.303 232 780 c 24
 258.042 787.171 275.453 794.774 301 786 c 24
 322.141 778.739 321.236 752.1 343 747 c 24
 364.386 741.989 403.034 784.12 397 763 c 16
 385 721 363.138 710.784 337 681 c 24
 306.068 645.754 256.956 644.375 250 598 c 16
 241 538 245.627 502.253 244 441 c 24
 241.918 362.629 232.426 317.929 241 240 c 24
 246.7 188.191 234.949 146.659 272 110 c 24
 290.764 91.4346 311.747 92.2548 338 95 c 24
 387.116 100.136 449.352 98.751 453 148 c 16
 459 229 457.83 280.956 459 366 c 24
 460.224 454.911 460.32 505.09 459 594 c 24
 458.415 633.403 461 651 456 695 c 8
 453.201 719.633 385.741 651.431 396 674 c 16
 411 707 427.139 713.125 453 731 c 24
 485.738 753.629 546 812.797 546 773 c 16
 546 614 539.253 581.479 536 459 c 24
 533.079 349.034 543 279 530 177 c 8
 526.123 146.577 532 129 520 99 c 8
 512.834 81.084 562.849 105.596 568 87 c 24
 573.742 66.2705 545.499 61.8011 529 48 c 24
 503.856 26.9678 496 18 460 0 c 8
 440.145 -9.92773 445.556 32.0879 442 54 c 24
 439.938 66.7041 453.332 93.1016 442 87 c 16
 403 66 372.914 53.4809 326 40 c 24
 287.177 28.8438 263.729 14.6946 224 22 c 24
 159.665 33.8301 138 48 80 108 c 0
EndSplineSet
EndChar
StartChar: V
Encoding: 86 86 27
Width: 574
Flags: W
Back
Fore
102 12 m 16
 102 39 144.874 59.4491 168 93 c 24
 187.931 121.916 196.075 140.228 213 171 c 16
 246 231 232.4 256.405 235 312 c 24
 237.081 356.495 238.268 382.655 228 426 c 24
 216.562 474.286 201.612 499.357 178 543 c 24
 158.596 578.866 148.448 600.783 120 630 c 24
 86.0312 664.887 51 672 18 702 c 8
 6.74512 712.231 22.0804 727.412 33 738 c 24
 51.876 756.303 69.7656 763.74 96 762 c 24
 159.729 757.773 197.289 731.487 240 684 c 24
 297.537 620.027 305.251 563.973 324 480 c 24
 334.466 433.127 332.988 404.934 330 357 c 24
 327.044 309.581 318 270 309 237 c 8
 294.141 182.514 374.748 298.534 402 348 c 24
 431.639 401.798 434.752 438.501 450 498 c 24
 460.652 539.565 467.741 563.215 471 606 c 24
 473.224 635.188 470.997 651.881 468 681 c 24
 465.085 709.317 446.415 726.195 456 753 c 24
 460.188 764.711 469.263 767.722 480 774 c 24
 498.209 784.646 512.161 801.487 531 792 c 24
 573.64 770.527 564.169 722.657 567 675 c 24
 570.103 622.768 558.415 593.002 543 543 c 24
 519.236 465.918 499.093 423.992 459 354 c 24
 411.768 271.544 377.994 228.867 317 156 c 24
 265.309 94.2461 204 66 173 8 c 8
 167.015 -3.19824 153.69 1.58326 141 2 c 24
 125.307 2.51562 102 -3.70215 102 12 c 16
EndSplineSet
EndChar
StartChar: W
Encoding: 87 87 28
Width: 872
Flags: W
VStem: 751 87<594 773>
Back
Fore
495 150 m 16
 498 216 492.434 283.588 491 369 c 24
 489.717 445.438 491 481 488 565 c 8
 487.248 586.061 459.442 547.231 446 531 c 24
 427.08 508.154 411.646 493.617 410 464 c 16
 407 410 404 398.796 404 357 c 16
 404 300 393.146 252.929 425 200 c 24
 442.3 171.255 493.477 116.485 495 150 c 16
163 138 m 16
 169 222 171.063 286.259 177 381 c 24
 181.693 455.904 181 480 190 573 c 8
 193.306 607.154 158.242 529.218 144 498 c 24
 124.648 455.582 114.161 430.215 108 384 c 24
 100.417 327.126 99.7939 292.591 114 237 c 24
 124.666 195.261 159.931 95.0293 163 138 c 16
860 87 m 24
 865.742 66.2705 837.499 61.8011 821 48 c 24
 795.856 26.9678 788 18 752 0 c 8
 732.145 -9.92773 737.556 32.0879 734 54 c 24
 731.938 66.7041 745.332 93.1016 734 87 c 16
 695 66 664.914 53.4809 618 40 c 24
 579.177 28.8438 556.37 20.5803 516 22 c 24
 477.432 23.3564 458.242 40.8122 420 46 c 24
 388.688 50.248 370.38 51.7188 339 48 c 24
 278.876 40.875 249.346 3.10343 189 8 c 24
 134.02 12.4609 96.4824 24.627 60 66 c 24
 20.3457 110.97 21.0752 153.353 15 213 c 24
 8.68848 274.965 14.877 311.578 30 372 c 24
 43.2422 424.908 55.4564 454.525 84 501 c 24
 121.79 562.53 156 588 204 642 c 8
 223.198 663.598 186.852 686.092 165 705 c 24
 142.811 724.2 125.344 735.034 96 735 c 24
 55.1338 734.953 -31.0283 666.404 0 693 c 16
 42 729 48.959 747.919 90 768 c 24
 124.426 784.844 147.697 790.311 186 789 c 24
 215.232 787.999 233.231 783.559 258 768 c 24
 271.329 759.627 270.142 743.196 285 738 c 24
 311.871 728.603 365.18 777.267 357 750 c 16
 348 720 333.934 718.315 318 699 c 24
 291.104 666.396 251.467 659.911 246 618 c 16
 237 549 236.942 499.043 231 423 c 24
 225.239 349.283 221.85 307.71 216 234 c 24
 212.1 184.86 212 150 206 108 c 8
 201.95 79.6504 241.793 76.9471 270 72 c 24
 293.366 67.9023 307.796 73.6492 330 82 c 24
 348.031 88.7812 379.972 90.4619 372 108 c 16
 357 141 331.313 165.523 320 208 c 24
 305.333 263.068 302.687 298.147 314 354 c 24
 327.61 421.198 351.866 455.364 389 513 c 24
 418.372 558.588 442.246 579.123 479 619 c 24
 499.933 641.711 532.207 644.24 535 675 c 24
 536.8 694.824 524.212 708.966 506 717 c 24
 482.232 727.485 465.172 714.421 440 708 c 24
 414.523 701.501 363.473 661.454 377 684 c 16
 395 714 407.153 718.554 431 735 c 24
 464.17 757.876 485.153 769.303 524 780 c 24
 550.042 787.171 567.453 794.774 593 786 c 24
 614.141 778.739 613.236 752.1 635 747 c 24
 656.386 741.989 695.034 784.12 689 763 c 16
 677 721 655.138 710.784 629 681 c 24
 598.068 645.754 548.956 644.375 542 598 c 16
 533 538 537.627 502.253 536 441 c 24
 533.918 362.629 524.426 317.929 533 240 c 24
 538.7 188.191 526.949 146.659 564 110 c 24
 582.764 91.4346 603.747 92.2548 630 95 c 24
 679.116 100.136 741.352 98.751 745 148 c 16
 751 229 749.83 280.956 751 366 c 24
 752.224 454.911 752.32 505.09 751 594 c 24
 750.415 633.403 753 651 748 695 c 8
 745.201 719.633 677.741 651.431 688 674 c 16
 703 707 719.139 713.125 745 731 c 24
 777.738 753.629 838 812.797 838 773 c 16
 838 614 831.253 581.479 828 459 c 24
 825.079 349.034 835 279 822 177 c 8
 818.123 146.577 824 129 812 99 c 8
 804.834 81.084 854.849 105.596 860 87 c 24
EndSplineSet
EndChar
StartChar: X
Encoding: 88 88 29
Width: 546
Flags: W
Fore
453 27 m 8
 419.42 -28.9678 330 15 291 69 c 8
 246.205 131.023 252 180 213 249 c 0
 185.542 297.58 146.455 163.632 150 101 c 16
 153 48 141.315 13.4855 162 -36 c 24
 173.845 -64.335 184.97 -83.4502 213 -96 c 24
 256.795 -115.608 365.976 -55.5303 336 -93 c 16
 300 -138 302.497 -128.473 276 -144 c 24
 238.311 -166.086 211.59 -199.145 171 -183 c 24
 84.9434 -148.77 60.5615 -62.4551 66 30 c 16
 72 132 89.6231 166.84 114 252 c 24
 131.789 314.146 158.916 344.316 170 408 c 24
 179.83 464.48 183.784 499.352 170 555 c 24
 162.366 585.819 154.464 604.562 132 627 c 24
 114.227 644.753 99.1034 649.922 75 657 c 24
 49.083 664.61 -13.8486 644.679 6 663 c 16
 45 699 42.0576 700.714 69 720 c 24
 88.5898 734.023 98.9365 751.164 123 750 c 24
 164.168 748.009 179.714 717.956 210 690 c 24
 239.942 662.361 238.763 592.45 276 609 c 16
 330 633 349.603 673.942 402 708 c 16
 462 747 450.099 727.592 522 711 c 0
 561 702 462.619 684.768 433 657 c 16
 385 612 383 608 350 566 c 8
 312.133 517.806 273 492 273 429 c 8
 273 346.095 276.701 296.556 306 219 c 16
 323 174 354 63 408 54 c 8
 468.245 43.959 460.15 139.952 462 201 c 24
 462.74 225.419 455.906 239.667 444 261 c 24
 430.268 285.604 378.701 292.758 396 315 c 16
 417 342 427.845 349.969 453 366 c 24
 468.028 375.578 486.158 399.473 495 384 c 16
 567 258 507 117 453 27 c 8
EndSplineSet
EndChar
StartChar: Y
Encoding: 89 89 30
Width: 472
Flags: W
Back
Fore
225 384 m 8
 235.134 358.102 210.642 342.771 198 318 c 24
 179.847 282.43 158.435 268.234 144 231 c 24
 129.374 193.271 121.336 169.298 125 129 c 24
 128.062 95.3145 132.188 72.0224 156 48 c 24
 180.778 23.002 204.809 15.6415 240 15 c 24
 285.877 14.1641 310.529 32.3776 351 54 c 24
 387.118 73.2969 369 60 435 117 c 8
 476.73 153.04 354.786 68.7701 300 75 c 24
 273.083 78.0605 256.081 88.1991 240 110 c 24
 206.25 155.755 201.209 195.439 207 252 c 24
 210.412 285.329 222.611 303.414 243 330 c 24
 281.927 380.758 322.08 391.524 369 435 c 24
 410.877 473.803 438.365 493.157 471 540 c 24
 505.104 588.95 533.293 618.457 537 678 c 24
 539.299 714.927 531.509 740.284 507 768 c 24
 488.973 788.386 471.214 797.972 444 798 c 24
 419.402 798.025 407.599 784.444 387 771 c 24
 367.552 758.307 333.208 753.495 342 732 c 24
 349.101 714.64 371.374 737.209 390 735 c 24
 405.803 733.126 415.808 731.9 429 723 c 24
 448.995 709.511 460.473 697.916 468 675 c 24
 475.676 651.631 473.331 635.143 465 612 c 24
 447.167 562.462 419.65 542.744 384 504 c 24
 355.381 472.897 345 456 303 432 c 8
 287.1 422.914 287.163 456.43 282 474 c 24
 268.729 519.165 279.035 548.008 269 594 c 24
 258.221 643.402 262.785 680.302 228 717 c 24
 199.452 747.118 170.491 756.723 129 756 c 24
 99.6611 755.488 84.6808 741.871 60 726 c 24
 33.5205 708.973 30 705 0 672 c 8
 -30.9453 637.96 75.3446 706.523 117 687 c 24
 158.439 667.578 168.208 632.22 180 588 c 16
 192 543 208 482 211 434 c 0
 212.75 406.004 214.789 410.095 225 384 c 8
EndSplineSet
EndChar
StartChar: Z
Encoding: 90 90 31
Width: 597
Flags: W
Back
Fore
479 63 m 8
 498.604 66.5645 462.65 34.9424 446 24 c 24
 412.284 1.84375 387.343 -6.33789 347 -6 c 24
 312.591 -5.71191 295.374 9.33789 263 21 c 24
 239.289 29.541 228.097 42.6963 203 45 c 24
 161.414 48.8184 139.445 29.127 98 24 c 24
 50.3359 18.1045 -52.0557 -21.6816 -25 18 c 16
 20 84 39.9414 108.104 78 168 c 16
 139 264 150 261 232 387 c 8
 239.688 398.812 210.564 392.172 197 396 c 24
 181.685 400.322 148.452 395.269 158 408 c 16
 176 432 192.068 436.683 218 447 c 24
 248.208 459.019 279.771 436.55 300 462 c 16
 331 501 343.871 523.835 371 564 c 24
 393.704 597.614 407 615 428 651 c 8
 456.597 700.023 339.106 658.423 284 672 c 24
 218.968 688.022 173 690 122 729 c 8
 109.918 738.239 126.791 753.726 137 765 c 24
 148.595 777.806 160.403 793.427 176 786 c 16
 239 756 264.817 742.158 326 729 c 24
 363.816 720.867 386.321 722.627 425 723 c 24
 454.342 723.283 471.452 722.215 500 729 c 24
 533.187 736.888 595.603 792.827 581 762 c 16
 554 705 535.632 693.134 504 651 c 24
 476.866 614.857 458.535 596.838 431 561 c 24
 401.913 523.143 398 507 359 462 c 8
 332.293 431.184 423.35 454.664 461 439 c 24
 475.085 433.141 504.787 428.787 494 418 c 16
 467 391 464.141 400.722 443 396 c 24
 407.584 388.09 386.072 396.961 350 393 c 24
 329.091 390.704 308.427 400.66 297 383 c 16
 264 332 225.511 291.693 183 231 c 24
 143.718 174.916 111 141 87 84 c 8
 60.3486 20.7021 194.679 97.0117 263 90 c 24
 307.319 85.4521 329.765 68.3027 374 63 c 24
 414.659 58.126 413 51 479 63 c 8
EndSplineSet
EndChar
StartChar: bracketleft
Encoding: 91 91 32
Width: 253
Flags: W
VStem: 46 60<140 622>
Fore
224 750 m 16
 202 759 170.262 755.316 136 753 c 24
 103.631 750.812 56.8721 771.315 54 739 c 16
 42 604 46.292 518.824 46 378 c 24
 45.7314 248.109 42 62 52 45 c 8
 68.1387 17.5645 101.183 35.8955 133 35 c 24
 156.442 34.3398 173.539 25.9131 193 39 c 24
 207.04 48.4414 206.511 61.9961 212 78 c 24
 216.914 92.3252 229.323 104.064 220 116 c 24
 207.026 132.608 186.967 115.873 166 118 c 24
 142.398 120.394 106.912 104.295 106 128 c 16
 103 206 106 284.16 106 384 c 24
 106 497.49 109 561 106 675 c 8
 105.469 695.19 137.02 681.05 157 684 c 24
 173.318 686.409 185.62 679.353 199 689 c 24
 210.887 697.571 209.554 709.395 215 723 c 24
 219.125 733.305 234.273 745.798 224 750 c 16
EndSplineSet
EndChar
StartChar: backslash
Encoding: 92 92 32
Width: 363
Flags: W
Fore
8.72754 648.471 m 8
 5.39941 658.676 25.1953 653.059 35.9238 652.709 c 24
 44.3418 652.435 53.6738 655.737 57 648 c 16
 77.2441 600.907 161.431 468.392 221.092 349.819 c 24
 275.807 241.075 321.166 143.703 351 66 c 8
 353.874 58.5156 338.972 62.0497 330.99 61.291 c 24
 317.8 60.0371 301.017 50.0625 297.045 62.7031 c 16
 275.736 130.517 225.632 232.687 173.886 338.518 c 24
 113.72 461.567 25.7754 596.197 8.72754 648.471 c 8
EndSplineSet
EndChar
StartChar: a
Encoding: 97 97 33
Width: 300
Flags: W
Back
Fore
107 88 m 0
 99.0527 114.492 103.781 109.896 103 124 c 24
 101.9 143.859 105 159 103 175 c 8
 100.776 192.789 120.778 197.53 136 207 c 24
 150.769 216.188 163.25 231.218 178 222 c 24
 189.979 214.514 181.628 200.121 182 186 c 24
 182.711 159.055 181 156 178 117 c 8
 176.779 101.133 159.779 98.8994 145 93 c 24
 131.117 87.458 113 68 107 88 c 0
113 348 m 0
 150 344 157.433 340.603 173 320 c 24
 180.383 310.229 182.38 300.437 178 289 c 24
 164.016 252.483 130.478 250.499 100 226 c 24
 70.8047 202.531 28.2451 203.317 25 166 c 16
 23 143 18.7373 91.2832 21 70 c 0
 23.5176 46.3223 22.2607 31.3789 27 14 c 8
 36.9541 -22.5029 85.6357 24.5499 121 38 c 24
 145.618 47.3633 157 56 181 69 c 8
 195.329 76.7617 187.482 43.8926 196 30 c 24
 204.228 16.5811 207.534 2.92896 223 0 c 24
 238.423 -2.9209 245.777 9.53981 259 18 c 24
 271.621 26.0752 283.968 27.8866 289 42 c 24
 294.626 57.7793 286.517 68.5674 280 84 c 24
 271.795 103.432 257.162 109.161 250 129 c 24
 242.41 150.024 245.062 163.673 244 186 c 24
 242.109 225.737 246.402 248.243 245 288 c 24
 243.801 322.019 252.489 344.198 238 375 c 24
 229.43 393.218 217.536 399.515 201 411 c 24
 187.531 420.354 179.396 429.273 163 429 c 24
 134.049 428.518 121.19 410.912 97 395 c 24
 66.2109 374.748 48.4321 362.589 24 335 c 24
 13.8867 323.579 1.91858 317.217 3 302 c 24
 4.27441 284.067 15.3447 263.608 33 267 c 24
 49.5928 270.188 36.4084 294.835 47 308 c 24
 65.8672 331.451 87.5357 350.753 113 348 c 0
EndSplineSet
EndChar
StartChar: b
Encoding: 98 98 34
Width: 301
Flags: W
VStem: 38 79<143 351> 216 72<175 305>
Fore
117 148 m 12
 117 117.279 125.219 86.542 155 79 c 28
 173.877 74.2197 187.748 88.8662 197 106 c 20
 224 156 216 198.872 216 259 c 20
 216 286 218 310 210 358 c 12
 206.857 376.854 179.18 364.903 161 359 c 28
 145.644 354.014 136.956 347.435 128 334 c 20
 116 316 117 224 117 148 c 12
8 773 m 12
 -2.88379 793.093 38.2188 752.91 60 746 c 28
 76.5078 740.763 86.792 738.042 104 740 c 28
 131.349 743.111 131 765 170 765 c 12
 191.63 765 155.029 734.656 146 715 c 28
 138.711 699.131 127.082 691.439 128 674 c 20
 131 617 125 484 128 427 c 12
 129.803 392.74 180.841 436.825 215 440 c 28
 235.984 441.95 262.076 461.904 269 442 c 20
 293 373 286.636 341.148 288 276 c 28
 289.474 205.633 295 158 275 96 c 12
 263.394 60.0195 240.792 45.4591 209 25 c 28
 183.072 8.31445 164.767 -2.00363 134 0 c 28
 104.584 1.91602 87.3209 12.6441 66 33 c 28
 47.6973 50.4746 33.3164 64.751 35 90 c 20
 41 180 36.5807 249.213 38 351 c 28
 38.9951 422.373 40.6938 462.621 41 534 c 28
 41.2139 583.921 47.176 612.597 40 662 c 28
 33.5234 706.585 47 701 8 773 c 12
EndSplineSet
EndChar
StartChar: c
Encoding: 99 99 35
Width: 299
Flags: W
VStem: 14 86<66 234> 18 82<184 257>
Back
Fore
103 0 m 13
 81.9404 12.0898 68.2832 16.2412 49 31 c 28
 33.6709 42.7324 14 46.6963 14 66 c 20
 14 132 17.0146 137.964 18 184 c 28
 18.9346 227.672 16 266 19 296 c 4
 23.8594 344.594 56.6221 349.297 88 376 c 28
 121.467 404.48 141.115 425.4 184 435 c 28
 194.339 437.314 201.32 436.307 211 432 c 28
 228.162 424.363 232.9 412.412 247 400 c 28
 262.146 386.667 250 396 286 366 c 12
 300.068 354.276 278.414 336.468 265 324 c 28
 249.245 309.355 235.481 301.889 214 303 c 28
 196.748 303.893 189.663 314.866 175 324 c 28
 157.914 334.643 184 330 133 354 c 4
 113.806 363.033 111.83 315.113 105 288 c 28
 99.833 267.49 100.355 255.147 100 234 c 28
 99.3311 194.157 97 160 106 132 c 12
 111.593 114.601 127.355 112.935 142 102 c 28
 148.761 96.9521 151.594 90.7148 160 90 c 28
 194.445 87.0693 254.856 157.671 241 126 c 20
 220 78 197.08 76.5898 169 45 c 21
 140.801 9.51855 133 21 103 0 c 13
EndSplineSet
EndChar
StartChar: d
Encoding: 100 100 36
Width: 428
Flags: W
HStem: 381 71<238.063 248.282>
Back
Fore
239 83 m 28
 259.877 81.9434 276.219 81.2188 291 96 c 28
 318.289 123.289 310.589 153.661 315 192 c 28
 320.617 240.824 317 270 313 318 c 12
 311.113 340.643 293.983 349.114 276 363 c 28
 262.741 373.238 253.716 382.096 237 381 c 28
 219.509 379.854 209.459 371.065 199 357 c 20
 170 318 183.138 275.063 179 222 c 28
 175.453 176.507 174 140 178 105 c 12
 180.871 79.874 213.742 84.2783 239 83 c 28
208 0 m 28
 157.315 0.681641 92.708 -8.09961 85 42 c 20
 79 81 81.895 126.167 82 180 c 28
 82.0889 225.645 85 243 85 297 c 12
 85 332.814 110.954 331.302 142 369 c 4
 156 386 130.666 377.965 122 380 c 28
 103.76 384.282 92.666 376.375 74 378 c 28
 35.8193 381.324 -38 382 -22 399 c 4
 20.3877 444.037 30.9186 443.104 65 471 c 28
 89.4619 491.022 65 504 128 522 c 12
 155.047 529.728 120.948 455.078 149 453 c 20
 230 447 203.289 451.746 238 452 c 28
 283.254 452.331 306 452 354 455 c 12
 373.637 456.228 389.725 442.4 393 423 c 20
 406 346 406.393 292.773 399 210 c 28
 394.428 158.804 400.962 123.464 372 81 c 28
 349.145 47.4883 321.682 41.3172 285 24 c 28
 256.556 10.5713 239.452 -0.423127 208 0 c 28
EndSplineSet
EndChar
StartChar: e
Encoding: 101 101 37
Width: 307
Flags: W
Back
Fore
111 194 m 20
 138 213 150.851 218.473 171 240 c 28
 191.179 261.559 214.28 273.498 213 303 c 28
 212.026 325.454 196 330 177 348 c 12
 151.505 372.153 95.3232 427.927 99 393 c 20
 105 336 94.1279 310.424 99 258 c 28
 101.35 232.714 90.2318 179.385 111 194 c 20
216 255 m 28
 182.169 212.014 153 192 123 150 c 12
 112.642 135.498 132.08 123.428 141 108 c 28
 146.856 97.8711 151.98 93.3604 159 84 c 21
 185.195 83.8812 197.902 96.8542 216 99 c 13
 241.74 114.21 294.899 164.972 282 138 c 20
 249 69 250.357 87.4753 222 63 c 28
 185.086 31.1387 162 18 114 0 c 12
 88.4482 -9.58203 74.5479 18.0421 54 36 c 28
 37.0771 50.79 19.1813 58.556 18 81 c 20
 15 138 15.585 159.68 15 210 c 28
 14.3877 262.646 15 303 15 345 c 12
 15 377.529 41.0091 390.176 66 411 c 28
 97.3574 437.128 118.185 459.123 159 459 c 28
 186.736 458.916 200.212 443.164 222 426 c 28
 251.31 402.911 282.946 391.255 285 354 c 28
 287.591 307.009 245.106 291.983 216 255 c 28
EndSplineSet
EndChar
StartChar: f
Encoding: 102 102 38
Width: 319
Flags: W
Back
Fore
138 12 m 24
 114.377 15.6611 104.498 28.7012 84 41 c 24
 59.8848 55.4697 48 54 24 81 c 8
 9.66699 97.124 42.9954 109.723 60 123 c 24
 74.4346 134.271 102 125.687 102 144 c 16
 102 207 102.033 222.725 100 273 c 24
 98.3105 314.785 99 314 93 380 c 8
 91.792 393.285 78.4854 396.302 66 401 c 24
 47.3525 408.017 23.4801 385.971 15 404 c 24
 5.7373 423.693 32.2705 433.959 48 449 c 24
 60.1953 460.662 75.4579 458.447 84 473 c 24
 99.0508 498.642 98.6374 520.55 90 549 c 24
 81.7725 576.102 24.9727 585.973 45 606 c 16
 78 639 95.719 657.166 129 689 c 24
 170.481 728.679 180 750 237 789 c 8
 256.239 802.164 275.7 785.442 294 771 c 24
 304.711 762.547 312.325 754.641 312 741 c 24
 311.699 728.348 302.697 723.194 294 714 c 24
 285.96 705.5 281.659 696.981 270 696 c 24
 255.573 694.787 249.584 705.843 237 713 c 24
 227.405 718.457 222.36 722.15 213 728 c 17
 186.998 730.417 195 708 171 693 c 9
 154.62 673.5 156 670 129 643 c 8
 119.624 633.624 120 651 129 609 c 8
 133.964 585.835 167.747 596.276 180 576 c 24
 186.684 564.939 181.926 555.878 183 543 c 24
 185.568 512.208 166.931 485.626 189 464 c 24
 204.065 449.237 221.937 462.112 243 461 c 24
 266.396 459.766 270 467 303 458 c 8
 327.419 451.34 270.06 436.04 249 422 c 24
 227.94 407.96 196.149 411.285 195 386 c 16
 192 320 193.389 324.383 192 285 c 24
 189.979 227.658 195 192 186 138 c 8
 182.73 118.381 161.498 112.884 162 93 c 24
 162.344 79.3604 168.847 70.8598 180 63 c 24
 189.753 56.127 205.434 68.0236 210 57 c 24
 216.457 41.4102 200.077 30.3049 186 21 c 24
 170.111 10.4971 156.821 9.08331 138 12 c 24
EndSplineSet
EndChar
StartChar: g
Encoding: 103 103 39
Width: 340
Flags: W
Back
Fore
196.215 71.0586 m 8
 201.744 64.6904 209.087 73.9404 217.317 75.7822 c 17
 214 148 214 184 217 234 c 9
 215.761 268.996 218.607 283.59 213.822 323.734 c 8
 212.078 338.368 218.617 347.835 213.141 361.518 c 24
 208.492 373.133 201.731 378.032 191.43 385.133 c 24
 178.472 394.065 169.619 401.532 153.947 400.088 c 24
 144.789 399.244 141.018 393.45 134.01 387.494 c 24
 126.508 381.118 117.761 378.436 117.263 368.603 c 16
 114.87 321.373 115.885 286.368 119.655 234 c 24
 121.789 204.37 119.233 186.409 129.226 158.434 c 24
 136.905 136.935 146.333 126.879 160.328 108.843 c 24
 172.787 92.7861 181.86 87.5889 196.215 71.0586 c 8
177.075 -75.3506 m 24
 188.622 -75.8623 194.525 -69.7998 204.19 -63.5439 c 24
 213.393 -57.5869 221.722 -55.0439 224.925 -44.6514 c 24
 229.207 -30.7607 221.681 -21.8975 216.152 -8.44238 c 24
 211.803 2.14453 211.637 12.2402 201 16.7461 c 24
 184.29 23.8242 179.468 6.5127 155.543 6.5127 c 8
 135.006 6.5127 115.069 -3.29004 112.478 -23.3984 c 24
 110.417 -39.3857 126.956 -44.6787 139.593 -54.8848 c 24
 152.521 -65.3271 160.386 -74.6104 177.075 -75.3506 c 24
102.907 -160.362 m 8
 83.3418 -166.042 75.4532 -143.651 60.6406 -129.663 c 24
 44.207 -114.145 25.9532 -107.311 23.9551 -84.7959 c 24
 22.0908 -63.793 39.9015 -55.9258 50.2725 -37.5674 c 24
 62.2783 -16.3145 81.9426 -7.65722 81.375 16.7461 c 24
 81.0107 32.3867 68.8473 37.7996 59.8428 50.5938 c 24
 49.3311 65.5283 30.3291 69.3438 31.1328 87.5889 c 16
 33.5254 141.903 29.8232 172.594 31.1328 226.915 c 24
 32.0664 265.63 26.3477 297.759 35.918 326.097 c 0
 50.1924 368.365 67.6037 365.379 90.9453 387.494 c 24
 128.306 422.892 160.328 448.892 193.822 470.145 c 1
 193.822 470.145 227.824 443.671 251.242 434.723 c 9
 271.158 431.039 282.057 425.602 302.308 425.276 c 24
 314.575 425.079 321.28 428.158 333.41 430 c 17
 330.199 396.939 307.833 408.753 299.093 394.578 c 9
 296.936 386.289 293.561 381.89 293.561 373.325 c 16
 293.561 328.457 294.756 299.857 295.737 252.891 c 24
 297.431 171.841 300.036 126.148 300.663 45.083 c 24
 300.955 7.32324 299.865 -11.5225 299.865 -51.7363 c 0
 299.865 -72.9893 290.136 -61.8193 283.915 -68.2656 c 17
 236.065 -87.1572 224.925 -98.9648 184.253 -119.431 c 9
 152.528 -135.394 143.58 -148.556 102.907 -160.362 c 8
EndSplineSet
EndChar
StartChar: h
Encoding: 104 104 40
Width: 338
Flags: W
Back
Fore
-25 783 m 8
 -48.6865 798.791 -22.4883 737.84 -13 711 c 24
 -2.69727 681.856 17.8252 671.811 26 642 c 24
 35.9033 605.885 26.96 583.434 28 546 c 16
 31 438 27 362 30 255 c 8
 32.7109 158.311 36 97 33 7 c 8
 32.4854 -8.44434 56.79 2.73047 72 0 c 17
 88.3799 4.45703 112.833 -9.2832 114 7 c 1
 120 91 115.252 119.861 117 192 c 24
 118.759 264.557 120 303 123 378 c 8
 124.001 403.02 150.246 409.082 174 417 c 16
 192 423 205.588 443.082 213 429 c 16
 243 372 233.707 360.315 237 315 c 24
 242.438 240.171 245.943 195.044 225 123 c 24
 199.272 34.501 158.549 -5.0498 111 -84 c 24
 87.8965 -122.362 69 -135 48 -180 c 8
 37.3418 -202.838 91.1406 -174.733 108 -156 c 16
 135 -126 153.423 -100.386 180 -63 c 24
 214.785 -14.0684 234.044 13.9717 264 66 c 16
 321 165 325.678 231.409 330 342 c 24
 332.637 409.465 330 435 303 513 c 8
 296.494 531.796 271.168 518.31 252 513 c 24
 225.701 505.716 216.036 489.921 192 477 c 24
 165.727 462.876 121.346 414.217 123 444 c 16
 126 498 119.683 531.887 122 588 c 24
 123.261 618.517 109.442 646.442 129 666 c 0
 153 690 149.521 698.705 162 720 c 24
 174.889 741.995 218.596 770.292 194 777 c 16
 172 783 154.933 768.329 133 756 c 24
 112.236 744.328 109.746 718.858 86 717 c 24
 35.7891 713.07 29 747 -25 783 c 8
EndSplineSet
EndChar
StartChar: i
Encoding: 105 105 41
Width: 218
Flags: W
VStem: 64 81<105 257 246 338>
Back
Fore
133 0 m 12
 115.682 0 110.825 15.5684 97 26 c 28
 70.8418 45.7373 46 60 31 78 c 12
 20.3545 90.7744 64 88.3711 64 105 c 20
 64 165 63.3291 191.014 64 246 c 28
 64.585 293.98 73 330 67 369 c 12
 65.835 376.573 55.6562 373.703 48 374 c 28
 34.9287 374.507 9.51855 356.123 15 368 c 20
 33 407 35.3633 399.143 54 413 c 28
 70.8105 425.499 82.3965 431.216 103 435 c 28
 122.597 438.599 137.695 443.452 154 432 c 28
 168.583 421.757 177.765 406.863 172 390 c 28
 168.104 378.602 145.602 387.031 145 375 c 20
 142 315 145 325.59 145 294 c 28
 145 226.14 148 186 145 120 c 12
 144.26 103.721 150.288 94.0859 160 81 c 28
 167.95 70.2881 182.986 72.7217 187 60 c 28
 191.788 44.8242 185.286 33.1426 175 21 c 28
 163.163 7.02637 160 0 133 0 c 12
EndSplineSet
EndChar
StartChar: j
Encoding: 106 106 42
Width: 203
Flags: W
VStem: 70 81<105 270 246 338>
Fore
16 -114 m 16
 44 -58 70 17.0322 70 105 c 16
 70 165 69.3295 191.014 70 246 c 24
 70.585 293.98 79 330 73 369 c 8
 70.9717 382.185 53.0098 362.951 40 360 c 24
 27.2432 357.106 1.51855 342.123 7 354 c 16
 25 393 28.0576 384.254 46 399 c 24
 67.8623 416.968 81.4482 428.543 109 435 c 24
 128.398 439.546 143.695 443.452 160 432 c 24
 174.583 421.757 183.765 406.863 178 390 c 24
 174.104 378.602 151.602 387.031 151 375 c 16
 148 315 151 325.59 151 294 c 24
 151 226.14 154 186 151 120 c 8
 149.628 89.8096 141.31 73.1337 128 46 c 24
 94.4561 -22.3848 -18.0635 -182.128 16 -114 c 16
EndSplineSet
EndChar
StartChar: k
Encoding: 107 107 43
Width: 382
Flags: W
Back
Fore
171 321 m 24
 187.974 303.198 210.87 309.631 234 318 c 24
 251.91 324.481 261.714 333.851 270 351 c 24
 277.144 365.786 270 378 273 393 c 8
 276.221 409.103 286.198 432.3 270 435 c 16
 252 438 235.135 418.111 213 407 c 24
 197.723 399.331 183.564 401.167 174 387 c 24
 166.769 376.289 171.586 366.91 171 354 c 24
 170.417 341.144 162.118 330.314 171 321 c 24
101 0 m 24
 76.7344 13.3545 76.9369 36.0637 63 60 c 24
 46.3203 88.6475 18.1208 102.211 23 135 c 24
 24.9482 148.093 35.9491 151.713 47 159 c 24
 57.5205 165.937 69.5399 160.844 77 171 c 24
 86.0312 183.295 82.1831 194.902 80 210 c 24
 78.7461 218.674 79.7003 226.815 72 231 c 24
 57.2812 239 44.5459 213.691 30 222 c 24
 17.1494 229.341 11.3455 244.781 18 258 c 24
 28.1484 278.159 68.3164 253.922 73 276 c 16
 87 342 80.0772 361.932 82 417 c 24
 84.2451 481.312 85.0355 517.681 83 582 c 24
 82.1094 610.134 89.4099 628.268 78 654 c 24
 66.8193 679.215 27.3506 677.467 29 705 c 24
 29.9941 721.599 47.8153 723.321 62 732 c 24
 79.4297 742.664 89.6455 754.792 110 753 c 24
 122.606 751.891 126.951 742.693 137 735 c 24
 146.875 727.439 148.69 715.775 161 714 c 24
 177.58 711.609 184.529 725.576 200 732 c 24
 231.111 744.918 247.491 758.539 281 762 c 24
 304.537 764.431 322.391 767.613 341 753 c 24
 362.873 735.824 356 714 368 687 c 8
 380.327 659.264 354.512 638.358 332 618 c 24
 322.653 609.548 312.485 599.01 302 606 c 16
 284 618 293.964 640.162 284 660 c 24
 274.822 678.272 274.121 699.355 254 703 c 24
 233.03 706.799 224.087 687.052 209 672 c 24
 195.904 658.935 188.048 650.482 182 633 c 24
 169.354 596.444 173.065 572.569 176 534 c 24
 179.088 493.423 164.886 408.347 198 432 c 16
 240 462 243.864 453.725 273 468 c 24
 291.795 477.209 291 477 321 492 c 0
 376.252 519.626 346.704 459.629 354 435 c 24
 362.652 405.795 358 390 358 357 c 8
 358 343.484 344.137 340.659 333 333 c 24
 314.888 320.544 309 321 282 309 c 8
 268.775 303.122 279.593 281.906 291 273 c 24
 305.755 261.479 331.539 290.169 339 273 c 24
 348.567 250.982 315.874 242.835 297 228 c 24
 280.113 214.728 270.472 201.523 249 201 c 24
 233.308 200.617 227.571 213.162 213 219 c 24
 198.228 224.919 177.452 246.535 174 231 c 16
 168 204 168.719 200.003 167 180 c 24
 165.096 157.838 163.298 145.179 165 123 c 24
 166.275 106.374 157.755 87.7536 173 81 c 24
 195.566 71.0029 204.619 103.596 227 114 c 24
 233.71 117.119 246.451 127.256 245 120 c 16
 236 75 225.139 74.0596 207 48 c 24
 192.642 27.3721 186.947 10.2516 164 0 c 24
 141.566 -10.0215 122.525 -11.8466 101 0 c 24
EndSplineSet
EndChar
StartChar: l
Encoding: 108 108 44
Width: 196
Flags: W
Back
Fore
90 0 m 24
 71.3115 2.57812 64.1925 14.3185 48 24 c 24
 29.0527 35.3281 0.575305 31.9316 0 54 c 24
 -0.37207 68.2764 19.1241 65.7441 30 75 c 24
 44.9121 87.6914 63.459 91.4795 65 111 c 16
 74 225 67.415 283.016 68 393 c 24
 68.5664 499.469 70 555 68 666 c 8
 67.6165 687.287 79.2469 710.9 60 720 c 24
 53.832 722.916 51.6319 712.601 45 711 c 24
 27.9023 706.871 -12.4375 701.562 0 714 c 16
 24 738 14.4326 740.425 30 750 c 24
 69.8877 774.534 101.243 786.966 147 777 c 24
 165.75 772.916 177.523 764.216 186 747 c 24
 192.719 733.354 189.337 722.84 186 708 c 24
 180.604 684.001 169.53 673.23 159 651 c 17
 153 540 168 474 155 363 c 9
 153.05 257.7 150 189 150 93 c 8
 150 73.7041 165.68 63.9415 162 45 c 24
 158.965 29.3789 151.192 20.8997 138 12 c 24
 122.004 1.20898 109.115 -2.63692 90 0 c 24
EndSplineSet
EndChar
StartChar: m
Encoding: 109 109 45
Width: 569
Flags: W
VStem: 422 88<139 305>
Back
Fore
81 0 m 24
 61.6348 0.234375 51.5296 9.42812 36 21 c 24
 24.7031 29.418 12.1788 33.9121 12 48 c 24
 11.708 70.9688 41.4849 71.6662 50 93 c 24
 67.3779 136.539 54.4111 166.192 57 213 c 24
 60.2998 272.66 59 303 65 366 c 8
 67 386.997 17.6274 348.976 11 369 c 24
 2.38672 395.025 41.581 399.75 65 414 c 24
 85.6055 426.538 98.0743 441.059 122 438 c 24
 146.837 434.824 148.362 403.466 173 399 c 24
 199.465 394.203 213.429 410.665 239 419 c 24
 263.744 427.065 276.061 443.124 302 441 c 24
 316.611 439.804 323.262 431.783 335 423 c 24
 342.949 417.053 343.546 408.03 353 405 c 24
 380.109 396.312 398.4 406.859 425 417 c 24
 449.567 426.366 458.064 442.12 482 453 c 16
 515 468 518 420 536 393 c 8
 545.582 378.627 517.396 371.108 515 354 c 16
 508 304 510.377 271.685 510 219 c 24
 509.632 167.508 500.601 136.979 513 87 c 24
 517.41 69.2256 525 72 534 45 c 8
 538.517 31.4512 515.937 31.8408 504 24 c 24
 489.073 14.1953 482.845 -0.723945 465 0 c 24
 443.255 0.881836 436.049 18.3014 420 33 c 24
 404.308 47.3721 382.495 52.7744 384 74 c 24
 385.018 88.3467 405.484 85.1777 412 98 c 24
 432.38 138.106 419.097 168.053 421 213 c 24
 423.524 272.618 422 300 422 366 c 8
 422 381.609 398.385 377.64 383 375 c 24
 367.965 372.42 352.729 369.009 350 354 c 16
 344 321 341.019 284.604 338 240 c 24
 333.652 175.768 330 132 333 75 c 8
 333.701 61.6787 360 78 360 54 c 8
 360 32.2363 332.69 33.6758 315 21 c 24
 303.391 12.6816 299.176 1.73486 285 0 c 24
 268.824 -1.97949 260.134 6.88916 246 15 c 24
 226.507 26.1855 200.026 28.5459 201 51 c 24
 201.914 72.0723 228.45 69.2998 246 81 c 17
 246 81 255.115 177.075 255 234 c 9
 255.78 281.97 257 294 257 357 c 8
 257 373.44 234.439 372.898 218 373 c 24
 197.867 373.125 178.262 372.36 170 354 c 16
 152 314 147 272 146 213 c 8
 145.127 161.504 144.286 132.186 150 81 c 24
 151.587 66.7852 161.703 58.5078 157 45 c 24
 152.271 31.417 141.182 28.6462 129 21 c 24
 111.693 10.1377 101.432 -0.247406 81 0 c 24
EndSplineSet
EndChar
StartChar: n
Encoding: 110 110 46
Width: 398
Flags: W
VStem: 242 83<97.5271 257 234 321>
Fore
376 375 m 12
 386.939 358.591 333.4 373.426 330 354 c 20
 323 314 325.706 284.497 325 240 c 28
 323.979 175.653 324 132 327 75 c 12
 327.701 61.6787 354 78 354 54 c 12
 354 32.2363 326.69 33.6758 309 21 c 28
 297.391 12.6816 293.176 1.73486 279 0 c 28
 262.824 -1.97949 254.134 6.88916 240 15 c 28
 220.507 26.1855 194.026 28.5459 195 51 c 28
 195.914 72.0723 222.45 69.2998 240 81 c 21
 240 81 242.115 177.075 242 234 c 13
 243.17 281.97 245 294 245 357 c 12
 245 373.23 227.21 380.17 211 381 c 28
 189.55 382.098 174.233 372.307 163 354 c 20
 136 310 148.483 268.333 146 213 c 28
 143.691 161.548 147.08 132.421 150 81 c 28
 150.799 66.9336 157.846 58.2294 153 45 c 28
 148.447 32.5703 139.933 28.4623 129 21 c 28
 112.123 9.48145 101.432 -0.247406 81 0 c 28
 61.6348 0.234375 51.5296 9.42812 36 21 c 28
 24.7031 29.418 12.1788 33.9121 12 48 c 28
 11.708 70.9688 41.6626 71.5965 50 93 c 28
 67.002 136.646 53.5658 166.182 55 213 c 28
 56.8271 272.653 52 303 58 366 c 12
 60 386.997 10.6274 348.976 4 369 c 28
 -4.61328 395.025 34.581 399.75 58 414 c 28
 78.6055 426.538 91.0743 441.059 115 438 c 28
 139.837 434.824 141.362 403.466 166 399 c 28
 192.465 394.203 206.429 410.665 232 419 c 28
 256.744 427.065 269.393 445.644 295 441 c 28
 312.982 437.739 316.844 422.559 331 411 c 28
 348.409 396.785 358 402 376 375 c 12
EndSplineSet
EndChar
StartChar: o
Encoding: 111 111 47
Width: 340
Flags: W
VStem: 20.0684 83.7373<164 256> 248 76.308<95 242.608>
Fore
170 347 m 0
 140.766 343.627 132.209 330.613 113 305 c 0
 98 285 102.672 236.255 101.806 191.964 c 24
 101.499 176.299 102 171 104.198 151.86 c 8
 107.576 122.441 129.728 109.059 156.833 97.1357 c 24
 188.674 83.1299 246 60.2148 246 95 c 16
 246 202 254.999 311.334 221 334 c 0
 200 348 222 353 170 347 c 0
140.506 419.38 m 0
 183 452 215.151 432.741 259.711 419.483 c 24
 282.152 412.807 306.902 409.835 309.953 386.621 c 16
 317.131 332 318.691 301.319 321.131 246.586 c 24
 323.294 198.069 321.849 170.629 322.308 122.067 c 17
 307.576 54.7471 286.278 65.5498 254.926 46.583 c 9
 208.272 34.3857 183.328 10.9811 135.301 15.3076 c 24
 105.577 17.9854 90.6807 30.9248 65.918 47.583 c 24
 49.0049 58.9609 36.8315 64.9768 27.6377 83.1699 c 24
 12.8389 112.455 18.7969 133.953 18.0684 166.757 c 24
 16.877 220.425 15 254 27.6377 304.068 c 8
 43.0386 365.084 68.4453 364.062 140.506 419.38 c 0
EndSplineSet
EndChar
StartChar: p
Encoding: 112 112 48
Width: 504
Flags: W
VStem: 93 85<93 212>
Back
Fore
178 93 m 12
 178 58.5889 228.109 71.9576 262 66 c 28
 293.135 60.5273 315.655 47.1384 343 63 c 28
 366.992 76.917 368.493 99.2987 376 126 c 28
 390.491 177.547 393.233 210.092 385 263 c 28
 379.588 297.779 367.741 315.519 352 347 c 20
 346 359 336.951 383.854 316 389 c 28
 297.644 393.508 287.478 380.261 271 371 c 28
 250.601 359.536 241.974 348.696 223 335 c 28
 209.141 324.995 192.248 326.268 187 310 c 20
 177 279 176.912 254.134 175 218 c 28
 172.424 169.304 178 126 178 93 c 12
36 -195 m 28
 23.5166 -172.46 67.926 -167.716 78 -144 c 28
 91.3525 -112.565 86.9936 -91.1387 88 -57 c 28
 89.0361 -21.8613 91 0 83 33 c 12
 78.9473 49.7158 46.259 39.8018 46 57 c 28
 45.7217 75.4971 75.9072 67.8896 85 84 c 28
 109.585 127.559 91.8778 161.995 93 212 c 28
 93.998 256.456 97 281 91 326 c 12
 88.3916 345.56 61.9305 315.569 43 310 c 28
 26.3936 305.115 -9.60156 284.598 0 299 c 20
 18 326 28.8732 335.113 52 353 c 28
 85.9795 379.28 106.445 396.115 148 407 c 28
 160.072 410.162 170.968 415.612 180 407 c 28
 185.934 401.342 180.397 394.177 181 386 c 28
 181.865 374.273 173.678 350.369 184 356 c 20
 217 374 233.629 390.045 268 407 c 28
 308.53 426.993 331.109 454.217 376 449 c 28
 398.565 446.378 408.052 432.178 424 416 c 28
 453.615 385.958 471.775 366.375 484 326 c 28
 495.866 286.807 490.476 261.435 484 221 c 28
 474.521 161.816 459.941 129.949 436 75 c 28
 420.521 39.4736 421.37 7.70106 388 -12 c 28
 362.812 -26.8701 342.21 -13.5331 313 -12 c 28
 268.355 -9.65723 243.645 -2.34324 199 0 c 28
 187.705 0.592773 178.529 7.42664 170 0 c 28
 159.31 -9.30859 165.977 -21.8594 165 -36 c 28
 163.871 -52.3408 155.057 -64.9826 165 -78 c 28
 173.098 -88.6016 186.85 -79.6764 198 -87 c 28
 210.523 -95.2256 218.672 -102.391 222 -117 c 28
 225.467 -132.22 225.216 -146.282 213 -156 c 28
 199.266 -166.926 185.512 -154.838 168 -156 c 28
 150.334 -157.173 138.277 -153.05 123 -162 c 28
 112.904 -167.914 115.103 -180.101 105 -186 c 28
 81.5645 -199.684 49.1483 -218.74 36 -195 c 28
EndSplineSet
EndChar
StartChar: q
Encoding: 113 113 49
Width: 337
Flags: W
Back
Fore
201 105 m 8
 199.995 84.8955 179.101 76.0728 159 75 c 24
 141.562 74.0693 134.007 86.57 120 97 c 24
 108.275 105.73 91.8789 108.425 93 123 c 16
 96 162 82.7993 188.211 85 230 c 24
 87.752 282.252 82 309 109 362 c 8
 113.568 370.968 121.605 371.447 130 377 c 24
 136.861 381.539 139.773 388.029 148 388 c 24
 161.312 387.954 166.971 378.752 177 370 c 24
 188.062 360.348 197.853 355.34 201 341 c 16
 210 300 199.044 273.297 199 230 c 24
 198.951 181.244 204 165 201 105 c 8
307 405 m 16
 277 399 267.515 386.88 244 395 c 24
 229.914 399.864 228.154 412.093 218 423 c 24
 207.095 434.714 203.316 461.878 190 453 c 16
 157 431 141.814 420.909 112 399 c 24
 81.3223 376.456 55.2052 371.266 35 339 c 24
 6.2168 293.036 15.0977 259.861 6 203 c 0
 -2 153 12 117 0 84 c 8
 -7.63867 62.9932 23.8577 58.058 42 45 c 24
 65.7969 27.8721 78.6992 10.0658 108 9 c 24
 122.128 8.48633 127.725 19.1387 141 24 c 24
 158.506 30.4102 188.768 55.5586 187 37 c 16
 181 -26 175.734 -43.9151 173 -96 c 24
 171.099 -132.22 164 -174 173 -189 c 8
 178.107 -197.513 182.611 -176.309 191 -171 c 24
 205.697 -161.699 230.701 -173.24 233 -156 c 16
 239 -111 235.564 -91.873 239 -51 c 24
 242.846 -5.25098 230.075 25.6621 252 66 c 24
 259.941 80.6104 286.843 76.4736 285 93 c 24
 283.551 106 253.271 95.0342 255 108 c 16
 261 153 251.159 188.139 256 239 c 24
 260.284 284.005 259.345 311.382 277 353 c 24
 280.931 362.266 286.864 365.344 292 374 c 24
 298.853 385.551 320.17 407.634 307 405 c 16
EndSplineSet
EndChar
StartChar: r
Encoding: 114 114 50
Width: 324
Flags: W
VStem: 39 90<12 156>
Back
Fore
39 12 m 16
 39 36 39.645 70.5596 40 108 c 24
 40.4326 153.63 40.2201 179.375 41 225 c 24
 41.7803 270.639 44 288 44 342 c 8
 44 366.18 -37.5557 327.778 -18 342 c 16
 15 366 14.0421 364.286 36 376 c 24
 63.1113 390.464 77.3916 410.719 108 408 c 24
 122.546 406.708 124.468 388.435 139 387 c 24
 163.003 384.629 173.523 402.252 196 411 c 24
 227.269 423.17 243.472 438.699 277 440 c 24
 290.33 440.518 302.36 441.936 310 431 c 24
 320.536 415.92 308.733 402.192 306 384 c 24
 302.442 360.323 305.773 344.252 293 324 c 24
 284.844 311.067 277.281 299.481 262 300 c 24
 247.92 300.478 241.226 311.362 235 324 c 24
 227.743 338.731 235.504 349.956 232 366 c 24
 229.867 375.767 232 327 223 390 c 8
 221.063 403.557 201.731 385.066 190 378 c 24
 171.078 366.604 149.762 362.019 148 340 c 16
 142 265 137.389 271.89 134 228 c 24
 128.954 162.646 128 118 129 60 c 8
 129.335 40.5732 159.372 63.4773 178 69 c 24
 207.165 77.6465 232.714 124.031 250 99 c 24
 266.461 75.1641 222.642 61.739 199 45 c 24
 170.786 25.0244 151.946 15.5333 118 9 c 24
 87.7236 3.17285 39 -18.832 39 12 c 16
EndSplineSet
EndChar
StartChar: s
Encoding: 115 115 51
Width: 319
Flags: W
Back
Fore
90 12 m 28
 73.2861 13.1299 65.1277 20.9977 51 30 c 28
 34.1973 40.707 12.828 43.0928 12 63 c 28
 11.4502 76.2256 27.3271 77.0001 36 87 c 28
 42.3887 94.3652 41.4776 104.904 51 107 c 28
 67.8711 110.714 75.0624 94.6775 90 86 c 28
 99.5439 80.4561 103.201 73.2831 114 71 c 28
 130.188 67.5771 142.617 67.2706 156 77 c 28
 173.211 89.5127 175.773 105.145 180 126 c 28
 184.189 146.672 191.617 164.794 177 180 c 28
 159.896 197.793 138.418 182.405 114 186 c 28
 90.3906 189.476 61.5459 175.361 54 198 c 20
 45 225 48.3859 240.443 42 267 c 28
 36.751 288.829 30 298 25 322 c 12
 19.6426 347.717 51.3972 353.501 69 373 c 28
 81.9404 387.335 93.6217 392.118 103 409 c 28
 106.721 415.698 103.401 421.872 108 428 c 28
 121.65 446.188 139.078 470.614 158 458 c 20
 194 434 197.363 426.102 221 404 c 28
 241.748 384.599 245.809 362.998 272 352 c 28
 287.103 345.658 302 352 314 352 c 12
 334.802 352 303.623 318.506 287 306 c 28
 271.883 294.627 258.553 290.302 240 294 c 28
 211.314 299.718 201.4 319.06 180 339 c 28
 163.009 354.832 163.855 379.872 141 384 c 28
 131.382 385.737 125.453 379.34 119 372 c 28
 114.026 366.343 113.095 361.452 112 354 c 28
 108.418 329.614 113.46 315.392 117 291 c 28
 118.89 277.98 124 273 124 258 c 12
 124 245.496 143.52 256.78 156 256 c 21
 156 256 187.348 257.082 204 253 c 13
 225.45 244.42 246.471 250.409 259 231 c 28
 283.136 193.611 262.862 160.611 254 117 c 28
 248.446 89.6689 235 77 229 50 c 12
 222.29 19.8057 181.813 39.2396 152 31 c 28
 127.624 24.2627 115.232 10.2937 90 12 c 28
EndSplineSet
EndChar
StartChar: t
Encoding: 116 116 52
Width: 261
Flags: W
Back
Fore
250 138 m 16
 217 87 228.526 89.2121 203 69 c 24
 162.06 36.583 120 27 78 21 c 8
 58.8281 18.2607 57 46.6328 57 66 c 16
 57 123 57 148.35 57 201 c 24
 57 261.84 54 312 57 357 c 8
 58.5107 379.667 5.67377 347.003 0 369 c 24
 -8.49414 401.933 44.7434 399.45 66 426 c 24
 81.4854 445.341 66 440 96 482 c 8
 107.054 497.476 135.509 512.48 143 495 c 16
 152 474 133.109 449.578 150 431 c 24
 157.77 422.454 168.173 429.021 179 425 c 24
 194.057 419.409 213.366 420.978 215 405 c 24
 216.885 386.568 193.756 385.205 179 374 c 24
 168.921 366.347 162.53 363.02 152 356 c 16
 122 336 136.404 282.035 134 234 c 24
 131.482 183.698 131 132 140 105 c 8
 147.628 82.1172 176.924 112.981 200 120 c 24
 219.828 126.031 261.259 155.4 250 138 c 16
EndSplineSet
EndChar
StartChar: u
Encoding: 117 117 53
Width: 341
Flags: W
VStem: 79 67<158.614 237 237.063 239.937 237 317> 247 62<147.618 174 174.063 191.968 222.287 314.964 315.031 334>
Back
Fore
132 12 m 28
 109.191 15.5049 100.061 28.9922 81 42 c 28
 63.7939 53.7422 43.1154 54.5791 39 75 c 28
 36.6201 86.8086 47.5637 91.8172 54 102 c 28
 59.3779 110.508 65.5226 113.555 69 123 c 28
 84.8223 165.977 77.7745 194.22 79 240 c 28
 80.3154 289.147 84 306 75 366 c 12
 73.2559 377.628 56.4394 371.721 45 369 c 28
 30.1592 365.47 6.33398 333.836 12 348 c 20
 24 378 27.6882 372.893 40 387 c 28
 53.4229 402.381 59.7234 413.905 78 423 c 28
 90.7432 429.342 100.147 432.27 114 429 c 28
 129.488 425.344 147.662 420.9 147 405 c 20
 144 333 146.195 302.521 146 237 c 28
 145.857 189.03 146 153 146 114 c 12
 146 93.7764 166.188 85.0549 186 81 c 28
 206.312 76.8428 228.757 76.9766 237 96 c 20
 250 126 243.134 154.477 245 192 c 28
 247.384 239.917 248.708 267.054 247 315 c 28
 246.205 337.301 254 349 242 372 c 12
 233.989 387.354 194.243 349.094 198 366 c 20
 204 393 211.743 392.641 225 406 c 28
 241.992 423.123 251.934 439.339 276 441 c 28
 289.05 441.9 306 439.081 306 426 c 20
 306 372 307.496 369.274 308 333 c 28
 308.861 270.995 308.805 236.011 309 174 c 28
 309.118 136.561 301.92 114.765 309 78 c 28
 311.383 65.626 323.534 60.3437 321 48 c 28
 318.339 35.0332 308.891 29.8155 297 24 c 28
 280.053 15.7109 267.681 15.3624 249 18 c 28
 231.354 20.4912 224.82 35.91 207 36 c 28
 191.79 36.0771 185.481 25.6515 171 21 c 28
 156.138 16.2266 147.429 9.62929 132 12 c 28
EndSplineSet
EndChar
StartChar: v
Encoding: 118 118 54
Width: 436
Flags: W
Back
Fore
0 324 m 8
 -25.8623 285.206 80.0686 319.976 114 288 c 24
 144.994 258.792 146.41 228.076 153 186 c 24
 162.972 122.33 132 81 144 21 c 8
 146.271 9.64258 153.728 2.66107 165 0 c 24
 179.403 -3.40039 188.09 4.76466 201 12 c 24
 251.704 40.417 275.147 65.6897 315 108 c 24
 362.01 157.909 398.731 183.82 420 249 c 24
 433.066 289.044 431.016 316.629 419 357 c 24
 412.396 379.189 406.891 395.154 387 407 c 24
 354.747 426.208 345 426 291 414 c 8
 251.7 405.267 338.211 368.174 351 330 c 24
 365.129 287.828 367.196 258.473 354 216 c 24
 344.557 185.605 329.11 171.884 306 150 c 24
 288.798 133.711 276.154 106.333 255 117 c 24
 221.504 133.89 254.775 175.935 249 213 c 24
 240.642 266.646 250.149 306.618 215 348 c 24
 192.158 374.893 166.797 378.162 132 384 c 24
 101.911 389.049 81.7188 390.749 54 378 c 24
 26.9414 365.555 18 351 0 324 c 8
EndSplineSet
EndChar
StartChar: w
Encoding: 119 119 55
Width: 568
Flags: W
VStem: 72 78<109 255> 276 70<210 349>
Back
Fore
480 33 m 8
 502.782 42.4932 505.545 63.4716 513 87 c 24
 529.291 138.415 518.982 171.15 522 225 c 24
 524.796 274.896 518 306 528 353 c 8
 532.189 372.688 522 354 558 395 c 8
 566.35 404.51 558 407 540 422 c 8
 528.178 431.852 516.147 430.713 501 428 c 24
 477.285 423.753 466.233 412.508 447 398 c 24
 433.79 388.036 438 389 417 368 c 8
 407.567 358.567 449.289 372.321 450 359 c 16
 454 284 453.006 268.106 452 210 c 24
 451.297 169.399 454 146 447 106 c 8
 443.242 84.5244 426.531 60.667 406 68 c 16
 378 78 339.068 81.5137 343 111 c 16
 349 156 345.102 182.364 346 228 c 24
 347.12 284.935 344 320 348 374 c 8
 349.551 394.931 396.593 397.21 384 414 c 16
 372 430 358.381 428.201 341 435 c 24
 329.624 439.45 323.152 445.242 311 444 c 24
 288.953 441.747 277.107 432.222 261 417 c 24
 248.02 404.733 230.898 394.784 237 378 c 24
 242.478 362.932 275.199 381.013 276 365 c 16
 279 305 277.159 292.396 276 246 c 24
 274.83 199.156 274 177 270 126 c 8
 268.113 101.95 241.17 100.511 219 91 c 24
 206.909 85.8135 198.692 80.5356 186 84 c 24
 167.626 89.0156 150 97.9541 150 117 c 16
 150 168 150.651 210.365 153 270 c 24
 155.338 329.338 159 344 162 422 c 8
 162.938 446.412 126.226 443.158 102 440 c 24
 76.1328 436.629 64.6485 422.159 45 405 c 24
 32.4746 394.062 36 399 18 372 c 8
 6.89062 355.336 64.1426 385.43 69 366 c 16
 81 318 72.2806 298.305 72 255 c 24
 71.6211 196.454 66 159 66 105 c 8
 66 95.5674 51.7774 99.5605 45 93 c 24
 32.168 80.5781 18.4962 71.6826 21 54 c 24
 23.4385 36.7783 39.536 33.6599 54 24 c 24
 72.2803 11.791 83.0303 0.734665 105 0 c 24
 133.881 -0.96582 147.13 16.369 174 27 c 24
 197.435 36.2715 208.858 52.7456 234 51 c 24
 252.82 49.6934 259.72 36.5337 276 27 c 24
 293.661 16.6572 300.821 3.41997 321 0 c 24
 383.441 -10.583 420 8 480 33 c 8
EndSplineSet
EndChar
StartChar: x
Encoding: 120 120 56
Width: 404
Flags: W
VStem: 122 100<128 210>
Back
Fore
8 -188 m 16
 28 -152 44.1457 -124.978 66 -84 c 24
 87.833 -43.0625 108.746 -23.0097 120 22 c 24
 130.029 62.1123 122.801 86.6601 122 128 c 24
 121.213 168.62 118.092 191.427 116 232 c 24
 115.115 249.155 119.982 259.897 114 276 c 24
 109.164 289.019 102.983 295.5 92 304 c 24
 81.2275 312.337 53.4766 306.041 60 318 c 16
 72 340 70.3064 349.712 86 362 c 24
 105.235 377.061 121.66 382.101 146 380 c 24
 163.377 378.5 169.81 366.487 186 360 c 24
 195.848 356.055 201.73 349.338 212 352 c 24
 238.166 358.783 239.088 384.871 260 402 c 24
 283.603 421.333 296.707 435.47 326 444 c 24
 339.48 447.926 349.684 450.74 362 444 c 24
 382.31 432.886 391.982 417.063 394 394 c 24
 395.768 373.797 386.997 361.568 374 346 c 24
 363.878 333.876 355.784 324.564 340 324 c 24
 322.207 323.364 314.849 336.178 300 346 c 24
 288.417 353.662 285.887 368.093 272 368 c 24
 258.966 367.912 254.786 356.628 246 347 c 24
 237.47 337.651 230.898 332.319 228 320 c 16
 220 286 222.06 252.964 222 210 c 24
 221.937 164.699 208.653 134.962 228 94 c 24
 238.375 72.0342 254.203 66.0793 274 52 c 24
 291.35 39.6611 309.742 43.4074 322 26 c 24
 327.906 17.6113 329.997 9.44833 326 0 c 24
 318.917 -16.7432 304.279 -18.9065 288 -27 c 24
 268.229 -36.8291 256.027 -45.5155 234 -44 c 24
 217.64 -42.874 211.073 -32.4579 196 -26 c 24
 186.014 -21.7217 180.455 -13.0457 170 -16 c 24
 137.872 -25.0781 136.564 -56.252 118 -84 c 24
 99.4404 -111.743 93 -132 75 -158 c 8
 58.7041 -181.539 -5.9043 -213.027 8 -188 c 16
EndSplineSet
EndChar
StartChar: y
Encoding: 121 121 57
Width: 412
Flags: W
Back
Fore
-80 -184 m 24
 -86.8652 -175.508 -86.8213 -164.527 -80 -156 c 16
 -40 -106 -16.3194 -105.864 16 -66 c 24
 34.9551 -42.6201 46.0238 -28.3966 56 0 c 24
 75.8184 56.4111 72.39 92.3183 76 152 c 24
 80.71 229.861 79 277 74 352 c 8
 73.3232 362.147 58.0899 352.725 48 354 c 24
 34.6416 355.688 16.9126 346.854 14 360 c 24
 9.88086 378.592 36.6603 380.131 54 388 c 24
 101.546 409.578 178.534 471.927 184 420 c 16
 188 382 185.908 352.907 186 310 c 24
 186.12 253.835 185.665 222.141 184 166 c 24
 182.981 131.66 180 112.355 180 78 c 16
 180 52 221.492 113.522 244 140 c 24
 272.309 173.302 291.699 191.446 308 232 c 24
 319.191 259.842 321.326 278.022 320 308 c 24
 318.863 333.703 323.541 355.264 304 372 c 24
 297.457 377.604 290.537 372.838 282 374 c 24
 273.359 375.176 263.507 370.016 260 378 c 24
 252.952 394.049 271.507 403.705 284 416 c 24
 304.833 436.502 318.812 453.45 348 455 c 24
 363.505 455.823 374.661 450.404 384 438 c 24
 403.013 412.748 394.457 389.507 397 358 c 24
 399.26 330.011 398 313 397 286 c 8
 396.231 265.256 384.792 255.537 374 238 c 0
 342 186 308.598 134.876 260 74 c 24
 244.844 55.0146 236.599 43.6272 218 28 c 24
 202.427 14.916 193.528 5.68665 174 0 c 24
 162.767 -3.27148 154.635 4.87666 144 0 c 24
 110.316 -15.4453 106.795 -44.4608 82 -72 c 24
 57.6318 -99.0654 42.0896 -112.687 18 -140 c 24
 2.60742 -157.451 0.394592 -174.796 -20 -186 c 24
 -31.0234 -192.056 -39.4346 -190.545 -52 -190 c 24
 -63.1572 -189.516 -72.979 -192.685 -80 -184 c 24
EndSplineSet
EndChar
StartChar: z
Encoding: 122 122 58
Width: 262
Flags: W
Back
Fore
8 364 m 16
 16 388 34.2588 397.469 54 416 c 24
 66.9678 428.174 72.9667 438.877 90 444 c 24
 99.7393 446.929 105.882 443.021 116 442 c 24
 128.514 440.737 136.653 443.427 148 438 c 24
 176.365 424.434 184.722 405.149 206 382 c 24
 224.385 362 250.477 355.162 250 328 c 24
 249.709 311.42 233.329 308.109 222 296 c 24
 203.913 276.667 188 270 174 248 c 8
 160.593 226.932 211.77 229.772 224 208 c 24
 239.02 181.261 237.409 160.478 234 130 c 24
 229.199 87.085 218.405 62.9159 196 26 c 24
 176.809 -5.62207 161.192 -21.2821 132 -44 c 24
 103.358 -66.29 29.0703 -117.65 50 -88 c 16
 74 -54 84.4726 -34.5175 106 0 c 24
 123.414 27.9229 143.355 39.7695 150 72 c 24
 155.568 99.0088 151.958 117.15 140 142 c 24
 132.104 158.408 122.506 164.993 108 176 c 24
 93.2695 187.178 55.1239 183.045 66 198 c 16
 82 220 88.3907 233.745 106 254 c 24
 120.117 270.238 142.871 270.712 146 292 c 24
 149.658 316.887 130.064 328.644 114 348 c 24
 100.925 363.755 94.1006 378.106 74 382 c 24
 64.3135 383.877 59.4882 376.705 50 374 c 24
 33.8076 369.383 2.67578 348.026 8 364 c 16
EndSplineSet
EndChar
StartChar: braceleft
Encoding: 123 123 93
Width: 253
Flags: W
VStem: 104.357 59.7432<187 270 510 541>
Fore
243 750 m 16
 221 759 212.797 758.922 195 753 c 24
 162.448 742.167 131.037 730.172 128 696 c 16
 120.202 608.274 104.284 584.589 104.517 510 c 0
 104.643 469.805 61 429 7 378 c 0
 -18.6992 353.729 104.598 303.136 104.357 264 c 0
 103.718 159.335 108.722 93.373 116 81 c 8
 127.551 61.3643 131.2 44.2909 152 35 c 24
 173.413 25.4355 192.539 25.913 212 39 c 24
 226.04 48.4414 225.511 61.9961 231 78 c 24
 235.914 92.3252 248.323 104.065 239 116 c 24
 226.026 132.608 205.418 112.779 185 118 c 24
 176.551 120.16 165.335 119.286 165 128 c 16
 163.237 173.823 163.546 219.702 164.101 270 c 0
 164.489 305.317 37.0576 355.721 67 384 c 0
 121 435 165.548 471.901 165.941 510 c 0
 166.469 561.02 166.718 609.736 165 675 c 8
 164.854 680.541 170.9 681.831 176 684 c 24
 191.18 690.456 204.62 679.352 218 689 c 24
 229.887 697.571 228.553 709.395 234 723 c 24
 238.125 733.305 253.273 745.797 243 750 c 16
EndSplineSet
EndChar
StartChar: bar
Encoding: 124 124 60
Width: 176
Flags: W
VStem: 44.5107 77<60 705>
Fore
45.5107 703 m 12
 45.1855 721.951 67.0693 724.579 84.5107 732 c 28
 97.6084 737.572 120.543 752.233 120.511 738 c 20
 119.511 300 121.594 505.591 121.511 357 c 28
 121.452 252.869 117.511 198 120.511 90 c 12
 120.941 74.4795 98.9435 78.7263 84.5107 73 c 28
 69.2637 66.9512 44.8057 43.5996 44.5107 60 c 20
 43 144 44.3475 238.73 44.5107 353 c 28
 44.7061 489.5 48 558 45.5107 703 c 12
EndSplineSet
EndChar
StartChar: uni007F
Encoding: 127 127 62
Width: 1597
Flags: W
Fore
1371.96 532 m 8
 1380.35 515.228 1391.96 514 1405.96 498 c 8
 1418.83 483.29 1444.23 503.312 1449.96 522 c 24
 1460.47 556.264 1401.42 568.394 1407.82 603.657 c 24
 1410.29 617.322 1429.95 614.338 1434.21 627.557 c 24
 1437.59 638.057 1437.72 649.521 1428.27 655.21 c 24
 1411.89 665.073 1398.66 649.408 1381.08 641.886 c 24
 1369.86 637.083 1365.86 629.344 1354.13 625.967 c 24
 1328 618.448 1311.56 622.073 1284.45 624.086 c 24
 1249.17 626.704 1221.04 615.811 1195.13 639.894 c 24
 1182.27 651.839 1188.83 666.617 1184.07 683.507 c 24
 1180.37 696.618 1187.21 715.041 1173.72 716.866 c 24
 1158.17 718.969 1158.39 697.328 1152.02 682.991 c 24
 1145.3 667.889 1150.17 655.754 1140.84 642.112 c 24
 1114.65 603.82 1078.42 603.741 1045.27 571.282 c 24
 1010.99 537.713 980.257 520.862 969.962 474 c 16
 954.754 404.771 959.342 390.006 955.726 336.035 c 24
 953.036 295.893 954.748 287.21 952.529 232.924 c 8
 951.358 204.268 984.951 201.705 1008.03 184.678 c 24
 1035.9 164.114 1055.17 157.783 1083.48 137.826 c 16
 1095.68 129.227 1107.54 121.431 1117.96 113.729 c 0
 1128.87 105.673 1138.2 97.7197 1144.73 89.0605 c 8
 1155.14 75.249 1166.52 105.118 1179.96 116 c 24
 1188.9 123.231 1192.16 129.855 1202.35 135.168 c 24
 1221.35 145.067 1236.17 139.729 1255.52 148.91 c 24
 1271.36 156.424 1307.94 168.776 1291.76 175.503 c 16
 1266.98 185.8 1258.71 174.989 1237.61 175.727 c 24
 1220.3 176.331 1194.51 161.366 1193.3 178.643 c 16
 1189.95 226.525 1189.98 304.464 1195.91 384.559 c 24
 1200.2 442.432 1207.2 485.275 1215.96 532 c 0
 1224.11 575.479 1291.96 574 1339.96 566 c 0
 1357.75 563.036 1365.96 544 1371.96 532 c 8
771.962 516 m 0
 763.962 538 755.45 587.645 735.962 630 c 24
 710.042 686.333 702.837 729.547 651.962 765 c 24
 607.533 795.961 570.094 791.506 515.962 793 c 24
 478.912 794.022 457.465 789.644 421.962 779 c 24
 364.3 761.714 333.05 745.84 281.962 714 c 24
 213.006 671.024 173.902 643.764 119.962 583 c 24
 87.8516 546.828 73.9629 522.039 53.9619 478 c 24
 42.1758 452.049 37.2686 436.175 32.9619 408 c 24
 23.0615 343.228 19.5137 304.517 30.9619 240 c 24
 41.8965 178.381 44.8613 135.373 87.9619 90 c 24
 131.979 43.6611 175.92 39.3506 237.962 24 c 24
 313.108 5.40723 358.562 8.62988 435.962 10 c 24
 472.823 10.6523 496.064 5.50391 529.962 20 c 24
 578.813 40.8916 597.962 62 633.962 108 c 8
 671.171 155.545 680.223 171.326 727.962 231 c 0
 735.962 241 754.592 296.152 759.962 292 c 0
 778.04 278.02 790.669 149.135 817.962 123 c 8
 862.034 80.7979 892.234 58.7715 949.962 39 c 24
 1041.12 7.77734 1099.73 10.9834 1195.96 16 c 24
 1259.51 19.3135 1298.81 20.0215 1355.96 48 c 24
 1390.23 64.7764 1405.36 82.833 1429.96 112 c 24
 1483.44 175.396 1522.4 212.943 1539.96 294 c 16
 1565.96 414 1590.7 466.553 1565.96 582 c 0
 1553.96 638 1541.44 666.726 1505.96 708 c 24
 1476.49 742.289 1452.57 757.866 1409.96 773 c 24
 1338.39 798.421 1291.65 796.265 1215.96 790 c 24
 1166.19 785.881 1138.51 776.104 1091.96 758 c 24
 1028.55 733.336 992.215 717.067 937.962 676 c 16
 877.045 629.889 803.962 510 783.962 474 c 0
 780.927 468.536 776.581 503.298 771.962 516 c 0
811.962 376 m 24
 821.594 466.938 866.146 511.15 923.962 582 c 24
 960.711 627.033 988.398 647.637 1037.96 678 c 24
 1093.55 712.055 1127.84 731.223 1191.96 743 c 24
 1266.42 756.678 1314.98 762.345 1385.96 736 c 24
 1423.42 722.097 1445.86 706.53 1465.96 672 c 24
 1513.25 590.767 1510.25 527.785 1503.96 434 c 24
 1496.72 325.912 1478.92 261.353 1423.96 168 c 24
 1402.97 132.351 1385.74 112.768 1349.96 92 c 24
 1309.55 68.543 1280.53 65.8818 1233.96 62 c 24
 1198.07 59.0078 1177.35 63.29 1141.96 70 c 24
 1077.22 82.2764 1036.34 83.8848 979.962 118 c 24
 916.724 156.268 885.245 190.178 847.962 254 c 24
 822.938 296.835 806.736 326.668 811.962 376 c 24
345.962 64 m 24
 296.333 65.9043 268.032 74.4502 221.962 93 c 24
 181.57 109.263 152.416 115.415 125.962 150 c 24
 81.6973 207.87 79.4336 257.225 75.9619 330 c 24
 73.6211 379.06 77.1035 409.534 97.9619 454 c 24
 128.754 519.644 162.766 548.983 217.962 596 c 24
 285.885 653.857 327.817 690.761 413.962 714 c 24
 464.424 727.613 499.385 731.287 547.962 712 c 24
 594.143 693.664 614.677 667.526 641.962 626 c 24
 678.67 570.132 681.644 528.826 697.962 464 c 24
 711.077 411.896 727.485 381.2 719.962 328 c 24
 712.291 273.761 693.19 244.551 659.962 201 c 24
 620.703 149.546 592.769 120.029 533.962 93 c 24
 466.555 62.0166 420.095 61.1562 345.962 64 c 24
339.962 606 m 16
 388.274 608.426 391.193 606.348 423.933 605.534 c 24
 452.688 604.819 468.883 600.958 497.617 602.28 c 24
 517.891 603.213 529.927 602.905 549.175 609.341 c 24
 567.188 615.364 571.421 621.387 591.697 633.085 c 8
 598.195 636.834 599.409 624.186 603.513 617.906 c 24
 608.235 610.68 616.27 606.784 614.053 598.44 c 24
 611.896 590.321 600.206 594.208 595.746 587.09 c 24
 592.73 582.277 592.117 577.875 594.238 572.607 c 24
 601.064 555.654 627.202 560.419 630.033 542.364 c 24
 631.658 531.997 623.363 526.796 615.78 519.542 c 24
 605.618 509.822 598.281 503.938 584.38 501.82 c 24
 557.747 497.762 543.746 514.988 516.838 516.312 c 24
 466.104 518.807 411.986 512.04 387.424 501.616 c 0
 370.752 494.541 387.782 475.727 388.808 459.212 c 24
 389.972 440.463 391.353 433.26 393.204 411.247 c 8
 396.169 375.995 448.613 409.478 483.688 404.862 c 24
 522.608 399.741 572.003 423.557 582.511 385.732 c 24
 586.45 371.553 564.56 371.192 554.47 360.479 c 24
 542.345 347.606 542.614 331.6 526.195 325.031 c 24
 504.896 316.511 490.738 330.664 467.921 333.033 c 24
 448.728 335.025 434.029 348.059 418.566 336.516 c 24
 398.949 321.871 407.338 299.598 405.002 275.229 c 24
 401.465 238.334 395.03 216.607 407.538 180.227 c 8
 412.054 167.094 394.255 162.82 383.783 153.698 c 24
 372.198 143.606 366.468 131.318 351.108 131.69 c 24
 332.904 132.131 328.321 148.777 313.69 159.617 c 24
 294.629 173.739 288.112 191.903 264.688 195.655 c 24
 248.351 198.272 238.976 190.225 224.368 182.453 c 24
 211.122 175.406 203.73 170.251 194.011 158.822 c 24
 187.539 151.213 191.63 137.654 181.727 136.348 c 24
 173.361 135.244 173.391 146.744 166.783 151.991 c 24
 161.152 156.463 149.049 154.432 150.912 161.377 c 16
 159.49 193.353 172.578 208.039 198.654 224.629 c 24
 236.847 248.928 273.499 237.826 312.197 248.711 c 8
 331.72 254.202 322.689 279.193 323.559 299.455 c 24
 324.395 318.952 326.559 332.115 316.846 349.042 c 24
 311.623 358.145 305.637 362.404 295.646 365.613 c 24
 284.407 369.223 277.186 365.108 265.407 364.343 c 24
 247.438 363.175 229.912 345.664 219.411 360.294 c 24
 212.852 369.433 225.202 377.068 231.001 386.708 c 24
 240.684 402.805 245.146 414.237 260.896 424.473 c 24
 269.424 430.014 276.039 429.905 286.154 430.957 c 24
 293.308 431.7 299.077 425.509 304.576 430.144 c 24
 331.587 452.908 308.976 485.374 315.962 520 c 24
 322.849 554.134 305.185 604.254 339.962 606 c 16
1125.51 201.97 m 8
 1121.72 180.574 1091.35 207.956 1072.24 218.294 c 24
 1049.43 230.63 1017.85 235.116 1021.15 260.834 c 16
 1028.93 321.524 1025.97 350.614 1030.91 407.873 c 24
 1035.13 456.807 1037.3 488.516 1044.21 533.105 c 8
 1046.93 550.699 1066.8 549.588 1082.58 557.843 c 24
 1095.69 564.704 1103.13 575.196 1117.65 572.324 c 24
 1129.85 569.91 1139.07 562.227 1140.28 549.848 c 16
 1143.96 512 1141.21 518.246 1140.9 498.044 c 24
 1140.06 442.32 1137.72 410.931 1134.84 355.274 c 24
 1131.75 295.454 1135.57 258.811 1125.51 201.97 c 8
EndSplineSet
EndChar
StartChar: cent
Encoding: 162 162 63
Width: 299
Flags: W
VStem: 16 86<152 320> 20 82<270 343> 135.226 36.462<8 579>
Fore
135.226 8.43652 m 16
 136.16 98.6074 135.072 221.275 134.914 357.353 c 24
 134.815 442.017 135.538 448.986 134.602 574.439 c 8
 134.437 596.585 142.366 606.794 150.185 624.099 c 24
 157.203 639.636 171.688 677.96 171.688 658.075 c 16
 171.688 515.634 171.688 545.532 172 424 c 0
 172.258 323.299 171.688 227.509 171.688 110.367 c 8
 171.688 86.1475 164.083 74.6104 156.729 54.1758 c 24
 149.686 34.6055 134.985 -14.7539 135.226 8.43652 c 16
EndSplineSet
Ref: 99 99 N 1 0 0 1 2 86
EndChar
StartChar: sterling
Encoding: 163 163 4
Width: 550
Flags: W
VStem: 304.389 37.6348<369 371> 304.389 136.611<363 371>
Fore
237.491 331 m 4
 236.949 322.797 300.445 331.802 300 324 c 4
 297.314 276.992 297.007 201.022 285 165 c 12
 282.407 157.222 272.188 165.577 264 166 c 28
 249.957 166.724 230.516 154.165 228 168 c 20
 222 201 236.404 231.904 237 273 c 20
 237.137 282.483 237.307 322.433 237.491 331 c 4
239.332 365 m 4
 239.643 386.813 239.65 425.682 239 453 c 4
 237 537 235.721 646.89 273 699 c 4
 292.628 726.437 363.273 756.818 396 735 c 4
 450 699 426 441 444 453 c 4
 492.014 485.01 480 615 477 723 c 12
 472.932 869.445 143 734 102 701 c 12
 76.8203 680.733 27.7287 664.949 47 639 c 28
 66.9756 612.103 94.6992 660.704 125 675 c 28
 146.928 685.346 182.728 726.185 181 702 c 20
 178 660 177.675 632.323 173 588 c 28
 169.777 557.448 158.943 540.568 162 510 c 20
 163.72 492.796 162.231 423.521 159.282 373 c 4
 158.544 360.355 63.8935 376.257 63 363 c 4
 62.3907 353.96 27.976 345.564 42 336 c 4
 68.5212 317.913 152.34 340.424 151 324 c 12
 144.408 243.199 169.358 188.948 132 117 c 28
 117.848 89.7441 94.5764 86.82 72 66 c 28
 50.1055 45.8086 -10.5273 3.44141 18 12 c 20
 78 30 75 54 126 69 c 12
 140.764 73.3418 119.878 39.4808 132 30 c 28
 142.18 22.0381 152.737 28.9206 165 33 c 28
 181.946 38.6377 189.434 46.667 204 57 c 28
 223.673 70.9551 227.896 95.1016 252 96 c 28
 284.758 97.2207 292.201 63.6604 321 48 c 28
 345.432 34.7139 359.246 22.7747 387 21 c 28
 405.126 19.8408 415.144 26.2339 432 33 c 28
 456.783 42.9482 472.765 47.4744 492 66 c 28
 516.569 89.6631 537 106.889 537 141 c 20
 537 165 492.532 81.8573 453 84 c 28
 422.334 85.6621 419.594 119.64 393 135 c 28
 377.938 143.699 355.908 133.313 351 150 c 20
 336 201 344.546 256.696 343 325 c 20
 342.809 333.459 400.847 322.8 420 330 c 4
 448.17 340.589 441.079 352.583 441 363 c 4
 440.954 369.117 342.032 365.1 342.023 371 c 4
 341.967 410.566 342.731 459.402 344 507 c 4
 346.025 582.927 371.71 653.918 368 576 c 4
 363 471 395 357 401 450 c 4
 403.42 487.512 395 564 386 648 c 4
 377.674 725.715 308.992 572.278 305 510 c 20
 302.096 464.69 303.608 404.209 304.389 369 c 4
 304.563 361.137 239.288 373.187 239.332 365 c 4
EndSplineSet
EndChar
StartChar: currency
Encoding: 164 164 5
Width: 352
Flags: W
VStem: 246.546 66.006<341 414.441>
Fore
180.806 463.027 m 0
 155.518 461.399 148.116 455.12 131.501 442.762 c 0
 118.525 433.112 122.566 409.593 121.817 388.222 c 24
 121.553 380.664 121.985 378.107 123.887 368.872 c 8
 126.81 354.678 145.97 348.221 169.416 342.468 c 24
 196.959 335.71 246.546 324.653 246.546 341.438 c 16
 246.546 393.064 254.33 445.818 224.921 456.755 c 0
 206.756 463.51 225.786 465.922 180.806 463.027 c 0
155.293 497.95 m 0
 175.251 506.496 192.571 507.662 210.405 505.919 c 0
 219.157 505.062 297.033 601.729 306.405 600 c 0
 313.105 598.764 251.061 499.219 258.405 498 c 8
 276.204 495.046 297.728 499.706 301.865 482.145 c 16
 308.074 455.79 309.419 441.112 311.534 414.577 c 24
 313.396 391.217 312.155 377.929 312.552 354.497 c 17
 306.093 338.033 271.176 312.875 261.405 309 c 0
 251.899 305.23 322.779 204.513 309.405 200 c 1
 301.103 198.789 286.456 195.505 279.405 194 c 0
 270.94 192.193 215.135 310.213 207.405 308.5 c 0
 190.28 304.708 173.525 301.844 150.791 302.985 c 0
 139.902 303.532 131.314 304.968 123.405 307.051 c 0
 118.267 308.403 44.415 199.166 39.4053 201 c 0
 90.7744 318.559 l 8
 85.9199 332.271 66.4355 324.126 57.6621 335.729 c 24
 47.9775 348.537 50.0117 360.016 49.3848 376.06 c 24
 48.3682 402.079 46.7305 418.154 57.6621 442.312 c 0
 63.2617 454.688 100.392 482.961 111.405 489 c 0
 119.801 493.604 57.4531 589.733 71.4053 595 c 0
 110.405 607 l 0
 155.293 497.95 l 0
EndSplineSet
EndChar
StartChar: yen
Encoding: 165 165 11
Width: 472
Flags: W
Fore
222 264 m 0
 223.411 269.218 304.193 253.819 352 270 c 0
 361.625 273.258 366.153 285.478 372 288 c 0
 405.633 302.513 373.603 297.422 375 300 c 0
 378.788 306.99 228.755 298.789 233.994 306 c 0
 243 330 l 8
 280.037 382.152 322.08 391.524 369 435 c 24
 410.877 473.803 438.365 493.157 471 540 c 24
 505.104 588.95 533.293 618.457 537 678 c 24
 539.299 714.927 531.509 740.284 507 768 c 24
 488.973 788.386 471.214 797.972 444 798 c 24
 419.402 798.025 407.599 784.444 387 771 c 24
 367.552 758.307 333.208 753.495 342 732 c 24
 349.101 714.64 371.374 737.209 390 735 c 24
 405.803 733.126 415.808 731.9 429 723 c 24
 448.995 709.511 460.473 697.916 468 675 c 24
 475.676 651.631 473.331 635.143 465 612 c 24
 447.167 562.462 419.65 542.744 384 504 c 24
 355.381 472.897 345 456 303 432 c 8
 287.1 422.914 287.163 456.43 282 474 c 24
 268.729 519.165 279.035 548.008 269 594 c 24
 258.221 643.402 262.785 680.302 228 717 c 24
 199.452 747.118 170.491 756.723 129 756 c 24
 99.6611 755.488 84.6808 741.871 60 726 c 24
 33.5205 708.973 30 705 0 672 c 8
 -30.9453 637.96 75.3446 706.523 117 687 c 24
 158.439 667.578 168.208 632.22 180 588 c 16
 192 543 208 482 211 434 c 0
 212.75 406.004 214.789 410.095 225 384 c 8
 235.134 358.102 210.642 342.771 198 318 c 16
 195.814 313.716 193.58 309.742 191.317 306 c 0
 187.338 299.422 49.0635 305.562 45 300 c 0
 24 267 l 0
 163.687 267 l 0
 159.142 260.565 154.778 253.79 150.751 246 c 0
 148.372 241.4 23.1113 245.446 21 240 c 0
 0 216 l 0
 139.416 219 l 0
 127.745 187.795 121.739 164.862 125 129 c 8
 128.062 95.3145 132.188 72.0224 156 48 c 24
 180.778 23.002 204.809 15.6415 240 15 c 24
 285.877 14.1641 310.529 32.3776 351 54 c 24
 387.118 73.2969 369 60 435 117 c 8
 476.73 153.04 354.786 68.7701 300 75 c 24
 273.083 78.0605 256.081 88.1992 240 110 c 16
 216.615 141.703 207.014 180.492 205.248 214 c 0
 205.088 217.034 278.742 207.661 315 217 c 0
 348.565 225.646 324 219 345 246 c 0
 346.957 248.516 243 243 219 246 c 0
 202.162 248.105 221.879 262.222 222 264 c 0
EndSplineSet
EndChar
StartChar: brokenbar
Encoding: 166 166 12
Width: 176
Flags: W
VStem: 44.5107 75.7324<90.0954 349 467 705>
Fore
44.5107 347 m 0
 45 255 43 144 44.5107 60 c 8
 44.8057 43.5996 69.2638 66.9508 84.5107 73 c 24
 98.9434 78.7266 120.942 74.4795 120.511 90 c 16
 117.511 198 120.45 255.31 120.511 361 c 16
 120.531 396.956 104.078 373.41 90 373 c 0
 67.5449 372.346 44.4121 365.482 44.5107 347 c 0
45.8574 467 m 4
 46.5029 524.211 46.8729 623.651 45.5107 703 c 8
 45.1855 721.951 67.0693 724.579 84.5107 732 c 24
 97.6084 737.572 120.544 752.233 120.511 738 c 16
 120.29 641.103 120.22 532.704 120.243 488 c 4
 120.252 472.234 103.258 477.841 84 473 c 4
 66.0264 468.482 45.6934 452.449 45.8574 467 c 4
EndSplineSet
EndChar
StartChar: section
Encoding: 167 167 13
Width: 317
Flags: W
Fore
86 360 m 24
 89.6094 400.104 89.8369 434.686 124 456 c 24
 157.854 477.121 196.389 474.746 226 448 c 24
 251.886 424.618 243.569 394.848 242 360 c 24
 240.289 322.002 226.14 302.66 216 266 c 17
 200 245 132 256 132 256 c 8
 112.002 264.39 106.994 280.267 98 300 c 24
 88.1035 321.715 83.861 336.232 86 360 c 24
51 107 m 8
 42.415 111.622 42.3882 94.3656 36 87 c 24
 27.3271 77 11.4499 76.2256 12 63 c 24
 12.8281 43.0928 34.1972 40.7069 51 30 c 24
 65.1279 20.998 73.2862 13.1303 90 12 c 24
 115.232 10.2939 127.624 24.2631 152 31 c 24
 181.813 39.2393 222.29 19.8057 229 50 c 16
 235 77 226.119 127.786 236 176 c 24
 241.499 202.831 254.059 215.264 260 242 c 16
 266 269 305.775 341.444 306 409 c 24
 306.11 442.11 304.618 465.092 284 491 c 24
 253.473 529.36 216.29 526.99 173 550 c 17
 156.348 554.082 111 601 111 601 c 9
 112.95 634.15 85 646 116 686 c 8
 131.639 706.179 149.254 663.877 170 649 c 24
 193.771 631.955 201.315 609.718 230 604 c 24
 248.553 600.302 261.883 604.627 277 616 c 24
 293.623 628.506 324.802 662 304 662 c 16
 292 662 277.103 655.658 262 662 c 24
 235.81 672.998 231.748 694.599 211 714 c 24
 187.363 736.103 184 744 148 768 c 8
 110.689 792.874 96 720 74 680 c 8
 61.0654 656.483 34.5682 650.833 34 624 c 24
 33.0928 581.174 122.157 564.85 94 532 c 0
 58 490 53.9055 481.49 43 443 c 24
 26.2998 384.059 25.5059 345.974 38 286 c 16
 43 262 75.6405 216.464 114 186 c 24
 133.412 170.584 156.217 179.114 172 160 c 24
 180.674 149.496 181.525 139.536 180 126 c 24
 177.618 104.854 175.443 85.6481 156 77 c 24
 117.087 59.6914 90 86 51 107 c 8
EndSplineSet
EndChar
StartChar: dieresis
Encoding: 168 168 61
Width: 378
Flags: W
Fore
158.628 467 m 4
 139.235 449.862 135.47 442.285 117.349 429.76 c 28
 101.716 418.956 93.3027 405.98 73.4883 406.96 c 28
 58.4189 407.705 51.8174 416.967 42.5283 427.48 c 28
 29.7627 441.929 18.7275 452.683 21.8887 470.8 c 28
 25.9131 493.868 44.8555 502.122 65.748 516.4 c 28
 83.4297 528.483 95.0742 540.08 117.349 538.44 c 20
 148.309 536.16 145.729 538.44 163.788 518.68 c 4
 182.271 498.457 181.849 487.52 158.628 467 c 4
338.368 467 m 4
 318.976 449.862 315.21 442.285 297.088 429.76 c 28
 281.456 418.956 273.043 405.98 253.229 406.96 c 28
 238.159 407.705 231.557 416.967 222.269 427.48 c 28
 209.503 441.929 198.467 452.683 201.628 470.8 c 28
 205.653 493.868 222.019 505.695 245.488 516.4 c 20
 272.148 528.56 274.814 540.08 297.088 538.44 c 20
 328.048 536.16 325.469 538.44 343.528 518.68 c 4
 362.012 498.457 361.588 487.52 338.368 467 c 4
EndSplineSet
EndChar
StartChar: copyright
Encoding: 169 169 6
Width: 543
Flags: W
HStem: 142 20<271 284> 538 20<271 284>
VStem: 91.5 20<333 367> 203.235 42.2013<260.355 356.594> 205.198 40.2385<327.951 369.769> 431.5 20<350 367>
Fore
271.5 558 m 0
 371.901 558 451.5 463.743 451.5 350 c 0
 451.5 236.36 371.955 142 271.5 142 c 0
 171.099 142 91.5 236.257 91.5 350 c 0
 91.5 463.64 171.045 558 271.5 558 c 0
271.5 538 m 0
 184.223 538 111.5 454.849 111.5 350 c 0
 111.5 245.048 184.274 162 271.5 162 c 0
 358.777 162 431.5 245.151 431.5 350 c 0
 431.5 454.952 358.725 538 271.5 538 c 0
EndSplineSet
Ref: 99 99 N 0.490713 0 0 0.57285 196.365 222.547
EndChar
StartChar: ordfeminine
Encoding: 170 170 7
Width: 278
Flags: W
HStem: 496 40.029<36 251>
Fore
38.4443 536.029 m 16
 99.1758 537.442 96.7217 536.097 133.981 536.029 c 24
 184.677 535.938 217.089 537.913 263.969 535.559 c 8
 272.403 535.135 259.308 519.136 255.446 509.186 c 24
 253.37 503.837 253.946 496.043 249.408 496 c 16
 199.331 495.529 169.237 495 118 496 c 8
 79.084 496.76 79.998 497.884 18.2002 496.471 c 8
 11.9258 496.328 20.8369 509.256 24.2373 516.25 c 24
 28.5918 525.203 30.4121 535.843 38.4443 536.029 c 16
EndSplineSet
Ref: 97 97 S 0.52689 0 0 0.529513 68.7332 540.836
EndChar
StartChar: logicalnot
Encoding: 172 172 9
Width: 315
Flags: W
HStem: 327 40.029<59 244>
Fore
61.207 367.029 m 16
 121.939 368.442 119.484 367.096 156.744 367.029 c 24
 207.439 366.938 239.852 368.913 286.732 366.559 c 8
 297.527 366.017 282.128 350.26 278.209 340.186 c 24
 276.158 334.915 274.534 332.139 272.171 327 c 16
 220 214 l 0
 204 214 l 0
 194.159 213.901 252.97 326.063 244 326 c 0
 218.491 325.818 172.746 326.376 140.763 327 c 8
 101.848 327.76 102.761 328.884 40.9629 327.471 c 8
 32.8994 327.287 43.4226 340.022 47 347.25 c 24
 51.2129 355.762 51.7119 366.808 61.207 367.029 c 16
EndSplineSet
EndChar
StartChar: registered
Encoding: 174 174 7
Width: 516
Flags: W
HStem: 141 20<258 271> 537 20<258 271>
VStem: 78 20<349 366> 205.577 47.5778<230.44 310.776> 418 20<349 366>
Fore
258 557 m 0
 358.401 557 438 462.743 438 349 c 0
 438 235.36 358.455 141 258 141 c 0
 157.599 141 78 235.257 78 349 c 0
 78 462.64 157.545 557 258 557 c 0
258 537 m 0
 170.723 537 98 453.849 98 349 c 0
 98 244.048 170.774 161 258 161 c 0
 345.277 161 418 244.151 418 349 c 0
 418 453.952 345.225 537 258 537 c 0
EndSplineSet
Ref: 114 114 N 0.528642 0 0 0.557887 184.96 223.745
EndChar
StartChar: macron
Encoding: 175 175 8
Width: 314
Flags: W
HStem: 665.968 50.036<59 273>
Fore
60.4629 716.004 m 20
 121.195 717.77 118.741 716.089 156 716.004 c 28
 206.696 715.89 239.108 718.358 285.988 715.416 c 12
 294.422 714.886 281.327 694.888 277.465 682.45 c 28
 275.389 675.764 275.965 666.021 271.427 665.968 c 20
 221.35 665.379 191.256 664.718 140.019 665.968 c 12
 101.103 666.917 102.017 668.322 40.2188 666.557 c 12
 33.9443 666.377 42.8555 682.537 46.2559 691.28 c 28
 50.6104 702.471 52.4307 715.771 60.4629 716.004 c 20
EndSplineSet
EndChar
StartChar: twosuperior
Encoding: 178 178 10
Width: 290
Flags: W
Fore
24.25 612.25 m 20
 40.75 651.25 57.8955 659.786 81.25 688.75 c 28
 110.313 724.793 134.689 739.001 159.25 778.25 c 28
 171.162 797.285 178.982 808.966 181.75 831.25 c 28
 185.033 857.688 183.513 875.099 171.25 898.75 c 28
 160.015 920.42 150.175 937.411 126.25 942.25 c 28
 107.189 946.105 99.042 926.696 79.75 924.25 c 28
 69.8164 922.99 58.4912 918.179 54.25 927.25 c 28
 46.5537 943.713 65.3574 955.155 79.75 966.25 c 28
 101.727 983.192 120.19 994.896 147.25 988.75 c 28
 171.053 983.344 178.79 965.613 192.25 945.25 c 28
 208.485 920.688 218.106 904.171 219.25 874.75 c 28
 221.17 825.366 205.209 797.525 183.25 753.25 c 28
 168.745 724.005 159.25 714.25 133.75 685.75 c 12
 116.613 666.597 174.092 681.018 198.25 672.25 c 28
 216.947 665.465 227.386 660.247 243.25 648.25 c 28
 260.08 635.522 288.386 628.92 280.75 609.25 c 28
 274.174 592.309 252.139 603.052 234.25 606.25 c 28
 211.563 610.306 202.3 623.545 180.25 630.25 c 28
 167.184 634.223 159.406 636.422 145.75 636.25 c 28
 127.854 636.024 117.357 633.923 100.75 627.25 c 28
 86.5947 621.562 82.6543 609.502 67.75 606.25 c 28
 51.0176 602.6 17.5771 596.479 24.25 612.25 c 20
EndSplineSet
EndChar
StartChar: threesuperior
Encoding: 179 179 11
Width: 177
Flags: W
Fore
53.75 684.5 m 28
 41.2051 687.431 36.5547 673.35 28.25 663.5 c 28
 19.1299 652.683 13.1963 645.839 10.25 632 c 28
 9.02637 626.25 8.7207 622.039 11.75 617 c 28
 18.6318 605.551 27.2324 601 40.25 598 c 28
 55.7822 594.42 66.0889 597.244 80.75 603.5 c 28
 107.556 614.938 120.11 628.021 139.25 650 c 28
 149.067 661.273 155.575 668.392 158.75 683 c 28
 166.996 720.941 170.159 749.945 148.25 782 c 28
 137.472 797.769 93.8779 788.796 104.75 804.5 c 20
 118.25 824 128.983 829.913 139.25 849.5 c 28
 156.085 881.615 173.75 899 167.75 938 c 12
 164.192 961.128 153.267 976.803 131.75 986 c 28
 104.661 997.578 84.501 986.888 56.75 977 c 28
 29.9971 967.468 23.75 957.5 -4.75 938 c 12
 -9.57812 934.697 2.27344 932.075 7.25 929 c 28
 13.9258 924.873 17.4141 919.552 25.25 920 c 28
 41.2871 920.917 45.1055 935.898 59.75 942.5 c 28
 75.7939 949.733 86.5088 959.927 103.25 954.5 c 28
 113.94 951.035 115.995 941.933 121.25 932 c 28
 124.971 924.967 127.94 920.427 127.25 912.5 c 28
 124.573 881.744 109.18 867.133 91.25 842 c 28
 78.0342 823.476 67.9775 814.865 50.75 800 c 28
 39.3193 790.137 26.7598 790.597 19.25 777.5 c 28
 16.0361 771.895 15.7295 767.138 17.75 761 c 28
 19.9531 754.309 23.1309 749.909 29.75 747.5 c 28
 48.6416 740.624 60.7109 756.605 80.75 755 c 28
 92.3682 754.069 101.863 755.016 109.25 746 c 28
 124.167 727.794 120.043 709.142 115.75 686 c 28
 112.871 670.479 111.298 657.199 97.25 650 c 28
 86.7207 644.604 76.6797 647.355 67.25 654.5 c 28
 57.0244 662.248 66.2432 681.581 53.75 684.5 c 28
EndSplineSet
EndChar
StartChar: acute
Encoding: 180 180 59
Width: 226
Flags: W
Fore
90 753 m 28
 106.996 763.332 121.123 753.709 141 753 c 28
 157.411 752.415 192.711 763.242 183 750 c 20
 150 705 150.692 704.431 125 680 c 28
 95.7197 652.158 32.2002 578.803 42 618 c 20
 51 654 50.5312 668.55 62 699 c 28
 70.3613 721.2 69.7295 740.677 90 753 c 28
EndSplineSet
EndChar
StartChar: mu
Encoding: 181 181 60
Width: 341
Flags: W
VStem: 64 82<-61 114> 247 62<147.62 174 174.063 191.968 222.287 314.963 315.02 334>
Fore
108 22 m 16
 102 -44 110 -23 98 -97 c 8
 93.1777 -126.74 80.416 -197.271 70 -169 c 16
 56 -131 64.5976 -103.181 64 -61 c 24
 62.9834 10.7793 64.9667 51.3272 69 123 c 24
 71.5732 168.724 77.7745 194.22 79 240 c 24
 80.3154 289.147 84 306 75 366 c 8
 73.2559 377.628 56.4394 371.721 45 369 c 24
 30.1592 365.47 6.33398 333.836 12 348 c 16
 24 378 27.6882 372.893 40 387 c 24
 53.4229 402.381 59.7234 413.905 78 423 c 24
 90.7432 429.342 100.147 432.27 114 429 c 24
 129.488 425.344 147.662 420.9 147 405 c 16
 144 333 146.195 302.521 146 237 c 24
 145.857 189.03 146 153 146 114 c 8
 146 93.7764 166.188 85.0549 186 81 c 24
 206.312 76.8428 228.757 76.9766 237 96 c 16
 250 126 243.134 154.477 245 192 c 24
 247.384 239.917 248.708 267.054 247 315 c 24
 246.205 337.301 254 349 242 372 c 8
 233.989 387.354 194.243 349.094 198 366 c 16
 204 393 211.743 392.641 225 406 c 24
 241.992 423.123 251.934 439.339 276 441 c 24
 289.05 441.9 306 439.081 306 426 c 16
 306 372 307.496 369.274 308 333 c 24
 308.861 270.995 308.805 236.011 309 174 c 24
 309.118 136.561 301.92 114.765 309 78 c 24
 311.383 65.626 323.534 60.3437 321 48 c 24
 318.339 35.0332 308.891 29.8155 297 24 c 24
 280.053 15.7109 267.681 15.3624 249 18 c 24
 231.354 20.4912 224.82 35.91 207 36 c 24
 191.79 36.0771 185.937 23.8644 171 21 c 24
 146.866 16.3721 110.225 46.472 108 22 c 16
EndSplineSet
EndChar
StartChar: paragraph
Encoding: 182 182 87
Width: 472
Flags: W
Back
Fore
435 240 m 0
 412.45 217.45 407.545 210.374 387 195 c 24
 368.524 181.174 359.04 163.711 336 165 c 24
 318.478 165.98 310.801 178.167 300 192 c 24
 285.156 211.012 272.324 225.161 276 249 c 24
 280.68 279.353 304.389 288.218 327 309 c 24
 349.23 329.433 359.91 356.508 390 354 c 16
 426 351 434.594 341.488 441 318 c 16
 450 285 462 267 435 240 c 0
180 249 m 0
 157.45 226.45 152.545 219.374 132 204 c 24
 113.524 190.174 104.04 172.711 81 174 c 24
 63.4775 174.98 55.8008 187.167 45 201 c 24
 30.1562 220.012 17.3242 234.161 21 258 c 24
 25.6797 288.353 49.3887 297.218 72 318 c 24
 94.2305 338.433 104.91 365.508 135 363 c 16
 171 360 179.594 350.488 186 327 c 16
 195 294 207 276 180 249 c 0
357 471 m 4
 334.45 448.45 329.545 441.374 309 426 c 28
 290.524 412.174 281.04 394.711 258 396 c 28
 240.478 396.98 232.801 409.167 222 423 c 28
 207.156 442.012 194.324 456.161 198 480 c 28
 202.68 510.353 226.389 519.218 249 540 c 28
 271.23 560.433 281.91 587.508 312 585 c 20
 348 582 356.594 572.488 363 549 c 20
 372 516 384 498 357 471 c 4
EndSplineSet
EndChar
StartChar: cedilla
Encoding: 184 184 100
Width: 529
Flags: W
Fore
230 38 m 12
 231.048 48.4775 246.49 38.6543 257 38 c 28
 266.415 37.4141 281 44.4326 281 35 c 21
 285 -21 285.18 -27.1279 263 -54 c 13
 241.578 -82.4141 158.195 -122.449 182 -96 c 20
 209 -66 217.117 -73.7666 227 -51 c 28
 240.829 -19.1426 227 8 230 38 c 12
EndSplineSet
EndChar
StartChar: onesuperior
Encoding: 185 185 101
Width: 115
Flags: W
VStem: 47.75 42<706 899>
Fore
80.75 594.25 m 28
 66.0137 595.168 60.0488 605.181 49.25 615.25 c 28
 37.3545 626.342 24.0557 631.988 23.75 648.25 c 28
 23.6553 653.281 27.8105 655.077 31.25 658.75 c 28
 36.9336 664.818 46.7969 663.99 47.75 672.25 c 20
 52.25 711.25 47.75 732.64 47.75 771.25 c 28
 47.75 807.52 48.2998 827.984 47.75 864.25 c 28
 47.457 883.562 49.25 898.75 46.25 913.75 c 12
 44.7988 921.006 35.5547 918.564 28.25 919.75 c 28
 21.3203 920.875 13.0898 913.33 10.25 919.75 c 28
 3.21387 935.656 28.0869 940.317 40.25 952.75 c 28
 51.5352 964.285 55.4346 974.853 70.25 981.25 c 28
 79.9316 985.431 88.3164 988.354 97.25 982.75 c 28
 103.692 978.709 104.473 972.35 104.75 964.75 c 28
 105.426 946.263 90.3105 938.24 89.75 919.75 c 20
 88.25 870.25 90.4033 841.056 89.75 790.75 c 28
 89.165 745.693 85.1963 720.283 86.75 675.25 c 28
 87.1758 662.917 85.9678 655.496 89.75 643.75 c 28
 92.2402 636.014 98.3916 633.662 100.25 625.75 c 28
 102.261 617.188 103.62 610.573 98.75 603.25 c 28
 94.4043 596.715 88.584 593.763 80.75 594.25 c 28
EndSplineSet
EndChar
StartChar: ordmasculine
Encoding: 186 186 102
Width: 278
Flags: W
HStem: 496 40.029<36 251>
VStem: 60.8754 45.2851<629.62 674.7> 184.141 41.2674<595.81 668.138>
Fore
38.4443 536.029 m 16
 99.1758 537.442 96.7217 536.097 133.981 536.029 c 24
 184.677 535.938 217.089 537.913 263.969 535.559 c 8
 272.403 535.135 259.308 519.136 255.446 509.186 c 24
 253.37 503.837 253.946 496.043 249.408 496 c 16
 199.331 495.529 169.237 495 118 496 c 8
 79.084 496.76 79.998 497.884 18.2002 496.471 c 8
 11.9258 496.328 20.8369 509.256 24.2373 516.25 c 24
 28.5918 525.203 30.4121 535.843 38.4443 536.029 c 16
EndSplineSet
Ref: 111 111 N 0.5408 0 0 0.49 50.0224 549.26
EndChar
StartChar: onequarter
Encoding: 188 188 10
Width: 517
Flags: W
VStem: 103.875 63<524 670> 351.964 50.088<248 318>
Fore
351.448 236.471 m 16
 354.546 254.442 351.964 255.021 351.964 266.884 c 16
 351.964 292.738 351.448 300.06 352.997 318.031 c 8
 354.351 333.729 334.457 299.593 325.114 286.236 c 24
 312.664 268.442 308.073 255.824 298.778 237.854 c 8
 293.63 227.9 317.477 232.747 329.761 232.785 c 24
 338.372 232.812 350.139 228.878 351.448 236.471 c 16
408.764 13.9111 m 24
 391.018 11.1016 380.956 18.5498 363.841 23.5879 c 24
 347.643 28.3535 334.535 27.1387 323.564 38.793 c 24
 318.38 44.3008 316.511 49.8994 318.916 56.7627 c 24
 321.598 64.4131 329.296 65.2119 335.956 70.5879 c 24
 341.985 75.4541 347.796 76.5498 351.448 83.0293 c 24
 362.079 101.896 356.538 115.829 357.127 136.941 c 24
 357.701 157.441 359.194 170.118 354.546 189.47 c 8
 352.282 198.901 340.289 198.351 329.761 200.529 c 24
 305.042 205.645 291.033 200.069 264.699 200.069 c 8
 250.559 200.069 227.379 202.48 232.168 214.353 c 16
 246.109 248.913 261.604 268.341 283.287 301.442 c 24
 310.18 342.496 319.759 370.295 357.644 403.738 c 24
 372.897 417.201 383.51 435.328 404.117 430.002 c 24
 416.317 426.848 420.093 414.926 418.058 403.738 c 24
 416.987 397.841 407.226 398.579 406.183 392.678 c 16
 401.536 366.413 402.752 342.953 402.052 311.119 c 24
 401.374 280.394 401.018 255.824 402.568 232.324 c 8
 403.598 216.691 429.973 230.943 447.491 230.02 c 24
 460.784 229.319 470.461 234.726 481.571 228.177 c 24
 490.589 222.861 496.738 215.381 493.964 206.059 c 24
 491.727 198.544 483.714 197.254 475.375 195 c 24
 459.185 190.626 448.834 196.488 432 195 c 24
 421.782 194.097 407.967 199.417 406.183 190.393 c 16
 401.536 166.892 404.622 151.048 404.117 125.882 c 24
 403.62 101.087 403.6 84.4111 403.6 62.2939 c 8
 403.6 53.043 419.879 57.6328 426.836 50.7734 c 24
 433.314 44.3877 439.385 38.7588 436.648 30.5 c 24
 432.941 19.3154 421.633 15.9482 408.764 13.9111 c 24
95.7275 68.5293 m 8
 95.0859 66.5615 96.9805 65.0059 98.9238 64.291 c 24
 106.828 61.3838 116.674 61.2627 120 69 c 16
 140.244 116.093 224.431 248.607 284.092 367.181 c 24
 338.807 475.925 384.166 573.297 414 651 c 8
 416.874 658.484 401.999 655.348 393.99 655.709 c 24
 390.076 655.886 385.22 658.034 384.045 654.297 c 16
 362.736 586.483 312.632 484.312 260.886 378.482 c 24
 200.72 255.433 112.775 120.803 95.7275 68.5293 c 8
153.375 330.3 m 24
 131.271 331.31 122.323 342.324 106.125 353.4 c 24
 88.2822 365.602 68.334 371.812 67.875 389.7 c 24
 67.7324 395.234 73.9648 397.21 79.125 401.25 c 24
 87.6504 407.926 102.445 407.015 103.875 416.101 c 16
 110.625 459 103.875 482.529 103.875 525 c 24
 103.875 564.896 104.699 587.408 103.875 627.3 c 24
 103.437 648.543 106.125 665.25 101.625 681.75 c 8
 99.4482 689.731 85.5811 687.046 74.625 688.351 c 24
 64.2314 689.587 51.8848 681.288 47.625 688.351 c 24
 37.0703 705.847 74.3799 710.974 92.625 724.65 c 24
 109.553 737.339 115.401 748.963 137.625 756 c 24
 152.148 760.599 164.724 763.815 178.125 757.65 c 24
 187.789 753.204 188.959 746.21 189.375 737.851 c 24
 190.389 717.515 167.716 708.689 166.875 688.351 c 16
 164.625 633.9 167.854 601.786 166.875 546.45 c 24
 165.997 496.888 160.044 468.938 162.375 419.4 c 24
 163.014 405.834 161.201 397.671 166.875 384.75 c 24
 170.61 376.241 179.837 373.653 182.625 364.95 c 24
 185.642 355.532 187.68 348.256 180.375 340.2 c 24
 173.856 333.011 165.125 329.764 153.375 330.3 c 24
EndSplineSet
LCarets: 0 65535 '    ' 2 0 0 
Ligature: 0 1 'frac' one slash four
Ligature: 0 1 'frac' one fraction four
EndChar
StartChar: onehalf
Encoding: 189 189 11
Width: 586
Flags: W
VStem: 103.875 63<524 670>
Fore
289.65 57.2803 m 16
 306.315 93.1611 323.632 101.014 347.221 127.661 c 24
 376.574 160.819 401.193 173.891 426 210 c 24
 438.031 227.513 445.93 238.259 448.726 258.76 c 24
 452.042 283.083 450.506 299.101 438.12 320.86 c 24
 426.772 340.796 416.834 356.428 392.67 360.88 c 24
 373.419 364.427 365.19 346.571 345.705 344.32 c 24
 335.672 343.161 324.233 338.735 319.95 347.08 c 24
 312.177 362.226 331.169 372.752 345.705 382.96 c 24
 367.902 398.547 386.55 409.315 413.88 403.661 c 24
 437.921 398.686 445.736 382.374 459.33 363.64 c 24
 475.727 341.043 485.445 325.847 486.601 298.78 c 24
 488.539 253.347 472.418 227.734 450.24 187 c 24
 435.591 160.094 426 151.12 400.245 124.9 c 8
 382.937 107.28 440.99 120.546 465.391 112.48 c 24
 484.274 106.238 494.817 101.438 510.84 90.4004 c 24
 527.839 78.6914 556.428 72.6172 548.715 54.5195 c 24
 542.073 38.9346 519.818 48.8184 501.75 51.7598 c 24
 478.837 55.4922 469.48 67.6709 447.21 73.8398 c 24
 434.013 77.4951 426.158 79.5186 412.365 79.3604 c 24
 394.29 79.1533 383.688 77.2188 366.915 71.0801 c 24
 352.619 65.8477 348.639 54.752 333.585 51.7598 c 24
 316.686 48.4023 282.911 42.7695 289.65 57.2803 c 16
153.375 330.3 m 24
 131.271 331.31 122.323 342.324 106.125 353.4 c 24
 88.2822 365.602 68.334 371.812 67.875 389.7 c 24
 67.7324 395.234 73.9648 397.21 79.125 401.25 c 24
 87.6504 407.926 102.445 407.015 103.875 416.101 c 16
 110.625 459 103.875 482.529 103.875 525 c 24
 103.875 564.896 104.699 587.408 103.875 627.3 c 24
 103.437 648.543 106.125 665.25 101.625 681.75 c 8
 99.4482 689.731 85.5811 687.046 74.625 688.351 c 24
 64.2314 689.587 51.8848 681.288 47.625 688.351 c 24
 37.0703 705.847 74.3799 710.974 92.625 724.65 c 24
 109.553 737.339 115.401 748.963 137.625 756 c 24
 152.148 760.599 164.724 763.815 178.125 757.65 c 24
 187.789 753.204 188.959 746.21 189.375 737.851 c 24
 190.389 717.515 167.716 708.689 166.875 688.351 c 16
 164.625 633.9 167.854 601.786 166.875 546.45 c 24
 165.997 496.888 160.044 468.938 162.375 419.4 c 24
 163.014 405.834 161.201 397.671 166.875 384.75 c 24
 170.61 376.241 179.837 373.653 182.625 364.95 c 24
 185.642 355.532 187.68 348.256 180.375 340.2 c 24
 173.856 333.011 165.125 329.764 153.375 330.3 c 24
95.7275 68.5293 m 8
 95.0859 66.5615 96.9805 65.0059 98.9238 64.291 c 24
 106.828 61.3838 116.674 61.2627 120 69 c 16
 140.244 116.093 224.431 248.607 284.092 367.181 c 24
 338.807 475.925 384.166 573.297 414 651 c 8
 416.874 658.484 401.999 655.348 393.99 655.709 c 24
 390.076 655.886 385.22 658.034 384.045 654.297 c 16
 362.736 586.483 312.632 484.312 260.886 378.482 c 24
 200.72 255.433 112.775 120.803 95.7275 68.5293 c 8
EndSplineSet
LCarets: 0 65535 '    ' 2 0 0 
Ligature: 0 1 'frac' one slash two
Ligature: 0 1 'frac' one fraction two
EndChar
StartChar: threequarters
Encoding: 190 190 12
Width: 538
Flags: W
VStem: 373.964 50.088<281 351>
Fore
91.71 459.079 m 28
 78.4746 461.703 73.5693 449.097 64.8076 440.278 c 28
 55.1855 430.595 48.9258 424.468 45.8174 412.078 c 28
 44.5264 406.93 44.2041 403.16 47.4004 398.649 c 28
 54.6611 388.399 63.7344 384.325 77.4678 381.64 c 28
 93.8545 378.435 104.728 380.963 120.195 386.563 c 28
 148.476 396.803 161.721 408.516 181.912 428.192 c 28
 192.27 438.285 199.136 444.658 202.485 457.736 c 28
 211.186 491.703 214.521 517.669 191.407 546.367 c 28
 180.037 560.483 134.045 552.451 145.515 566.511 c 20
 159.758 583.968 171.081 589.262 181.912 606.797 c 28
 199.674 635.549 218.31 651.112 211.98 686.027 c 12
 208.227 706.732 196.7 720.766 174 729 c 28
 145.421 739.365 120 735 94.875 720.942 c 12
 69.1426 706.544 60.0596 703.484 29.9922 686.027 c 12
 24.8984 683.07 37.4023 680.724 42.6523 677.97 c 28
 49.6963 674.275 53.376 669.512 61.6426 669.913 c 28
 78.5615 670.733 82.5908 684.146 98.04 690.056 c 28
 114.966 696.531 126.271 705.657 143.933 700.799 c 28
 155.211 697.697 157.379 689.548 162.923 680.655 c 28
 166.848 674.359 169.98 670.295 169.253 663.198 c 28
 166.429 635.663 150.188 622.583 131.272 600.082 c 28
 117.33 583.499 106.721 575.79 88.5449 562.481 c 28
 76.4863 553.651 63.2354 554.063 55.3125 542.338 c 28
 51.9219 537.32 51.5986 533.062 53.7305 527.566 c 28
 56.0537 521.576 59.4062 517.638 66.3896 515.48 c 28
 86.3203 509.324 99.0537 523.632 120.195 522.195 c 28
 132.452 521.362 142.469 522.209 150.263 514.138 c 28
 166 497.838 161.648 481.14 157.12 460.422 c 28
 154.083 446.527 152.423 434.638 137.603 428.192 c 28
 126.494 423.362 115.9 425.825 105.952 432.222 c 28
 95.1641 439.158 104.891 456.466 91.71 459.079 c 28
373.448 269.471 m 16
 376.546 287.442 373.964 288.021 373.964 299.884 c 16
 373.964 325.738 373.448 333.06 374.997 351.031 c 8
 376.351 366.729 356.457 332.593 347.114 319.236 c 24
 334.664 301.442 330.073 288.824 320.778 270.854 c 8
 315.63 260.9 339.477 265.747 351.761 265.785 c 24
 360.372 265.812 372.139 261.878 373.448 269.471 c 16
430.764 46.9111 m 24
 413.018 44.1016 402.956 51.5498 385.841 56.5879 c 24
 369.643 61.3535 356.535 60.1387 345.564 71.793 c 24
 340.38 77.3008 338.511 82.8994 340.916 89.7627 c 24
 343.598 97.4131 351.296 98.2119 357.956 103.588 c 24
 363.985 108.454 369.796 109.55 373.448 116.029 c 24
 384.079 134.896 378.538 148.829 379.127 169.941 c 24
 379.701 190.441 381.194 203.118 376.546 222.47 c 8
 374.282 231.901 362.289 231.351 351.761 233.529 c 24
 327.042 238.645 313.033 233.069 286.699 233.069 c 8
 272.559 233.069 249.379 235.48 254.168 247.353 c 16
 268.109 281.913 283.604 301.341 305.287 334.442 c 24
 332.18 375.496 341.759 403.295 379.644 436.738 c 24
 394.897 450.201 405.51 468.328 426.117 463.002 c 24
 438.317 459.848 442.093 447.926 440.058 436.738 c 24
 438.987 430.841 429.226 431.579 428.183 425.678 c 16
 423.536 399.413 424.752 375.953 424.052 344.119 c 24
 423.374 313.394 423.018 288.824 424.568 265.324 c 8
 425.598 249.691 451.973 263.943 469.491 263.02 c 24
 482.784 262.319 492.461 267.726 503.571 261.177 c 24
 512.589 255.861 518.738 248.381 515.964 239.059 c 24
 513.727 231.544 505.714 230.254 497.375 228 c 24
 481.185 223.626 470.834 229.488 454 228 c 24
 443.782 227.097 429.967 232.417 428.183 223.393 c 16
 423.536 199.892 426.622 184.048 426.117 158.882 c 24
 425.62 134.087 425.6 117.411 425.6 95.2939 c 8
 425.6 86.043 441.879 90.6328 448.836 83.7734 c 24
 455.314 77.3877 461.385 71.7588 458.648 63.5 c 24
 454.941 52.3154 443.633 48.9482 430.764 46.9111 c 24
95.7275 68.5293 m 8
 95.0859 66.5615 96.9805 65.0059 98.9238 64.291 c 24
 106.828 61.3838 116.674 61.2627 120 69 c 16
 140.244 116.093 224.431 248.607 284.092 367.181 c 24
 338.807 475.925 384.166 573.297 414 651 c 8
 416.874 658.484 401.999 655.348 393.99 655.709 c 24
 390.076 655.886 385.22 658.034 384.045 654.297 c 16
 362.736 586.483 312.632 484.312 260.886 378.482 c 24
 200.72 255.433 112.775 120.803 95.7275 68.5293 c 8
EndSplineSet
LCarets: 0 65535 '    ' 2 0 0 
Ligature: 0 1 'frac' three slash four
Ligature: 0 1 'frac' three fraction four
EndChar
StartChar: AE
Encoding: 198 198 66
Width: 865
Flags: W
Back
Fore
390 426 m 16
 399 465 405 501 424 537 c 8
 444.979 576.75 456.489 599.704 483 636 c 24
 506.955 668.797 519 669 552 714 c 8
 579.063 750.905 492 690 453 651 c 8
 415.588 613.588 401.364 585.873 375 540 c 24
 351.262 498.694 339 480 324 429 c 8
 319.983 415.345 345.774 423.466 360 423 c 24
 371.752 422.615 387.356 414.543 390 426 c 16
528 183 m 16
 540 258 551.016 307.261 564 387 c 24
 576.738 465.229 584.558 509.306 594 588 c 24
 598.618 626.493 592.145 649.781 603 687 c 16
 624 759 538.027 628.398 516 579 c 24
 480.279 498.893 475.248 444.582 480 357 c 24
 483.813 286.709 516.878 113.489 528 183 c 16
387 351 m 16
 357 357 327.731 377.132 294 363 c 24
 254.72 346.543 251.155 311.744 228 276 c 24
 189.568 216.675 174 174 141 117 c 8
 126.333 91.666 187.714 121.538 216 114 c 24
 245.329 106.185 255.82 86.3538 285 78 c 24
 314.331 69.6025 332.493 71.5713 363 72 c 24
 385.351 72.3145 405.998 95.4235 420 78 c 24
 431.589 63.5801 417.648 46.5001 405 33 c 24
 381.678 8.10742 357.475 6.55726 324 0 c 24
 296.443 -5.39746 279.469 -5.82926 252 0 c 24
 229.456 4.78418 219.553 15.837 198 24 c 24
 176.199 32.2568 164.289 43.036 141 42 c 24
 105.545 40.4229 91.8007 13.9601 57 7 c 24
 39.791 3.55859 7.5332 -9.97168 12 7 c 16
 27 64 37.5898 97.1133 69 147 c 16
 171 309 209.171 400.965 312 555 c 24
 350.067 612.023 360 612 417 696 c 8
 441.546 732.173 348.014 685.721 309 666 c 24
 241.321 631.789 201.338 606.788 156 546 c 24
 127.423 507.685 112.924 479.76 111 432 c 24
 109.868 403.895 127.045 390.688 132 363 c 24
 135.51 343.388 147.246 327.717 135 312 c 24
 119.627 292.271 95.0204 290.22 72 300 c 24
 38.5488 314.212 37.3318 345.53 21 378 c 24
 10.3545 399.164 -4.09565 411.666 0 435 c 24
 13.4932 511.873 70.6884 536.121 129 588 c 24
 187.671 640.198 226.472 664.465 297 699 c 24
 362.462 731.055 402.083 747.142 474 759 c 24
 486.698 761.094 494.625 755.465 507 759 c 16
 528 765 543.554 764.248 567 767 c 24
 593.863 770.152 609.088 771.289 636 774 c 24
 659.398 776.356 672.654 777.166 696 780 c 24
 712.426 781.994 721.825 789.488 738 786 c 24
 752.912 782.784 759.311 774.802 771 765 c 24
 785.595 752.763 805.763 747.965 804 729 c 24
 802.917 717.351 789.778 717.425 780 711 c 24
 764.233 700.641 756.818 685.663 738 687 c 24
 724.693 687.945 721.001 699.172 711 708 c 24
 702.316 715.665 700.908 725.106 690 729 c 24
 678.926 732.953 664.129 737.01 660 726 c 16
 642 678 642.544 640.396 636 585 c 24
 631.873 550.065 630 530.178 630 495 c 16
 630 455 666.851 494.832 687 505 c 24
 697.098 510.096 698.6 518.711 708 525 c 24
 717.577 531.407 723.59 535.391 735 537 c 24
 749.036 538.979 758.48 538.646 771 532 c 24
 794.172 519.7 801.4 503.797 816 482 c 24
 828.037 464.028 843.128 453.402 840 432 c 24
 837.484 414.79 824.289 408.918 810 399 c 24
 799.648 391.814 792.185 383.788 780 387 c 24
 758.268 392.729 758.989 415.253 744 432 c 24
 730.758 446.795 727.56 464.587 708 468 c 24
 686.345 471.779 675.216 456.305 657 444 c 24
 638.478 431.487 625.416 424.777 615 405 c 24
 585.237 348.488 597.366 306.552 591 243 c 24
 584.344 176.55 543.411 126.504 582 72 c 24
 593.98 55.0791 612.269 57.1566 633 57 c 24
 654.856 56.835 665.962 66.0727 687 72 c 24
 714.328 79.6992 732.414 106.2 757 92 c 24
 763.962 87.9785 762.658 80.0127 762 72 c 24
 760.956 59.292 754.758 53.3771 749 42 c 24
 744.107 32.3311 743.874 24.2191 735 18 c 24
 702.863 -4.52246 675.21 1.6203 636 0 c 24
 587.844 -1.99023 558.707 -3.29412 513 12 c 24
 489.595 19.832 475.696 26.8229 459 45 c 24
 434.224 71.9746 427.332 93.8603 417 129 c 24
 401.729 180.938 409.688 213.412 402 267 c 24
 397.274 299.941 419.632 344.474 387 351 c 16
EndSplineSet
EndChar
StartChar: Edieresis
Encoding: 203 203 89
Width: 712
Flags: W
VStem: 427 40<414 441>
Fore
411.433 874.749 m 4
 392.91 863.654 389.312 858.746 372 850.638 c 28
 357.069 843.643 349.031 835.242 330.104 835.875 c 28
 315.708 836.36 309.402 842.356 300.528 849.163 c 28
 288.333 858.517 277.794 865.479 280.812 877.209 c 28
 284.659 892.145 302.751 897.488 322.709 906.732 c 28
 339.6 914.554 350.724 922.062 372 921 c 20
 401.576 919.524 399.108 921 416.363 908.209 c 4
 434.021 895.113 433.615 888.034 411.433 874.749 c 4
583.135 874.749 m 4
 564.135 859.749 561.011 858.746 543.699 850.638 c 28
 528.768 843.643 520.729 835.242 501.801 835.875 c 28
 487.407 836.36 481.1 842.356 472.227 849.163 c 28
 460.034 858.517 449.489 865.479 452.512 877.209 c 28
 456.356 892.145 471.988 899.801 494.405 906.732 c 20
 519.875 914.603 522.423 922.062 543.699 921 c 20
 573.276 919.524 570.811 921 588.061 908.209 c 4
 605.718 895.113 603.427 890.77 583.135 874.749 c 4
EndSplineSet
Ref: 69 69 N 1 0 0 1 5 0
EndChar
StartChar: multiply
Encoding: 215 215 92
Width: 262
Flags: W
Fore
202.52 498.42 m 24
 212.147 498.524 217.561 503.185 224.28 510.08 c 24
 232.032 518.034 238.144 524.464 237.08 535.52 c 24
 235.829 548.521 228.324 556.263 216.6 562.02 c 24
 208.534 565.979 202.282 564.178 193.56 562.02 c 24
 175.483 557.548 166.795 550.117 151.32 539.76 c 24
 137.264 530.353 134.694 514.716 118 512 c 24
 101.059 509.244 93.7695 531.663 77 528 c 24
 59.6367 524.207 53 506.899 45.3203 495.24 c 8
 40.6475 488.146 58.6924 492.473 65.7998 487.819 c 24
 72.4746 483.449 76.751 480.318 79.8799 472.979 c 24
 92.3799 443.666 91.6729 422.218 83.7197 391.359 c 24
 77.2998 366.449 63.0869 356.808 49.1602 335.18 c 24
 35.1289 313.39 24.8398 299.14 12.04 280.06 c 8
 2.10352 265.248 43.4805 282.275 54.9199 295.96 c 16
 66.4395 309.74 71.8525 319.783 82.4395 335.18 c 24
 92.042 349.145 91.4043 363.963 106.72 371.22 c 24
 128.85 381.705 145.339 360.059 169.24 365.39 c 24
 179.981 367.785 192.793 368.722 193.56 379.7 c 24
 195.735 410.862 139.187 399.417 130.84 429.52 c 24
 120.993 465.031 129.655 504.641 164 518 c 24
 179.706 524.109 185.669 498.237 202.52 498.42 c 24
EndSplineSet
EndChar
StartChar: Oslash
Encoding: 216 216 71
Width: 523
Flags: W
Fore
128 564 m 20
 155 636 175.085 660.972 233 675 c 28
 277.595 685.802 309.479 666.229 344 636 c 28
 383.497 601.414 389.674 566.213 405 516 c 28
 418.077 473.157 415.789 446.679 419 402 c 28
 422.942 347.139 426.271 315.836 422 261 c 28
 419.416 227.822 415.208 209.25 407 177 c 28
 399.699 148.315 399.859 129.328 383 105 c 28
 376.998 96.3389 372.403 89.6748 362 88 c 28
 343.479 85.0176 335.185 100.389 317 105 c 28
 291.819 111.386 276.826 111.194 251 114 c 28
 207.822 118.691 112.754 89.1777 140 123 c 20
 169 159 170.27 163.188 184 192 c 28
 197.264 219.833 204.625 236.479 209 267 c 28
 211.99 287.861 212.702 300.712 207 321 c 28
 199.016 349.408 184.325 361.202 170 387 c 28
 157.035 410.348 144.632 421.408 137 447 c 28
 123.922 490.856 111.931 521.149 128 564 c 20
116 267 m 28
 124.491 226.923 124.327 201.37 113 162 c 28
 106.619 139.823 95.6895 130.273 83 111 c 28
 59.0654 74.6455 44 57 17 21 c 12
 10.5283 12.3701 25.5303 -5.16504 35 0 c 20
 68 18 76.9707 37.2725 110 48 c 28
 128.95 54.1543 141.088 51.707 161 51 c 28
 188.121 50.0371 204.132 50.2031 230 42 c 28
 253.945 34.4062 262.284 7.50586 287 12 c 20
 320 18 338.938 8.13184 368 21 c 28
 392.255 31.7393 406.402 42.6562 419 66 c 28
 422.929 73.2803 417.806 79.8691 422 87 c 20
 452 138 471.978 171.336 488 231 c 28
 500.802 278.673 498.663 307.655 500 357 c 28
 501.554 414.356 501.292 447.088 494 504 c 28
 487.001 558.631 490.393 593.658 464 642 c 28
 441.799 682.664 422.803 708.271 380 726 c 28
 322.71 749.73 266 741 221 726 c 4
 187.81 714.938 73.7881 623.274 51 525 c 4
 35 456 39.8369 450.685 50 405 c 28
 62.9541 346.765 103.636 325.363 116 267 c 28
EndSplineSet
Ref: 47 47 S 1.52464 0 0 1.13632 -44.7038 -11.5672
EndChar
StartChar: Thorn
Encoding: 222 222 74
Width: 610
Flags: W
VStem: 141 87<519 612>
Back
Fore
216 163 m 8
 216 89.8574 333.852 181.972 393 225 c 24
 452.418 268.225 488.966 303.77 507 375 c 24
 523.854 441.571 517.675 491.585 480 549 c 24
 451.15 592.965 420 609 366 621 c 1
 320.079 642.62 228 612 228 612 c 1
 228 528 221.568 452.818 219 351 c 24
 217.151 277.694 216 235 216 163 c 8
27 657 m 24
 9.1582 686.862 64.918 696.469 93 717 c 24
 134.472 747.32 183 762 207 783 c 8
 225.083 798.823 218.027 746.844 221 723 c 24
 223.558 702.485 225 703 222 670 c 8
 217.445 619.896 301.263 676.58 351 669 c 24
 418.69 658.684 465.518 660.757 519 618 c 24
 565.247 581.027 590.393 545.1 594 486 c 24
 599.25 399.97 559.87 351.576 509 282 c 24
 469.477 227.943 433.165 208.961 378 171 c 24
 337.308 142.998 308.907 136.148 267 110 c 24
 245.152 96.3682 213 97.752 213 72 c 16
 213 30 204.375 20.9199 201 -12 c 24
 197.175 -49.3174 198 -69 195 -108 c 8
 193.63 -125.807 206.964 -133.805 219 -147 c 24
 230.827 -159.967 256.311 -156.499 255 -174 c 24
 253.709 -191.227 233.142 -192.855 216 -195 c 24
 182.493 -199.192 161.923 -189.651 132 -174 c 24
 109.958 -162.472 93.3284 -155.059 84 -132 c 24
 78.7168 -118.939 78.6233 -107.328 87 -96 c 24
 94.4922 -85.8682 117 -96.6016 117 -84 c 16
 117 33 124.684 84.3447 129 192 c 24
 134.111 319.514 139.76 391.391 141 519 c 24
 141.66 586.867 147 618 138 693 c 8
 135.089 717.256 101.226 682.578 78 675 c 24
 57.9482 668.458 37.8181 638.893 27 657 c 24
EndSplineSet
EndChar
StartChar: adieresis
Encoding: 228 228 93
Width: 300
Flags: W
Fore
129 492 m 4
 112.019 474.158 108.721 466.27 92.8467 453.232 c 28
 79.1582 441.984 71.791 428.477 54.4375 429.497 c 28
 41.2393 430.275 35.458 439.916 27.3213 450.858 c 28
 16.1416 465.898 6.47754 477.092 9.24609 495.954 c 28
 12.7725 519.968 27.7617 531.172 47.6572 543.425 c 20
 71.9648 558.396 73.3398 568.073 92.8467 566.365 c 20
 119.961 563.99 117.702 566.365 133.521 545.796 c 4
 149.709 524.744 149.336 513.359 129 492 c 4
286.416 492 m 4
 269.432 474.158 266.134 466.27 250.264 453.232 c 28
 236.575 441.984 229.203 428.477 211.851 429.497 c 28
 198.653 430.275 192.87 439.916 184.736 450.858 c 28
 173.557 465.898 163.891 477.092 166.66 495.954 c 28
 170.185 519.968 184.52 532.279 205.07 543.425 c 20
 228.422 556.079 230.756 568.073 250.264 566.365 c 20
 277.378 563.99 275.118 566.365 290.933 545.796 c 4
 307.121 524.744 306.753 513.359 286.416 492 c 4
EndSplineSet
Ref: 97 97 N 1 0 0 1 0 0
EndChar
StartChar: ae
Encoding: 230 230 76
Width: 517
Flags: W
Back
Fore
276 234 m 0
 276 207.167 324.842 259.159 351 282 c 24
 374.133 302.2 402.173 311.289 402 342 c 24
 401.934 353.887 391.135 357.393 382 365 c 24
 374.342 371.377 366.38 385.656 360 378 c 16
 345 360 335.738 361.549 321 350 c 24
 304.451 337.033 310 330 280 315 c 8
 268.232 309.116 273.964 295.121 273 282 c 24
 271.626 263.294 276 249 276 234 c 0
174 93 m 24
 182.866 106.822 172.067 118.613 171 135 c 24
 169.705 154.882 184.328 174.581 168 186 c 24
 157.99 193.001 148.817 182.674 138 177 c 24
 124.731 170.04 113.355 166.994 108 153 c 24
 102.913 139.706 110.422 130.776 114 117 c 24
 118.372 100.165 113.059 81.956 129 75 c 24
 137.167 71.4365 141.731 80.6798 150 84 c 24
 159.276 87.7246 168.603 84.5859 174 93 c 24
429 93 m 24
 435.595 74.2354 418.891 62.2352 405 48 c 24
 383.412 25.877 365.094 19.4411 336 9 c 24
 316.99 2.17773 305.195 0.293295 285 0 c 24
 255.44 -0.429688 236.308 -2.48636 210 11 c 24
 195.028 18.6748 196.431 38.3805 180 42 c 24
 151.425 48.2949 136.914 26.4818 110 15 c 24
 97.3223 9.5918 91.4238 -3.12695 78 0 c 24
 48.8145 6.79883 39.3941 31.5438 30 60 c 24
 20.0898 90.0186 11.7354 117.609 33 141 c 16
 63 174 61.8096 173.073 84 189 c 24
 116.317 212.195 151.937 203.898 174 237 c 24
 192.251 264.383 179.709 288.172 182 321 c 24
 183.224 338.524 190.868 349.831 184 366 c 24
 177.086 382.276 167.676 395.452 150 396 c 24
 136.666 396.413 129.884 386.427 123 375 c 24
 112.577 357.699 117.291 343.928 114 324 c 24
 111.492 308.816 115.229 298.585 108 285 c 24
 98.2764 266.727 88.7091 255.325 69 249 c 24
 51.0371 243.235 32.8603 240.329 21 255 c 24
 4.01855 276.006 24.1543 297.139 27 324 c 24
 28.9873 342.761 22.7029 356.193 33 372 c 24
 51.6182 400.582 77.0096 402.746 108 417 c 24
 141.613 432.46 161.028 448.42 198 447 c 24
 222.103 446.074 233.755 434.421 255 423 c 24
 266.146 417.008 274.538 415.222 282 405 c 24
 287.021 398.12 261 390 288 384 c 8
 308.103 379.533 317.66 396.635 336 406 c 24
 363.529 420.058 374.126 446.52 405 445 c 24
 435.476 443.5 448.287 422.404 469 400 c 24
 484.074 383.694 513.702 366.702 498 351 c 16
 456 309 423.927 287.597 375 249 c 24
 333.664 216.391 287.694 216.413 267 168 c 24
 255.421 140.911 259.044 117.091 276 93 c 24
 291.058 71.6055 309.889 61.3744 336 63 c 24
 357.052 64.3105 362.053 83.7332 381 93 c 24
 390.971 97.877 396.91 102.461 408 102 c 24
 416.902 101.63 426.046 101.406 429 93 c 24
EndSplineSet
EndChar
StartChar: ccedilla
Encoding: 231 231 76
Width: 299
Flags: W
VStem: 18 82<171 253>
Fore
169 45 m 9
 197.08 76.5898 220 78 241 126 c 8
 254.856 157.671 194.445 87.0689 160 90 c 24
 151.594 90.7158 148.761 96.952 142 102 c 24
 127.355 112.935 111.593 114.601 106 132 c 16
 97 160 99.3311 194.157 100 234 c 24
 100.355 255.147 99.8333 267.49 105 288 c 24
 111.83 315.113 113.806 363.033 133 354 c 0
 184 330 157.914 334.643 175 324 c 24
 189.663 314.866 196.748 303.892 214 303 c 24
 235.481 301.889 249.245 309.356 265 324 c 24
 278.414 336.468 300.068 354.276 286 366 c 16
 250 396 262.146 386.667 247 400 c 24
 232.9 412.412 228.162 424.364 211 432 c 24
 201.32 436.307 194.339 437.314 184 435 c 24
 141.115 425.4 121.467 404.481 88 376 c 24
 56.6221 349.297 23.8594 344.594 19 296 c 0
 16 266 18.935 227.672 18 184 c 24
 17.0146 137.964 14 132 14 66 c 8
 14 45.2715 51.0635 46.626 49 26 c 16
 47.7617 13.6211 79 18 87 0 c 0
 99.2451 -27.5508 98.7539 -78.6367 89 -110 c 8
 81.6299 -133.7 71 -125 44 -155 c 8
 17.1387 -184.846 101.34 -129.38 138 -113 c 17
 138 -78 141 -45 143 0 c 0
 143.486 10.9421 168.237 35.8524 169 45 c 9
EndSplineSet
EndChar
StartChar: ecircumflex
Encoding: 234 234 76
Width: 307
Fore
70.9922 475.239 m 16
 104.225 507.88 110.033 522.272 137.458 548.84 c 24
 150.971 561.931 162.851 595.743 173.855 579.56 c 16
 191.263 553.96 198.73 548.447 215 529 c 24
 229.614 511.53 238.737 500.2 252.98 484.84 c 8
 259.719 477.572 241.95 473.978 233.99 468.84 c 24
 226.975 464.312 220.619 453.062 215 459.88 c 16
 203.923 473.319 195.878 489.729 183.35 508.52 c 24
 177.47 517.34 176.858 534.735 168.053 530.92 c 16
 145.897 521.319 150.413 520.235 139.04 513.64 c 24
 112.633 498.326 48.2432 452.896 70.9922 475.239 c 16
EndSplineSet
Ref: 101 101 N 1 0 0 1 0 0
EndChar
StartChar: edieresis
Encoding: 235 235 94
Width: 307
Fore
132.26 531.574 m 4
 116.991 519.565 114.026 514.253 99.7549 505.477 c 28
 87.4473 497.905 80.8223 488.813 65.2197 489.498 c 28
 53.3535 490.023 48.1553 496.514 40.8408 503.881 c 28
 30.7881 514.005 22.1006 521.541 24.5889 534.237 c 28
 27.7598 550.402 42.6729 556.187 59.124 566.192 c 28
 73.0469 574.658 82.2168 582.784 99.7549 581.635 c 20
 124.135 580.038 122.101 581.635 136.324 567.79 c 4
 150.879 553.616 150.545 545.954 132.26 531.574 c 4
273.795 531.574 m 4
 258.133 515.339 255.558 514.253 241.288 505.477 c 28
 228.979 497.905 222.354 488.813 206.751 489.498 c 28
 194.886 490.023 189.687 496.514 182.372 503.881 c 28
 172.322 514.005 163.63 521.541 166.121 534.237 c 28
 169.291 550.402 182.176 558.689 200.654 566.192 c 20
 221.649 574.711 223.75 582.784 241.288 581.635 c 20
 265.669 580.038 263.636 581.635 277.855 567.79 c 4
 292.41 553.616 290.521 548.914 273.795 531.574 c 4
EndSplineSet
Ref: 101 101 N 1 0 0 1 0 0
EndChar
StartChar: idieresis
Encoding: 239 239 95
Width: 208
Flags: W
VStem: 64 81<105 257 246 338>
Fore
92.1641 494.808 m 4
 81.4062 483.436 79.3184 478.407 69.2627 470.099 c 28
 60.5908 462.93 55.9229 454.319 44.9297 454.971 c 28
 36.5693 455.467 32.9082 461.611 27.7539 468.585 c 28
 20.6709 478.172 14.5488 485.306 16.3027 497.328 c 28
 18.5361 512.634 28.0322 519.775 40.6357 527.584 c 20
 56.0342 537.127 56.9053 543.294 69.2627 542.205 c 20
 86.4385 540.692 85.0068 542.205 95.0273 529.096 c 4
 105.283 515.678 105.048 508.421 92.1641 494.808 c 4
191.885 494.808 m 4
 181.126 483.436 179.037 478.407 168.983 470.099 c 28
 160.312 462.93 155.642 454.319 144.648 454.971 c 28
 136.289 455.467 132.625 461.611 127.473 468.585 c 28
 120.391 478.172 114.268 485.306 116.021 497.328 c 28
 118.255 512.634 127.335 520.48 140.354 527.584 c 20
 155.146 535.65 156.625 543.294 168.983 542.205 c 20
 186.159 540.692 184.728 542.205 194.746 529.096 c 4
 205.001 515.678 204.769 508.421 191.885 494.808 c 4
EndSplineSet
Ref: 105 105 N 1 0 0 1 0 0
EndChar
StartChar: eth
Encoding: 240 240 96
Width: 461
Flags: W
VStem: 87 102<203 242>
Back
Fore
276 104 m 24
 287.286 100.702 296.777 99.7061 306 107 c 24
 334.149 129.265 332.453 158.285 336 194 c 24
 340.899 243.343 340.791 275.459 319 320 c 24
 306.274 346.012 295.845 370.443 267 373 c 24
 245.549 374.901 234.812 358.309 222 341 c 24
 197.786 308.288 189.197 282.698 189 242 c 24
 188.815 203.89 197.253 180.297 219 149 c 24
 235.162 125.741 248.814 111.944 276 104 c 24
240 2 m 24
 195.162 7.40234 175.382 35.8703 147 71 c 24
 111.462 114.986 87 146.451 87 203 c 24
 87 259.549 115.726 287.887 147 335 c 24
 169.896 369.491 190.318 383.147 219 413 c 24
 227.024 421.352 237.783 422.632 240 434 c 24
 244.215 455.613 229.925 467.488 218 486 c 24
 207.089 502.938 202.817 520.365 183 524 c 24
 170.134 526.36 165.647 512.339 153 509 c 24
 131.477 503.317 107.913 487.196 96 506 c 24
 86.7549 520.593 104.678 532.892 117 545 c 24
 136.408 564.072 165.34 553.466 179 577 c 24
 188.21 592.867 178.044 605.684 177 624 c 24
 176.065 640.396 173 633 174 666 c 8
 174.782 691.811 137.595 648.492 114 638 c 24
 83.8193 624.579 68.9307 607.562 36 605 c 24
 21.5713 603.878 -10.9883 604.582 0 614 c 16
 42 650 47.6172 646.276 78 667 c 24
 121.343 696.563 144.667 714.944 189 743 c 24
 216.47 760.384 228.496 784.445 261 785 c 24
 278.272 785.295 310.791 777.489 300 764 c 16
 276 734 271.619 739.475 269 718 c 16
 264 677 273 661 274 620 c 0
 274.532 598.166 310.445 633.592 333 644 c 24
 365.31 658.91 378.658 681.857 414 686 c 24
 423.582 687.123 435.722 689.375 438 680 c 24
 447.198 642.139 394.806 636.506 363 614 c 24
 341.479 598.771 340 599 304 581 c 8
 259.617 558.809 327 506 354 464 c 8
 393.638 402.342 421.301 365.516 432 293 c 24
 441.307 229.923 433.053 190.446 410 131 c 24
 396.114 95.1934 383.809 74.2144 354 50 c 24
 316.557 19.584 287.894 -3.77006 240 2 c 24
EndSplineSet
EndChar
StartChar: odieresis
Encoding: 246 246 96
Width: 340
VStem: 20.0684 83.7373<164 256> 248 76.308<95 242.608>
Fore
170.095 526.877 m 4
 155.424 512.575 152.575 506.251 138.861 495.801 c 28
 127.035 486.784 120.67 475.956 105.678 476.774 c 28
 94.2754 477.398 89.2812 485.126 82.252 493.897 c 28
 72.5928 505.954 64.2441 514.927 66.6357 530.047 c 28
 69.6826 549.296 82.6318 558.277 99.8203 568.1 c 20
 120.82 580.1 122.009 587.857 138.861 586.488 c 20
 162.286 584.585 160.334 586.488 174 570 c 4
 187.986 553.125 187.664 543.999 170.095 526.877 c 4
306.092 526.877 m 4
 291.418 512.575 288.569 506.251 274.858 495.801 c 28
 263.032 486.784 256.663 475.956 241.672 476.774 c 28
 230.271 477.398 225.274 485.126 218.247 493.897 c 28
 208.589 505.954 200.238 514.927 202.631 530.047 c 28
 205.676 549.296 218.06 559.165 235.814 568.1 c 20
 255.988 578.243 258.005 587.857 274.858 586.488 c 20
 298.283 584.585 296.331 586.488 309.993 570 c 4
 323.979 553.125 323.661 543.999 306.092 526.877 c 4
EndSplineSet
Ref: 111 111 N 1 0 0 1 0 0
EndChar
StartChar: divide
Encoding: 247 247 97
Width: 315
Flags: W
HStem: 327 40.029<52.3542 267.354>
Fore
181.987 429.32 m 0
 171.84 417.819 169.87 412.734 160.388 404.33 c 24
 152.208 397.08 147.806 388.372 137.438 389.03 c 24
 129.553 389.529 126.098 395.745 121.237 402.8 c 24
 114.558 412.496 108.783 419.712 110.438 431.87 c 24
 112.543 447.35 122.455 452.889 133.388 462.47 c 24
 142.64 470.578 148.732 478.36 160.388 477.26 c 16
 176.588 475.729 175.237 477.26 184.688 464 c 0
 194.359 450.43 194.138 443.09 181.987 429.32 c 0
181.987 259.32 m 0
 171.84 247.819 169.87 242.734 160.388 234.33 c 24
 152.208 227.08 147.806 218.372 137.438 219.03 c 24
 129.553 219.529 126.098 225.745 121.237 232.8 c 24
 114.558 242.496 108.783 249.712 110.438 261.87 c 24
 112.543 277.35 122.455 282.889 133.388 292.47 c 24
 142.64 300.578 148.732 308.36 160.388 307.26 c 16
 176.588 305.729 175.237 307.26 184.688 294 c 0
 194.359 280.43 194.138 273.09 181.987 259.32 c 0
EndSplineSet
Ref: 45 45 N 1 0 0 1 -6.64578 0
EndChar
StartChar: oslash
Encoding: 248 248 95
Width: 340
Flags: W
VStem: 18.0684 83.7376<164 256>
Fore
170 347 m 0
 222 353 200 348 221 334 c 0
 254.999 311.334 237 201 246 95 c 8
 248.943 60.3395 188.674 83.1299 156.833 97.1357 c 24
 129.728 109.059 107.576 122.441 104.198 151.86 c 16
 102 171 101.499 176.299 101.806 191.964 c 24
 102.672 236.255 98 285 113 305 c 0
 132.209 330.613 140.766 343.627 170 347 c 0
140.506 419.38 m 0
 68.4453 364.062 43.0386 365.084 27.6377 304.068 c 16
 15 254 16.877 220.425 18.0684 166.757 c 24
 18.7969 133.953 12.8389 112.455 27.6377 83.1699 c 24
 36.8315 64.9768 49.0049 58.9609 65.918 47.583 c 24
 90.6807 30.9248 105.577 17.9854 135.301 15.3076 c 24
 183.328 10.9811 208.272 34.3857 254.926 46.583 c 17
 286.278 65.5498 307.576 54.7471 322.308 122.067 c 9
 321.849 170.629 329.423 192.633 321.131 246.586 c 0
 312 306 317.131 332 309.953 386.621 c 8
 306.902 409.835 282.152 412.807 259.711 419.483 c 24
 215.151 432.741 183 452 140.506 419.38 c 0
EndSplineSet
Ref: 47 47 N 1.00074 0 0 0.742397 -11.6243 -29.144
EndChar
StartChar: thorn
Encoding: 254 254 99
Width: 448
Flags: W
VStem: 90 83<75 459.662>
Back
Fore
173 228 m 0
 173 171 244.277 253.417 279 285 c 24
 310.207 313.385 324.478 335.393 339 375 c 24
 349.542 403.75 359.731 424.714 348 453 c 24
 334.28 486.082 303 501 276 510 c 8
 259.313 515.562 247.835 512.095 231 507 c 24
 207.758 499.967 178.862 500.212 177 476 c 16
 174 437 174.864 386.945 174 330 c 24
 173.396 290.223 173 255 173 228 c 0
-15 -192 m 24
 -28.0283 -185.698 -23.5288 -170.465 -24 -156 c 24
 -24.4258 -142.926 -24.7024 -134.233 -18 -123 c 24
 -6.48438 -103.699 8.73137 -100.092 27 -87 c 24
 49.9521 -70.5527 86.0352 -76.168 88 -48 c 16
 97 81 88.3814 162.457 90 297 c 24
 91.0273 382.418 92.9687 430.582 94 516 c 24
 94.8008 582.296 101 656 95 686 c 8
 91.9863 701.07 77.8671 666.896 63 663 c 24
 52.751 660.314 45.7472 661.848 36 666 c 24
 27.5928 669.581 18.6672 671.887 18 681 c 24
 15.8223 710.75 44.9993 720.287 69 738 c 24
 107.332 766.29 133.82 800.708 180 789 c 24
 191.341 786.125 196.41 776.592 198 765 c 24
 201.07 742.613 179.248 733.484 177 711 c 16
 171 651 171 588 174 549 c 8
 176.251 519.743 219.771 552.417 249 555 c 24
 285.298 558.208 308.242 577.72 342 564 c 24
 397.374 541.494 433.886 506.349 441 447 c 24
 448.784 382.06 407.705 347.384 366 297 c 24
 310.643 230.122 270 210 189 162 c 8
 150.672 139.287 167.303 95.2354 162 51 c 24
 158.519 21.958 171.834 3.54767 162 -24 c 24
 145.229 -70.9824 115.179 -86.662 81 -123 c 24
 61.3359 -143.906 50.9148 -157.13 27 -173 c 24
 12.0205 -182.94 1.18467 -199.828 -15 -192 c 24
EndSplineSet
EndChar
StartChar: Aogonek
Encoding: 260 260 102
Width: 619
VStem: 411 102<168 276>
Fore
423 366 m 16
 426 390 427 430 430 454 c 0
 430.528 458.229 435.632 609 426 609 c 0
 401.114 609 395.845 574.193 387 552 c 0
 375.877 524.09 364.369 511.068 351 486 c 8
 327.576 442.079 312.57 418.29 288 375 c 17
 333 360 291 366 357 366 c 1
 390 366 419.807 340.458 423 366 c 16
140 246 m 16
 184 306 210.401 341.195 251 405 c 24
 272.762 439.201 284 456 303 495 c 0
 336.498 563.76 363 585 381 654 c 8
 391.487 694.202 323.636 622.712 291 597 c 24
 248.754 563.716 227.66 541.26 192 501 c 24
 163.762 469.119 141.291 453.749 126 414 c 24
 111.243 375.641 111.579 349.741 117 309 c 24
 120.45 283.072 124.532 224.907 140 246 c 16
474 3.64355 m 1
 456.464 7.05332 441.661 13.6864 429 30 c 8
 395.723 72.8779 412.284 113.739 411 168 c 24
 409.991 210.643 416 235 420 277 c 8
 422.403 302.235 384.467 295.368 360 302 c 24
 323.534 311.884 302 320 264 315 c 8
 213.205 308.316 208 258 180 214 c 8
 159.781 182.228 145.169 166.014 129 132 c 24
 123.334 120.081 104.884 98.543 118 100 c 16
 154 104 163.152 111.236 192 108 c 24
 231.344 103.587 261 105 288 75 c 8
 304.585 56.5723 345.036 78.6142 348 54 c 24
 351.337 26.291 315.015 22.0063 288 15 c 24
 255.078 6.46191 234.364 14.3997 201 21 c 24
 168.334 27.4619 153.278 46.8338 120 48 c 24
 77.7441 49.4805 43.1958 -10.5084 15 21 c 24
 -9.19922 48.042 30.7401 76.0782 48 108 c 24
 73.2295 154.662 108 174 128 218 c 8
 137.559 239.028 87.039 214.403 70 230 c 24
 39.0566 258.324 34.7787 291.263 39 333 c 24
 45.9531 401.749 79.4843 435.324 123 489 c 24
 185.737 566.386 235.109 598.739 318 654 c 16
 372 690 406.173 737.131 474 732 c 24
 498.276 730.163 523.527 720.302 525 696 c 16
 531 597 518.633 542.308 516 444 c 24
 514.245 378.493 513.065 341.53 513 276 c 24
 512.927 202.28 488.731 155.49 516 87 c 24
 523.045 69.3047 530.49 55.4891 549 51 c 24
 572.023 45.416 590.385 89.8164 606 72 c 24
 622.558 53.1084 596.061 30.1201 576 15 c 16
 563.849 5.84142 539.368 -5.29102 527 -7 c 0
 530 -37 516.171 -64.1426 530 -96 c 24
 539.883 -118.767 548 -111 575 -141 c 8
 598.453 -167.059 526.2 -115.99 495 -100 c 17
 472.82 -73.1279 470 -52.3564 474 3.64355 c 1
EndSplineSet
EndChar
StartChar: ccircumflex
Encoding: 265 265 88
Width: 299
Flags: W
VStem: 14 86<66 234> 18 82<184 257>
Fore
39.1631 453.68 m 20
 86.6035 486.32 94.8945 500.712 134.043 527.28 c 28
 153.333 540.371 170.292 574.184 186 558 c 20
 210.85 532.4 221.509 526.888 244.734 507.44 c 28
 265.596 489.971 278.619 478.641 298.951 463.28 c 12
 308.571 456.013 283.206 452.418 271.843 447.28 c 28
 261.829 442.753 252.756 431.503 244.734 438.32 c 20
 228.922 451.76 217.438 468.169 199.554 486.96 c 28
 191.16 495.78 190.287 513.176 177.718 509.36 c 20
 146.09 499.76 152.536 498.676 136.302 492.08 c 28
 98.6055 476.767 6.68945 431.337 39.1631 453.68 c 20
EndSplineSet
Ref: 99 99 N 1 0 0 1 0 0
EndChar
StartChar: Dcroat
Encoding: 272 272 132
Width: 493
Flags: W
Fore
195 105 m 8
 176.888 113.302 163.817 110.063 144 108 c 24
 130.731 106.618 111 85.6602 111 99 c 16
 111 126 111.656 155.787 114 192 c 24
 116.86 236.186 121.103 260.894 125 305 c 16
 125.517 310.846 147 299 186 306 c 0
 201.408 308.766 201.643 314.251 206.032 320 c 0
 212.21 328.091 218.773 336.705 219 339 c 0
 219.448 343.535 128.622 341.338 129 347 c 8
 131.599 385.931 119.379 410.08 132 447 c 24
 137.147 462.059 140.434 476.693 156 480 c 24
 190.353 487.299 205.918 456.09 234 435 c 24
 266.422 410.651 282.813 393.957 309 363 c 24
 329.12 339.215 337.785 323.601 354 297 c 24
 370.622 269.731 382.98 255.322 393 225 c 24
 400.787 201.434 400.756 186.788 402 162 c 24
 403.408 133.931 407.064 116.923 399 90 c 24
 395.085 76.9297 394.632 60.5928 381 60 c 16
 312 57 267 72 195 105 c 8
48 570 m 24
 47.8838 554.79 55.3731 547.16 63 534 c 24
 72.6221 517.397 86.821 513.167 93 495 c 24
 100.158 473.954 92.8975 460.229 93 438 c 16
 93.0849 419.511 93.4111 363.527 93.6982 349 c 0
 93.8047 343.587 50.21 356.174 40 350 c 0
 25.2021 341.052 19.0107 313.466 19 308 c 0
 18.9922 304.088 94.1123 314.146 94 307 c 8
 93.6807 286.688 92.0585 275.286 91 255 c 24
 87.9482 196.516 93 168 84 105 c 8
 79.2676 71.873 31.5392 83.0898 15 54 c 24
 9.18848 43.7783 1.4834 18.7412 12 24 c 16
 36 36 48.957 44.9729 75 51 c 24
 97.8262 56.2822 111.751 56.9041 135 54 c 24
 166.582 50.0547 182.078 37.5401 213 30 c 24
 251.126 20.7031 272.759 11.6558 312 12 c 24
 341.828 12.2617 358.513 18.1522 387 27 c 24
 404.019 32.2861 414.01 35.3631 429 45 c 24
 443.631 54.4062 454.095 59.5069 462 75 c 24
 481.262 112.749 473.477 140.624 474 183 c 24
 474.56 228.404 481.805 257.229 464 299 c 16
 438 360 413.08 405.238 360 456 c 24
 310.695 503.151 276 525 210 546 c 8
 171.637 558.207 145.408 570.728 126 606 c 24
 115.832 624.479 121.655 638.95 123 660 c 24
 125.049 692.062 122.105 713.08 138 741 c 24
 144.153 751.809 162.995 749.603 162 762 c 24
 161.116 773.002 148.541 780.273 138 777 c 24
 53.9287 750.898 48.675 658.027 48 570 c 24
EndSplineSet
EndChar
StartChar: dcroat
Encoding: 273 273 146
Width: 416
Flags: W
HStem: 381 71<238.063 248.282>
VStem: 82 95.4186<127 182 180 211> 85 94.793<250 304>
Fore
239 83 m 24
 259.877 81.9434 276.219 81.2188 291 96 c 24
 318.289 123.289 310.589 153.661 315 192 c 24
 320.617 240.824 317 270 313 318 c 8
 311.113 340.643 293.983 349.114 276 363 c 24
 262.741 373.238 253.716 382.096 237 381 c 24
 219.509 379.854 209.459 371.065 199 357 c 16
 177.251 327.751 179.202 287.288 179.793 251 c 0
 179.846 247.707 256.956 252.933 256.969 249.559 c 0
 257.002 240.536 243.161 219.656 242.408 210 c 0
 178.245 210 l 0
 177.949 205.931 177.672 203.932 177.419 200 c 0
 175.12 164.398 174.666 134.175 178 105 c 8
 180.871 79.874 213.742 84.2786 239 83 c 24
208 0 m 24
 157.315 0.681641 92.708 -8.09961 85 42 c 16
 79 81 81.8955 126.167 82 180 c 16
 82.019 189.746 82.167 203.201 82.3867 211 c 0
 82.4844 214.443 13.5957 209.759 13.7168 213 c 0
 14.168 225.086 30.75 236.146 31.2129 249 c 0
 31.3506 252.817 84.4775 246.793 84.5879 251 c 0
 84.8379 260.525 85 284.239 85 297 c 8
 85 332.814 110.954 331.302 142 369 c 0
 156 386 130.666 377.965 122 380 c 24
 103.76 384.282 92.666 376.375 74 378 c 24
 35.8193 381.324 -38 382 -22 399 c 0
 20.3877 444.037 30.9186 443.104 65 471 c 24
 89.4619 491.022 65 504 128 522 c 8
 155.047 529.728 120.948 455.078 149 453 c 16
 230 447 203.289 451.746 238 452 c 24
 283.254 452.331 306 452 354 455 c 8
 373.637 456.228 389.725 442.4 393 423 c 16
 406 346 406.393 292.773 399 210 c 24
 394.428 158.804 400.962 123.464 372 81 c 24
 349.145 47.4883 321.682 41.3172 285 24 c 24
 256.556 10.5713 239.452 -0.423127 208 0 c 24
EndSplineSet
EndChar
StartChar: gcircumflex
Encoding: 285 285 4
Width: 340
Fore
62.5996 478.835 m 16
 108.274 519.38 116.257 537.258 153.949 570.26 c 24
 172.521 586.521 188.851 628.522 203.975 608.42 c 16
 227.899 576.62 238.163 569.772 260.524 545.615 c 24
 280.61 523.914 293.149 509.84 312.725 490.76 c 8
 321.986 481.731 297.565 477.267 286.625 470.885 c 24
 276.982 465.26 268.247 451.286 260.524 459.755 c 16
 245.3 476.45 234.242 496.833 217.024 520.175 c 24
 208.943 531.132 208.103 552.739 196 548 c 16
 165.55 536.075 171.756 534.728 156.125 526.535 c 24
 119.83 507.513 31.333 451.08 62.5996 478.835 c 16
EndSplineSet
Ref: 103 103 N 1 0 0 1 0 0
EndChar
StartChar: Hcircumflex
Encoding: 292 292 11
Width: 679
VStem: 19.1865 97.8135<507 540> 384 39<393 471> 384 42<471 495>
Fore
75.2627 826.122 m 20
 122.67 861.439 130.955 877.013 170.078 905.76 c 28
 189.354 919.924 206.302 956.51 222 939 c 20
 246.833 911.3 257.486 905.335 280.695 884.292 c 28
 301.543 865.39 314.558 853.13 334.875 836.51 c 12
 344.488 828.646 319.141 824.757 307.785 819.197 c 28
 297.777 814.298 288.711 802.125 280.695 809.502 c 20
 264.893 824.045 253.416 841.8 235.545 862.132 c 28
 227.156 871.677 226.285 890.498 213.723 886.369 c 20
 182.118 875.982 188.559 874.808 172.335 867.672 c 28
 134.664 851.103 42.8105 801.946 75.2627 826.122 c 20
EndSplineSet
Ref: 72 72 N 1 0 0 1 0 0
EndChar
StartChar: hcircumflex
Encoding: 293 293 12
Width: 338
Fore
-20.7373 814.122 m 20
 26.6699 849.439 34.9551 865.013 74.0781 893.76 c 28
 93.3545 907.924 110.302 944.51 126 927 c 20
 150.833 899.3 161.486 893.335 184.695 872.292 c 28
 205.543 853.39 218.558 841.13 238.875 824.51 c 12
 248.488 816.646 223.141 812.757 211.785 807.197 c 28
 201.777 802.298 192.711 790.125 184.695 797.502 c 20
 168.893 812.045 157.416 829.8 139.545 850.132 c 28
 131.156 859.677 130.285 878.498 117.723 874.369 c 20
 86.1182 863.982 92.5586 862.808 76.335 855.672 c 28
 38.6641 839.103 -53.1895 789.946 -20.7373 814.122 c 20
EndSplineSet
Ref: 104 104 N 1 0 0 1 0 0
EndChar
StartChar: Hbar
Encoding: 294 294 13
Width: 679
Flags: W
HStem: 622.971 40.029<152 523>
VStem: 19.1865 97.8135<507 540> 384 39<393 471> 384 42<471 495>
Fore
154.463 663 m 20
 215.195 664.413 239.58 663.053 294 663 c 24
 388.376 662.908 489.108 664.884 535.988 662.53 c 8
 546.784 661.988 531.384 646.231 527.465 636.157 c 24
 525.414 630.886 527.083 623.023 521.427 622.971 c 16
 471.35 622.5 329.256 621.971 278.019 622.971 c 8
 221.947 624.065 196.017 624.855 134.219 623.442 c 12
 126.156 623.258 136.678 635.992 140.256 643.221 c 28
 144.469 651.732 144.968 662.779 154.463 663 c 20
EndSplineSet
Ref: 72 72 N 1 0 0 1 0 0
EndChar
